<svg xmlns="http://www.w3.org/2000/svg" width="2465.327" height="10.005" viewBox="0 0 2465.327 10.005"><g transform="translate(-80.837)"><path d="M782.687-301.384v-1.224l-5.977-8.169-.448-.612-6.431,8.789-.44-.6,5.647-8.188h-.878l-5.221,7.57-.474-.647,4.689-6.923h-.873l-4.269,6.3-.526-.719,3.82-5.584h-.876l-3.4,4.966-.381-.521,2.794-4.445h-.854l-2.37,3.771v.008l-2.834-3.779-6.431,8.789-.44-.6,5.647-8.188h-.878l-5.221,7.57-.474-.647,4.689-6.923h-.873l-4.269,6.3-.526-.719,3.82-5.584h-.876l-3.4,4.966-.381-.521,2.794-4.445h-.854l-2.37,3.771v.008l-2.833-3.779-6.431,8.789-.44-.6,5.647-8.188h-.878l-5.221,7.57-.474-.647,4.689-6.923h-.873l-4.269,6.3-.526-.719,3.82-5.584h-.876l-3.4,4.966-.381-.521,2.793-4.445h-.854l-2.37,3.771v.008l-2.834-3.779-6.431,8.789-.44-.6,5.647-8.188h-.878l-5.221,7.57-.474-.647,4.689-6.923h-.873l-4.269,6.3-.526-.719,3.82-5.584h-.876l-3.4,4.966-.381-.521,2.794-4.445h-.854l-2.37,3.771v.008l-2.833-3.779-6.431,8.789-.44-.6,5.647-8.188h-.878l-5.221,7.57-.474-.647,4.689-6.923h-.873l-4.269,6.3-.526-.719,3.82-5.584h-.876l-3.4,4.966-.381-.521,2.794-4.445H717.1l-2.37,3.771v.008l-2.833-3.779-6.431,8.789-.44-.6,5.647-8.188h-.878l-5.221,7.57-.474-.647,4.689-6.923h-.873l-4.269,6.3-.526-.719,3.82-5.584h-.876l-3.4,4.966-.381-.521,2.794-4.445h-.854l-2.37,3.771v.008l-2.833-3.779L692.59-302.6l-.44-.6,5.647-8.188h-.878l-5.221,7.57-.474-.647,4.689-6.923h-.873l-4.269,6.3-.526-.719,3.82-5.584h-.876l-3.4,4.966-.381-.521,2.793-4.445h-.854l-2.37,3.771v.008l-2.833-3.779-6.431,8.789-.44-.6,5.647-8.188h-.878l-5.221,7.57-.474-.647,4.689-6.923h-.873l-4.269,6.3-.526-.719,3.82-5.584h-.876l-3.4,4.966-.381-.521,2.794-4.445h-.854l-2.37,3.771v.008l-2.833-3.779-6.431,8.789-.44-.6,5.647-8.188h-.878l-5.221,7.57-.474-.647,4.689-6.923h-.873l-4.269,6.3-.526-.719,3.82-5.584h-.876l-3.4,4.966-.381-.521,2.793-4.445H665.6l-2.37,3.771v.008l-2.833-3.779L653.97-302.6l-.44-.6,5.647-8.188H658.3l-5.221,7.57-.474-.647,4.689-6.923h-.873l-4.269,6.3-.526-.719,3.82-5.584h-.876l-3.4,4.966-.381-.521,2.794-4.445h-.854l-2.37,3.771v.008l-2.833-3.779L641.1-302.6l-.44-.6,5.647-8.188h-.878l-5.221,7.57-.474-.647,4.689-6.923h-.873l-4.269,6.3-.526-.719,3.82-5.584h-.876l-3.4,4.966-.381-.521,2.794-4.445h-.854l-2.37,3.771v.008l-2.833-3.779-6.431,8.789-.44-.6,5.647-8.188h-.878l-5.221,7.57-.474-.647,4.689-6.923h-.873l-4.269,6.3-.526-.719,3.82-5.584h-.876l-3.4,4.966-.381-.521,2.794-4.445h-.854l-2.37,3.771v.008l-2.833-3.779-6.431,8.789-.44-.6,5.647-8.188h-.878l-5.221,7.57-.474-.647,4.689-6.923H617.8l-4.269,6.3L613-305.8l3.82-5.584h-.876l-3.4,4.966-.381-.521,2.793-4.445h-.854l-2.37,3.771v.008l-2.833-3.779-6.431,8.789-.44-.6,5.647-8.188H606.8l-5.221,7.57-.474-.647,4.689-6.923h-.873l-4.269,6.3-.526-.719,3.82-5.584h-.876l-3.4,4.966-.381-.521,2.794-4.445h-.854l-2.37,3.771v.008l-2.833-3.779L589.6-302.6l-.44-.6,5.647-8.188h-.878l-5.221,7.57-.474-.647,4.689-6.923h-.873l-4.269,6.3-.526-.719,3.82-5.584H590.2l-3.4,4.966-.381-.521,2.794-4.445h-.854l-2.37,3.771v.008l-2.833-3.779-6.431,8.789-.44-.6,5.647-8.188h-.878l-5.221,7.57-.474-.647,4.689-6.923h-.873l-4.269,6.3-.526-.719,3.82-5.584h-.876l-3.4,4.966-.381-.521,2.794-4.445h-.854l-2.37,3.771v.008l-2.833-3.779-6.431,8.789-.44-.6,5.647-8.188h-.878l-5.221,7.57-.474-.647,4.689-6.923h-.873l-4.269,6.3-.526-.719,3.82-5.584h-.876l-3.4,4.966-.381-.521,2.794-4.445h-.854l-2.37,3.771v.008l-2.833-3.779-6.431,8.789-.44-.6,5.647-8.188h-.878l-5.221,7.57-.474-.647,4.689-6.923h-.873l-4.269,6.3-.526-.719,3.82-5.584h-.876l-3.4,4.966-.381-.521,2.793-4.445h-.854l-2.37,3.771v.008l-2.833-3.779-6.431,8.789-.44-.6,5.647-8.188h-.878l-5.221,7.57-.474-.647,4.689-6.923h-.873l-4.269,6.3-.526-.719,3.82-5.584h-.876l-3.4,4.966-.381-.521,2.793-4.445h-.854l-2.37,3.771v.008l-2.833-3.779-6.431,8.789-.44-.6,5.647-8.188h-.878l-5.221,7.57-.474-.647,4.689-6.923h-.873l-4.269,6.3-.526-.719,3.82-5.584h-.876l-3.4,4.966-.381-.521,2.793-4.445H524l-2.37,3.771v.008l-2.833-3.779-6.431,8.789-.44-.6,5.647-8.188h-.878l-5.221,7.57-.474-.647,4.689-6.923h-.873l-4.269,6.3-.526-.719,3.82-5.584h-.876l-3.4,4.966-.381-.521,2.794-4.445h-.854l-2.37,3.771v.008l-2.833-3.779-6.431,8.789-.44-.6,5.647-8.188h-.878l-5.221,7.57-.474-.647,4.689-6.923h-.873l-4.269,6.3-.526-.719,3.82-5.584h-.876l-3.4,4.966-.381-.521,2.794-4.445h-.854l-2.37,3.771v.008l-2.833-3.779-6.431,8.789-.44-.6,5.647-8.188h-.878l-5.221,7.57-.474-.647,4.689-6.923h-.873l-4.269,6.3-.526-.719,3.82-5.584h-.876l-3.4,4.966-.381-.521,2.794-4.445h-.854l-2.37,3.771v.008l-2.833-3.779-6.431,8.789-.44-.6,5.647-8.188h-.878l-5.221,7.57-.474-.647,4.689-6.923h-.873l-4.269,6.3-.526-.719,3.82-5.584h-.876l-3.4,4.966-.381-.521,2.793-4.445H472.5l-2.37,3.771v.008l-2.833-3.779-6.431,8.789-.44-.6,5.647-8.188H465.2l-5.221,7.57-.474-.647,4.689-6.923h-.873l-4.269,6.3-.526-.719,3.82-5.584h-.876l-3.4,4.966-.381-.521,2.794-4.445h-.854l-2.37,3.771v.008l-2.833-3.779-6.431,8.789-.44-.6,5.647-8.188h-.878l-5.221,7.57-.474-.647,4.689-6.923h-.873l-4.269,6.3-.526-.719,3.82-5.584h-.876l-3.4,4.966-.381-.521,2.794-4.445h-.854l-2.37,3.771v.008l-2.833-3.779-6.431,8.789-.44-.6,5.647-8.188h-.878l-5.221,7.57-.474-.647,4.689-6.923h-.873l-4.269,6.3-.526-.719,3.82-5.584h-.876l-3.4,4.966-.381-.521,2.794-4.445h-.854l-2.37,3.771v.008l-2.833-3.779-6.431,8.789-.44-.6,5.647-8.188h-.878l-5.221,7.57-.474-.647,4.689-6.923H424.7l-4.269,6.3-.526-.719,3.82-5.584h-.876l-3.4,4.966-.381-.521,2.794-4.445h-.854l-2.37,3.771v.008l-2.833-3.779-6.431,8.789-.44-.6,5.647-8.188H413.7l-5.221,7.57-.474-.647,4.689-6.923h-.873l-4.269,6.3-.526-.719,3.82-5.584h-.876l-3.4,4.966-.381-.521,2.794-4.445h-.854l-2.37,3.771v.008l-2.833-3.779L396.5-302.6l-.44-.6,5.647-8.188h-.878l-5.221,7.57-.474-.647,4.689-6.923h-.873l-4.269,6.3-.526-.719,3.82-5.584H397.1l-3.4,4.966-.381-.521,2.793-4.445h-.854l-2.37,3.771v.008l-2.833-3.779-6.431,8.789-.44-.6,5.647-8.188h-.878l-5.221,7.57-.474-.647,4.689-6.923h-.873l-4.269,6.3-.526-.719,3.82-5.584h-.876l-3.4,4.966-.381-.521,2.794-4.445h-.854l-2.37,3.771v.008l-2.833-3.779-6.431,8.789-.44-.6,5.647-8.188h-.878l-5.221,7.57-.474-.647,4.689-6.923H373.2l-4.269,6.3-.526-.719,3.82-5.584h-.876l-3.4,4.966-.381-.521,2.794-4.445h-.854l-2.37,3.771v.008l-2.833-3.779L357.88-302.6l-.44-.6,5.647-8.188h-.878l-5.221,7.57-.474-.647,4.689-6.923h-.873l-4.269,6.3-.526-.719,3.82-5.584h-.876l-3.4,4.966-.381-.521,2.794-4.445h-.854l-2.37,3.771v.008l-2.833-3.779-6.431,8.789-.44-.6,5.647-8.188h-.878l-5.221,7.57-.474-.647,4.689-6.923h-.873l-4.269,6.3-.526-.719,3.82-5.584h-.876l-3.4,4.966-.381-.521,2.794-4.445h-.854l-2.37,3.771v.008l-2.833-3.779-6.431,8.789-.44-.6,5.647-8.188h-.878l-5.221,7.57-.474-.647,4.689-6.923h-.873l-4.269,6.3-.526-.719,3.82-5.584h-.876l-3.4,4.966-.381-.521,2.794-4.445h-.854l-2.37,3.771v.008l-2.833-3.779L319.26-302.6l-.44-.6,5.647-8.188h-.878l-5.221,7.57-.474-.647,4.689-6.923h-.873l-4.269,6.3-.526-.719,3.82-5.584h-.876l-3.4,4.966-.381-.521,2.794-4.445h-.854l-2.37,3.771v.008l-2.833-3.779-6.431,8.789-.44-.6,5.647-8.188h-.878l-5.221,7.57-.474-.647,4.689-6.923h-.873l-4.269,6.3-.526-.719,3.82-5.584h-.876l-3.4,4.966-.381-.521L306-311.389h-.854l-2.37,3.771v.008l-2.833-3.779-6.431,8.789-.44-.6,5.647-8.188h-.878l-5.221,7.57-.474-.647,4.689-6.923h-.873l-4.269,6.3-.526-.719,3.82-5.584h-.876l-3.4,4.966-.381-.521,2.794-4.445h-.854l-2.37,3.771v.008l-2.833-3.779-6.431,8.789-.44-.6,5.647-8.188h-.878l-5.221,7.57-.474-.647,4.689-6.923h-.873l-4.269,6.3-.526-.719,3.82-5.584h-.876l-3.4,4.966-.381-.521,2.793-4.445H279.4l-2.37,3.771v.008l-2.833-3.779-6.431,8.789-.44-.6,5.647-8.188h-.878l-5.221,7.57-.474-.647,4.689-6.923h-.873l-4.269,6.3-.526-.719,3.82-5.584h-.876l-3.4,4.966-.381-.521,2.793-4.445h-.854l-2.37,3.771v.008l-2.833-3.779-6.431,8.789-.44-.6,5.647-8.188h-.878L254-303.819l-.474-.647,4.689-6.923h-.873l-4.269,6.3-.526-.719,3.82-5.584h-.876l-3.4,4.966-.381-.521,2.794-4.445h-.854l-2.37,3.771v.008l-2.833-3.779-6.431,8.789-.44-.6,5.647-8.188h-.878l-5.221,7.57-.474-.647,4.689-6.923h-.873l-4.269,6.3-.526-.719,3.82-5.584h-.876l-3.4,4.966-.381-.521,2.794-4.445h-.854l-2.37,3.771v.008l-2.833-3.779-6.431,8.789-.44-.6,5.647-8.188h-.878l-5.221,7.57-.474-.647,4.689-6.923H231.6l-4.269,6.3-.526-.719,3.82-5.584h-.876l-3.4,4.966-.381-.521,2.794-4.445h-.854l-2.37,3.771v.008l-2.833-3.779-6.431,8.789-.44-.6,5.647-8.188H220.6l-5.221,7.57-.474-.647,4.689-6.923h-.873l-4.269,6.3-.526-.719,3.82-5.584h-.876l-3.4,4.966-.381-.521,2.794-4.445h-.854l-2.37,3.771v.008l-2.833-3.779L203.4-302.6l-.44-.6,5.647-8.188h-.878l-5.221,7.57-.474-.647,4.689-6.923h-.873l-4.269,6.3-.526-.719,3.82-5.584H204l-3.4,4.966-.381-.521,2.793-4.445h-.854l-2.37,3.771v.008l-2.833-3.779-6.431,8.789-.44-.6,5.647-8.188h-.878l-5.221,7.57-.474-.647,4.689-6.923h-.873l-4.269,6.3-.526-.719,3.82-5.584h-.876l-3.4,4.966-.381-.521,2.793-4.445h-.854l-2.37,3.771v.008l-2.833-3.779-6.431,8.789-.44-.6,5.647-8.188h-.878l-5.221,7.57-.474-.647,4.689-6.923H180.1l-4.269,6.3-.526-.719,3.82-5.584h-.876l-3.4,4.966-.381-.521,2.794-4.445h-.854l-2.37,3.771v.008l-2.833-3.779-6.431,8.789-.44-.6,5.647-8.188h-.878l-5.221,7.57-.474-.647,4.689-6.923h-.873l-4.269,6.3-.526-.719,3.82-5.584h-.876l-3.4,4.966-.381-.521,2.794-4.445h-.854l-2.37,3.771v.008l-2.833-3.779L151.9-302.6l-.44-.6,5.647-8.188h-.878l-5.221,7.57-.474-.647,4.689-6.923h-.873l-4.269,6.3-.526-.719,3.82-5.584H152.5l-3.4,4.966-.381-.521,2.794-4.445h-.854l-2.37,3.771v.008l-2.833-3.779-6.431,8.789-.44-.6,5.647-8.188h-.878l-5.221,7.57-.474-.647,4.689-6.923h-.873l-4.269,6.3-.526-.719,3.82-5.584h-.876l-3.4,4.966-.381-.521,2.794-4.445h-.854l-2.37,3.771v.008l-2.833-3.779-6.431,8.789-.44-.6,5.647-8.188h-.878l-5.221,7.57-.474-.647,4.689-6.923h-.873l-4.269,6.3-.526-.719,3.82-5.584h-.876l-3.4,4.966-.381-.521,2.794-4.445h-.854l-2.37,3.771v.008l-2.833-3.779-6.431,8.789-.44-.6,5.647-8.188h-.878l-5.221,7.57-.474-.647,4.689-6.923h-.873l-4.269,6.3-.526-.719,3.82-5.584h-.876l-3.4,4.966-.381-.521,2.794-4.445h-.854l-2.37,3.771v.008l-2.833-3.779-6.431,8.789-.44-.6,5.647-8.188h-.878l-5.221,7.57-.474-.647,4.689-6.923h-.873l-4.269,6.3-.526-.719,3.82-5.584h-.876l-3.4,4.966-.381-.521,2.794-4.445h-.854l-2.37,3.771v.008l-2.833-3.779L87.537-302.6l-.44-.6,5.647-8.188h-.878l-5.221,7.57-.474-.647,4.689-6.923h-.873l-4.269,6.3-.526-.719,3.82-5.584h-.876l-3.4,4.966-.381-.521,2.794-4.445H86.3l-2.37,3.771v.008l-2.833-3.779L74.664-302.6l-.44-.6,5.647-8.188h-.878l-5.221,7.57-.474-.647,4.689-6.923h-.873l-4.269,6.3-.526-.719,3.82-5.584h-.876l-3.4,4.966-.381-.521,2.794-4.445h-.854l-2.37,3.771v.008l-2.833-3.779L61.79-302.6l-.44-.6L67-311.389h-.878l-5.221,7.57-.474-.647,4.689-6.923H64.24l-4.269,6.3-.526-.719,3.82-5.584h-.876l-3.4,4.966-.381-.521,2.794-4.445h-.854l-2.37,3.771v.008l-2.833-3.779L48.917-302.6l-.44-.6,5.647-8.188h-.878l-5.221,7.57-.474-.647,4.689-6.923h-.873l-4.269,6.3-.526-.719,3.82-5.584h-.876l-3.4,4.966-.381-.521,2.794-4.445h-.854l-2.37,3.771v.008l-2.833-3.779L36.043-302.6l-.44-.6,5.647-8.188h-.878l-5.221,7.57-.474-.647,4.689-6.923h-.873l-4.269,6.3L33.7-305.8l3.82-5.584h-.876l-3.4,4.966-.381-.521,2.794-4.445H34.8l-2.37,3.771v.008L29.6-311.389,23.17-302.6l-.44-.6,5.647-8.188H27.5l-5.221,7.57-.474-.647,4.689-6.923H25.62l-4.269,6.3-.526-.719,3.82-5.584h-.876l-3.4,4.966-.381-.521,2.794-4.445H21.93l-2.37,3.771v.008l-2.833-3.779L10.3-302.6l-.44-.6,5.647-8.188h-.878L9.4-303.819l-.474-.647,4.689-6.923h-.873l-4.269,6.3-.526-.719,3.82-5.584H10.9l-3.4,4.966-.381-.521,2.794-4.445H9.057l-2.37,3.771v.008l-2.833-3.779L-2.577-302.6l-.44-.6,5.647-8.188H1.752l-5.221,7.57-.474-.647,4.689-6.923H-.127l-4.269,6.3-.526-.719,3.82-5.584h-.876l-3.4,4.966-.381-.521,2.794-4.445h-.854l-2.37,3.771v.008l-2.833-3.779L-15.45-302.6l-.44-.6,5.647-8.188h-.878l-5.221,7.57-.474-.647,4.689-6.923H-13l-4.269,6.3-.526-.719,3.82-5.584h-.876l-3.4,4.966-.381-.521,2.794-4.445h-.854l-2.37,3.771v.008l-2.833-3.779-6.431,8.789-.44-.6,5.647-8.188H-24l-5.221,7.57-.474-.647L-25-311.389h-.873l-4.269,6.3-.526-.719,3.82-5.584h-.876l-3.4,4.966-.381-.521,2.794-4.445h-.854l-2.37,3.771v.008l-2.833-3.779L-41.2-302.6l-.44-.6,5.647-8.188h-.878l-5.221,7.57-.474-.647,4.689-6.923h-.873l-4.269,6.3-.526-.719,3.82-5.584H-40.6l-3.4,4.966-.381-.521,2.794-4.445h-.854l-2.37,3.771v.008l-2.833-3.779v1.224l6.449,8.781.655-.895,2.155-2.884v.008l2.37,3.771h.854l-2.788-4.436.381-.521,3.391,4.957h.876l-3.814-5.575.526-.719,4.263,6.295h.873l-4.683-6.914.474-.647,5.215,7.562h.878l-5.641-8.179.44-.6,6.425,8.781v-.032l.024.032.655-.895,2.155-2.884v.008l2.37,3.771h.854l-2.788-4.436.381-.521,3.391,4.957h.876l-3.814-5.575.526-.719,4.263,6.295h.873l-4.683-6.914.474-.647,5.215,7.562h.878l-5.641-8.179.44-.6,6.425,8.781v-.032l.024.032.655-.895,2.155-2.884v.008l2.37,3.771h.854L-12.2-305.82l.381-.521,3.391,4.957h.876l-3.814-5.575.526-.719,4.263,6.295H-5.7l-4.683-6.914.474-.647,5.215,7.562h.878l-5.641-8.179.44-.6,6.425,8.781v-.032l.024.032.655-.895,2.155-2.884v.008l2.37,3.771h.854L.674-305.82l.381-.521,3.391,4.957h.876l-3.814-5.575.526-.719L6.3-301.384h.873L2.488-308.3l.474-.647,5.215,7.562h.878l-5.641-8.179.44-.6,6.425,8.781v-.032l.024.032.655-.895,2.155-2.884v.008l2.37,3.771h.854l-2.788-4.436.381-.521,3.391,4.957H18.2l-3.814-5.575.526-.719,4.263,6.295h.873L15.362-308.3l.474-.647,5.215,7.562h.878l-5.641-8.179.44-.6,6.425,8.781v-.032l.024.032.655-.895,2.155-2.884v.008l2.37,3.771h.854l-2.788-4.436.381-.521,3.391,4.957h.876l-3.814-5.575.526-.719,4.263,6.295h.873L28.235-308.3l.474-.647,5.215,7.562H34.8l-5.641-8.179.44-.6,6.425,8.781v-.032l.024.032.655-.895,2.155-2.884v.008l2.37,3.771h.854l-2.788-4.436.381-.521,3.391,4.957h.876l-3.814-5.575.526-.719,4.263,6.295h.873L41.109-308.3l.474-.647,5.215,7.562h.878l-5.641-8.179.44-.6,6.425,8.781v-.032l.024.032.655-.895,2.155-2.884v.008l2.37,3.771h.854l-2.788-4.436.381-.521,3.391,4.957h.876L53-306.959l.526-.719,4.263,6.295h.873L53.982-308.3l.474-.647,5.215,7.562h.878l-5.641-8.179.44-.6,6.425,8.781v-.032l.024.032.655-.895,2.155-2.884v.008l2.37,3.771h.854l-2.788-4.436.381-.521,3.391,4.957h.876l-3.814-5.575.526-.719,4.263,6.295h.873L66.855-308.3l.474-.647,5.215,7.562h.878l-5.641-8.179.44-.6,6.425,8.781v-.032l.024.032.655-.895,2.155-2.884v.008l2.37,3.771H80.7l-2.788-4.436.381-.521,3.391,4.957h.876l-3.814-5.575.526-.719,4.263,6.295h.873L79.729-308.3l.474-.647,5.215,7.562H86.3l-5.641-8.179.44-.6,6.425,8.781v-.032l.024.032.655-.895,2.155-2.884v.008l2.37,3.771h.854l-2.788-4.436.381-.521,3.391,4.957h.876l-3.814-5.575.526-.719,4.263,6.295h.873L92.6-308.3l.474-.647,5.215,7.562h.878l-5.641-8.179.44-.6,6.425,8.781v-.032l.024.032.655-.895,2.155-2.884v.008l2.37,3.771h.854l-2.788-4.436.381-.521,3.391,4.957h.876l-3.814-5.575.526-.719,4.263,6.295h.873l-4.683-6.914.474-.647,5.215,7.562h.878l-5.641-8.179.44-.6,6.425,8.781v-.032l.024.032.655-.895,2.155-2.884v.008l2.37,3.771h.854l-2.788-4.436.381-.521,3.391,4.957h.876l-3.814-5.575.526-.719,4.263,6.295h.873l-4.683-6.914.474-.647,5.215,7.562h.878l-5.641-8.179.44-.6,6.425,8.781v-.032l.024.032.655-.895,2.155-2.884v.008l2.37,3.771h.854l-2.788-4.436.381-.521,3.391,4.957h.876l-3.814-5.575.526-.719,4.263,6.295h.873l-4.683-6.914.474-.647,5.215,7.562h.878l-5.641-8.179.44-.6,6.425,8.781v-.032l.024.032.655-.895,2.155-2.884v.008l2.37,3.771h.854l-2.788-4.436.381-.521,3.391,4.957h.876l-3.814-5.575.526-.719,4.263,6.295h.873L144.1-308.3l.474-.647,5.215,7.562h.878l-5.641-8.179.44-.6,6.425,8.781v-.032l.024.032.655-.895,2.155-2.884v.008l2.37,3.771h.854l-2.788-4.436.381-.521,3.391,4.957h.876l-3.814-5.575.526-.719,4.263,6.295h.873L156.97-308.3l.474-.647,5.215,7.562h.878l-5.641-8.179.44-.6,6.425,8.781v-.032l.024.032.655-.895,2.155-2.884v.008l2.37,3.771h.854l-2.788-4.436.381-.521,3.391,4.957h.876l-3.814-5.575.526-.719,4.263,6.295h.873l-4.683-6.914.474-.647,5.215,7.562h.878l-5.641-8.179.44-.6,6.425,8.781v-.032l.024.032.655-.895,2.155-2.884v.008l2.37,3.771h.854L180.9-305.82l.381-.521,3.391,4.957h.876l-3.814-5.575.526-.719,4.263,6.295h.873l-4.683-6.914.474-.647,5.215,7.562h.878l-5.641-8.179.44-.6,6.425,8.781v-.032l.024.032.655-.895,2.155-2.884v.008l2.37,3.771h.854l-2.788-4.436.381-.521,3.391,4.957h.876l-3.814-5.575.526-.719,4.263,6.295h.873L195.59-308.3l.474-.647,5.215,7.562h.878l-5.641-8.179.44-.6,6.425,8.781v-.032l.024.032.655-.895,2.155-2.884v.008l2.37,3.771h.854l-2.788-4.436.381-.521,3.391,4.957h.876l-3.814-5.575.526-.719,4.263,6.295h.873l-4.683-6.914.474-.647,5.215,7.562h.878l-5.641-8.179.44-.6,6.425,8.781v-.032l.024.032.655-.895,2.155-2.884v.008l2.37,3.771h.854l-2.788-4.436.381-.521,3.391,4.957h.876l-3.814-5.575.526-.719,4.263,6.295h.873l-4.683-6.914.474-.647,5.215,7.562h.878l-5.641-8.179.44-.6,6.425,8.781v-.032l.024.032.655-.895,2.155-2.884v.008l2.37,3.771h.854L232.4-305.82l.381-.521,3.391,4.957h.876l-3.814-5.575.526-.719,4.263,6.295h.873l-4.683-6.914.474-.647,5.215,7.562h.878l-5.641-8.179.44-.6L242-301.384v-.032l.024.032.655-.895,2.155-2.884v.008l2.37,3.771h.854l-2.788-4.436.381-.521,3.391,4.957h.876l-3.814-5.575.526-.719,4.263,6.295h.873l-4.683-6.914.474-.647,5.215,7.562h.878l-5.641-8.179.44-.6,6.425,8.781v-.032l.024.032.655-.895,2.155-2.884v.008l2.37,3.771h.854l-2.788-4.436.381-.521,3.391,4.957h.876l-3.814-5.575.526-.719,4.263,6.295h.873l-4.683-6.914.474-.647,5.215,7.562h.878l-5.641-8.179.44-.6,6.425,8.781v-.032l.024.032.655-.895,2.155-2.884v.008l2.37,3.771h.854l-2.788-4.436.381-.521,3.391,4.957h.876l-3.814-5.575.526-.719,4.263,6.295h.873l-4.683-6.914.474-.647,5.215,7.562h.878l-5.641-8.179.44-.6,6.425,8.781v-.032l.024.032.655-.895,2.155-2.884v.008l2.37,3.771h.854l-2.788-4.436.381-.521,3.391,4.957h.876l-3.814-5.575.526-.719,4.263,6.295h.873L285.7-308.3l.474-.647,5.215,7.562h.878l-5.641-8.179.44-.6,6.425,8.781v-.032l.024.032.655-.895,2.155-2.884v.008l2.37,3.771h.854l-2.788-4.436.381-.521,3.391,4.957h.876l-3.814-5.575.526-.719,4.263,6.295h.873l-4.683-6.914.474-.647,5.215,7.562h.878l-5.641-8.179.44-.6,6.425,8.781v-.032l.024.032.655-.895,2.155-2.884v.008l2.37,3.771h.854l-2.788-4.436.381-.521,3.391,4.957h.876l-3.814-5.575.526-.719,4.263,6.295h.873l-4.683-6.914.474-.647,5.215,7.562h.878l-5.641-8.179.44-.6,6.425,8.781v-.032l.024.032.655-.895,2.155-2.884v.008l2.37,3.771h.854l-2.788-4.436.381-.521,3.391,4.957h.876l-3.814-5.575.526-.719,4.263,6.295h.873l-4.683-6.914.474-.647,5.215,7.562h.878l-5.641-8.179.44-.6,6.425,8.781v-.032l.024.032.655-.895,2.155-2.884v.008l2.37,3.771h.854l-2.788-4.436.381-.521,3.391,4.957h.876l-3.814-5.575.526-.719,4.263,6.295h.873L337.2-308.3l.474-.647,5.215,7.562h.878l-5.641-8.179.44-.6,6.425,8.781v-.032l.024.032.655-.895,2.155-2.884v.008l2.37,3.771h.854l-2.788-4.436.381-.521,3.391,4.957h.876l-3.814-5.575.526-.719,4.263,6.295h.873l-4.683-6.914.474-.647,5.215,7.562h.878L351-309.563l.44-.6,6.425,8.781v-.032l.024.032.654-.895,2.155-2.884v.008l2.37,3.771h.854l-2.788-4.436.381-.521,3.391,4.957h.876l-3.814-5.575.526-.719,4.263,6.295h.873l-4.683-6.914.474-.647,5.215,7.562h.878l-5.641-8.179.44-.6,6.425,8.781v-.032l.024.032.655-.895,2.155-2.884v.008l2.37,3.771h.854L374-305.82l.381-.521,3.391,4.957h.876l-3.814-5.575.526-.719,4.263,6.295h.873l-4.683-6.914.474-.647,5.215,7.562h.878l-5.641-8.179.44-.6,6.425,8.781v-.032l.024.032.655-.895,2.155-2.884v.008l2.37,3.771h.854l-2.788-4.436.381-.521,3.391,4.957h.876l-3.814-5.575.526-.719,4.263,6.295h.873l-4.683-6.914.474-.647,5.215,7.562h.878l-5.641-8.179.44-.6,6.425,8.781v-.032l.024.032.655-.895,2.155-2.884v.008l2.37,3.771h.854l-2.788-4.436.381-.521,3.391,4.957h.876l-3.814-5.575.526-.719,4.263,6.295h.873l-4.683-6.914.474-.647,5.215,7.562h.878l-5.641-8.179.44-.6,6.425,8.781v-.032l.024.032.655-.895,2.155-2.884v.008l2.37,3.771h.854l-2.788-4.436.381-.521,3.391,4.957h.876l-3.814-5.575.526-.719,4.263,6.295h.873l-4.683-6.914.474-.647,5.215,7.562h.878l-5.641-8.179.44-.6,6.425,8.781v-.032l.024.032.655-.895,2.155-2.884v.008l2.37,3.771h.854L425.5-305.82l.381-.521,3.391,4.957h.876l-3.814-5.575.526-.719,4.263,6.295H432l-4.683-6.914.474-.647L433-301.384h.878l-5.641-8.179.44-.6,6.425,8.781v-.032l.024.032.655-.895,2.155-2.884v.008l2.37,3.771h.854l-2.788-4.436.381-.521,3.391,4.957h.876l-3.814-5.575.526-.719L444-301.384h.873l-4.683-6.914.474-.647,5.215,7.562h.878l-5.641-8.179.44-.6,6.425,8.781v-.032l.024.032.655-.895,2.155-2.884v.008l2.37,3.771h.854l-2.788-4.436.381-.521,3.391,4.957h.876l-3.814-5.575.526-.719,4.263,6.295h.873L453.06-308.3l.474-.647,5.215,7.562h.878l-5.641-8.179.44-.6,6.425,8.781v-.032l.024.032.655-.895,2.155-2.884v.008l2.37,3.771h.854l-2.788-4.436.381-.521,3.391,4.957h.876l-3.814-5.575.526-.719,4.263,6.295h.873l-4.683-6.914.474-.647,5.215,7.562h.878l-5.641-8.179.44-.6,6.425,8.781v-.032l.024.032.655-.895,2.155-2.884v.008l2.37,3.771h.854l-2.788-4.436.381-.521,3.391,4.957h.876l-3.814-5.575.526-.719,4.263,6.295h.873l-4.683-6.914.474-.647,5.215,7.562h.878l-5.641-8.179.44-.6,6.425,8.781v-.032l.024.032.655-.895,2.155-2.884v.008l2.37,3.771h.854l-2.788-4.436.381-.521,3.391,4.957h.876l-3.814-5.575.526-.719,4.263,6.295h.873L491.68-308.3l.474-.647,5.215,7.562h.878l-5.641-8.179.44-.6,6.425,8.781v-.032l.024.032.655-.895,2.155-2.884v.008l2.37,3.771h.854l-2.788-4.436.381-.521,3.391,4.957h.876l-3.814-5.575.526-.719,4.263,6.295h.873l-4.683-6.914.474-.647,5.215,7.562h.878l-5.641-8.179.44-.6,6.425,8.781v-.032l.024.032.655-.895,2.155-2.884v.008l2.37,3.771h.854l-2.788-4.436.381-.521,3.391,4.957h.876l-3.814-5.575.526-.719,4.263,6.295h.873l-4.683-6.914.474-.647,5.215,7.562h.878l-5.641-8.179.44-.6,6.425,8.781v-.032l.024.032.654-.895,2.155-2.884v.008l2.37,3.771h.854l-2.788-4.436.381-.521,3.391,4.957h.876l-3.814-5.575.526-.719,4.263,6.295h.873L530.3-308.3l.474-.647,5.215,7.562h.878l-5.641-8.179.44-.6,6.425,8.781v-.032l.024.032.655-.895,2.155-2.884v.008l2.37,3.771h.854l-2.788-4.436.381-.521,3.391,4.957h.876l-3.814-5.575.526-.719,4.263,6.295h.873l-4.683-6.914.474-.647,5.215,7.562h.878l-5.641-8.179.44-.6,6.425,8.781v-.032l.024.032.655-.895,2.155-2.884v.008l2.37,3.771h.854l-2.788-4.436.381-.521,3.391,4.957h.876l-3.814-5.575.526-.719,4.263,6.295h.873l-4.683-6.914.474-.647,5.215,7.562h.878l-5.641-8.179.44-.6,6.425,8.781v-.032l.024.032.655-.895,2.155-2.884v.008l2.37,3.771h.854l-2.788-4.436.381-.521,3.391,4.957h.876l-3.814-5.575.526-.719,4.263,6.295h.873l-4.683-6.914.474-.647,5.215,7.562h.878l-5.641-8.179.44-.6,6.425,8.781v-.032l.024.032.655-.895,2.155-2.884v.008l2.37,3.771h.854l-2.788-4.436.381-.521,3.391,4.957h.876l-3.814-5.575.526-.719,4.263,6.295h.873l-4.683-6.914.474-.647,5.215,7.562h.878l-5.641-8.179.44-.6,6.425,8.781v-.032l.024.032.655-.895,2.155-2.884v.008l2.37,3.771h.854l-2.788-4.436.381-.521,3.391,4.957h.876l-3.814-5.575.526-.719,4.263,6.295h.873l-4.683-6.914.474-.647,5.215,7.562h.878l-5.641-8.179.44-.6,6.425,8.781v-.032l.024.032.654-.895,2.155-2.884v.008l2.37,3.771h.854l-2.788-4.436.381-.521,3.391,4.957h.876l-3.814-5.575.526-.719,4.263,6.295h.873l-4.683-6.914.474-.647,5.215,7.562h.878l-5.641-8.179.44-.6,6.425,8.781v-.032l.024.032.654-.895,2.155-2.884v.008l2.37,3.771h.854L618.6-305.82l.381-.521,3.391,4.957h.876l-3.814-5.575.526-.719,4.263,6.295h.873l-4.683-6.914.474-.647,5.215,7.562h.878l-5.641-8.179.44-.6,6.425,8.781v-.032l.024.032.654-.895,2.155-2.884v.008l2.37,3.771h.854l-2.788-4.436.381-.521,3.391,4.957h.876l-3.814-5.575.526-.719,4.263,6.295h.873l-4.683-6.914.474-.647,5.215,7.562h.878l-5.641-8.179.44-.6,6.425,8.781v-.032l.024.032.654-.895,2.155-2.884v.008l2.37,3.771h.854l-2.788-4.436.381-.521,3.391,4.957H649l-3.814-5.575.526-.719,4.263,6.295h.873l-4.683-6.914.474-.647,5.215,7.562h.878l-5.641-8.179.44-.6,6.425,8.781v-.032l.024.032.654-.895,2.155-2.884v.008l2.37,3.771h.854l-2.788-4.436.381-.521,3.391,4.957h.876l-3.814-5.575.526-.719,4.263,6.295h.873l-4.683-6.914.474-.647,5.215,7.562h.878l-5.641-8.179.44-.6,6.425,8.781v-.032l.024.032.654-.895,2.155-2.884v.008l2.37,3.771h.854l-2.788-4.436.381-.521,3.391,4.957h.876l-3.814-5.575.526-.719,4.263,6.295h.873l-4.683-6.914.474-.647,5.215,7.562h.878l-5.641-8.179.44-.6,6.425,8.781v-.032l.024.032.654-.895,2.155-2.884v.008l2.37,3.771h.854l-2.788-4.436.381-.521,3.391,4.957h.876l-3.814-5.575.526-.719,4.263,6.295h.873l-4.683-6.914.474-.647,5.215,7.562h.878l-5.641-8.179.44-.6,6.425,8.781v-.032l.024.032.655-.895,2.155-2.884v.008l2.37,3.771h.854l-2.788-4.436.381-.521,3.391,4.957h.876l-3.814-5.575.526-.719,4.263,6.295h.873l-4.683-6.914.474-.647,5.215,7.562h.878l-5.641-8.179.44-.6,6.425,8.781v-.032l.024.032.654-.895,2.155-2.884v.008l2.37,3.771h.854l-2.788-4.436.381-.521,3.391,4.957h.876l-3.814-5.575.526-.719,4.263,6.295h.873l-4.683-6.914.474-.647,5.215,7.562h.878l-5.641-8.179.44-.6,6.425,8.781v-.032l.024.032.654-.895,2.155-2.884v.008l2.37,3.771h.854l-2.788-4.436.381-.521,3.391,4.957h.876l-3.814-5.575.526-.719,4.263,6.295h.873L723.4-308.3l.474-.647,5.215,7.562h.878l-5.641-8.179.44-.6,6.425,8.781v-.032l.024.032.654-.895,2.155-2.884v.008l2.37,3.771h.854l-2.788-4.436.381-.521,3.391,4.957h.876l-3.814-5.575.526-.719,4.263,6.295h.873l-4.683-6.914.474-.647,5.215,7.562h.878l-5.641-8.179.44-.6,6.425,8.781v-.032l.024.032.655-.895,2.155-2.884v.008l2.37,3.771h.854l-2.788-4.436.381-.521,3.391,4.957h.876l-3.814-5.575.526-.719,4.263,6.295h.873l-4.683-6.914.474-.647,5.215,7.562h.878l-5.641-8.179.44-.6,6.425,8.781v-.032l.024.032.654-.895,2.155-2.884v.008l2.37,3.771H763l-2.788-4.436.381-.521,3.391,4.957h.876l-3.814-5.575.526-.719,4.263,6.295h.873l-4.683-6.914.474-.647,5.215,7.562h.878l-5.641-8.179.44-.6,6.425,8.781v-.032l.024.032.655-.895,2.155-2.884v.008l2.37,3.771h.854l-2.788-4.436.381-.521,3.391,4.957h.876l-3.814-5.575.526-.719,4.263,6.295h.873L774.9-308.3l.474-.647,5.215,7.562h.878l-5.641-8.179.44-.6Z" transform="translate(128.477 311.389)" fill="#d2d2d2"/><path d="M782.687-301.384v-1.224l-5.977-8.169-.448-.612-6.431,8.789-.44-.6,5.647-8.188h-.878l-5.221,7.57-.474-.647,4.689-6.923h-.873l-4.269,6.3-.526-.719,3.82-5.584h-.876l-3.4,4.966-.381-.521,2.794-4.445h-.854l-2.37,3.771v.008l-2.834-3.779-6.431,8.789-.44-.6,5.647-8.188h-.878l-5.221,7.57-.474-.647,4.689-6.923h-.873l-4.269,6.3-.526-.719,3.82-5.584h-.876l-3.4,4.966-.381-.521,2.794-4.445h-.854l-2.37,3.771v.008l-2.833-3.779-6.431,8.789-.44-.6,5.647-8.188h-.878l-5.221,7.57-.474-.647,4.689-6.923h-.873l-4.269,6.3-.526-.719,3.82-5.584h-.876l-3.4,4.966-.381-.521,2.793-4.445h-.854l-2.37,3.771v.008l-2.834-3.779-6.431,8.789-.44-.6,5.647-8.188h-.878l-5.221,7.57-.474-.647,4.689-6.923h-.873l-4.269,6.3-.526-.719,3.82-5.584h-.876l-3.4,4.966-.381-.521,2.794-4.445h-.854l-2.37,3.771v.008l-2.833-3.779-6.431,8.789-.44-.6,5.647-8.188h-.878l-5.221,7.57-.474-.647,4.689-6.923h-.873l-4.269,6.3-.526-.719,3.82-5.584h-.876l-3.4,4.966-.381-.521,2.794-4.445H717.1l-2.37,3.771v.008l-2.833-3.779-6.431,8.789-.44-.6,5.647-8.188h-.878l-5.221,7.57-.474-.647,4.689-6.923h-.873l-4.269,6.3-.526-.719,3.82-5.584h-.876l-3.4,4.966-.381-.521,2.794-4.445h-.854l-2.37,3.771v.008l-2.833-3.779L692.59-302.6l-.44-.6,5.647-8.188h-.878l-5.221,7.57-.474-.647,4.689-6.923h-.873l-4.269,6.3-.526-.719,3.82-5.584h-.876l-3.4,4.966-.381-.521,2.793-4.445h-.854l-2.37,3.771v.008l-2.833-3.779-6.431,8.789-.44-.6,5.647-8.188h-.878l-5.221,7.57-.474-.647,4.689-6.923h-.873l-4.269,6.3-.526-.719,3.82-5.584h-.876l-3.4,4.966-.381-.521,2.794-4.445h-.854l-2.37,3.771v.008l-2.833-3.779-6.431,8.789-.44-.6,5.647-8.188h-.878l-5.221,7.57-.474-.647,4.689-6.923h-.873l-4.269,6.3-.526-.719,3.82-5.584h-.876l-3.4,4.966-.381-.521,2.793-4.445H665.6l-2.37,3.771v.008l-2.833-3.779L653.97-302.6l-.44-.6,5.647-8.188H658.3l-5.221,7.57-.474-.647,4.689-6.923h-.873l-4.269,6.3-.526-.719,3.82-5.584h-.876l-3.4,4.966-.381-.521,2.794-4.445h-.854l-2.37,3.771v.008l-2.833-3.779L641.1-302.6l-.44-.6,5.647-8.188h-.878l-5.221,7.57-.474-.647,4.689-6.923h-.873l-4.269,6.3-.526-.719,3.82-5.584h-.876l-3.4,4.966-.381-.521,2.794-4.445h-.854l-2.37,3.771v.008l-2.833-3.779-6.431,8.789-.44-.6,5.647-8.188h-.878l-5.221,7.57-.474-.647,4.689-6.923h-.873l-4.269,6.3-.526-.719,3.82-5.584h-.876l-3.4,4.966-.381-.521,2.794-4.445h-.854l-2.37,3.771v.008l-2.833-3.779-6.431,8.789-.44-.6,5.647-8.188h-.878l-5.221,7.57-.474-.647,4.689-6.923H617.8l-4.269,6.3L613-305.8l3.82-5.584h-.876l-3.4,4.966-.381-.521,2.793-4.445h-.854l-2.37,3.771v.008l-2.833-3.779-6.431,8.789-.44-.6,5.647-8.188H606.8l-5.221,7.57-.474-.647,4.689-6.923h-.873l-4.269,6.3-.526-.719,3.82-5.584h-.876l-3.4,4.966-.381-.521,2.794-4.445h-.854l-2.37,3.771v.008l-2.833-3.779L589.6-302.6l-.44-.6,5.647-8.188h-.878l-5.221,7.57-.474-.647,4.689-6.923h-.873l-4.269,6.3-.526-.719,3.82-5.584H590.2l-3.4,4.966-.381-.521,2.794-4.445h-.854l-2.37,3.771v.008l-2.833-3.779-6.431,8.789-.44-.6,5.647-8.188h-.878l-5.221,7.57-.474-.647,4.689-6.923h-.873l-4.269,6.3-.526-.719,3.82-5.584h-.876l-3.4,4.966-.381-.521,2.794-4.445h-.854l-2.37,3.771v.008l-2.833-3.779-6.431,8.789-.44-.6,5.647-8.188h-.878l-5.221,7.57-.474-.647,4.689-6.923h-.873l-4.269,6.3-.526-.719,3.82-5.584h-.876l-3.4,4.966-.381-.521,2.794-4.445h-.854l-2.37,3.771v.008l-2.833-3.779-6.431,8.789-.44-.6,5.647-8.188h-.878l-5.221,7.57-.474-.647,4.689-6.923h-.873l-4.269,6.3-.526-.719,3.82-5.584h-.876l-3.4,4.966-.381-.521,2.793-4.445h-.854l-2.37,3.771v.008l-2.833-3.779-6.431,8.789-.44-.6,5.647-8.188h-.878l-5.221,7.57-.474-.647,4.689-6.923h-.873l-4.269,6.3-.526-.719,3.82-5.584h-.876l-3.4,4.966-.381-.521,2.793-4.445h-.854l-2.37,3.771v.008l-2.833-3.779-6.431,8.789-.44-.6,5.647-8.188h-.878l-5.221,7.57-.474-.647,4.689-6.923h-.873l-4.269,6.3-.526-.719,3.82-5.584h-.876l-3.4,4.966-.381-.521,2.793-4.445H524l-2.37,3.771v.008l-2.833-3.779-6.431,8.789-.44-.6,5.647-8.188h-.878l-5.221,7.57-.474-.647,4.689-6.923h-.873l-4.269,6.3-.526-.719,3.82-5.584h-.876l-3.4,4.966-.381-.521,2.794-4.445h-.854l-2.37,3.771v.008l-2.833-3.779-6.431,8.789-.44-.6,5.647-8.188h-.878l-5.221,7.57-.474-.647,4.689-6.923h-.873l-4.269,6.3-.526-.719,3.82-5.584h-.876l-3.4,4.966-.381-.521,2.794-4.445h-.854l-2.37,3.771v.008l-2.833-3.779-6.431,8.789-.44-.6,5.647-8.188h-.878l-5.221,7.57-.474-.647,4.689-6.923h-.873l-4.269,6.3-.526-.719,3.82-5.584h-.876l-3.4,4.966-.381-.521,2.794-4.445h-.854l-2.37,3.771v.008l-2.833-3.779-6.431,8.789-.44-.6,5.647-8.188h-.878l-5.221,7.57-.474-.647,4.689-6.923h-.873l-4.269,6.3-.526-.719,3.82-5.584h-.876l-3.4,4.966-.381-.521,2.793-4.445H472.5l-2.37,3.771v.008l-2.833-3.779-6.431,8.789-.44-.6,5.647-8.188H465.2l-5.221,7.57-.474-.647,4.689-6.923h-.873l-4.269,6.3-.526-.719,3.82-5.584h-.876l-3.4,4.966-.381-.521,2.794-4.445h-.854l-2.37,3.771v.008l-2.833-3.779-6.431,8.789-.44-.6,5.647-8.188h-.878l-5.221,7.57-.474-.647,4.689-6.923h-.873l-4.269,6.3-.526-.719,3.82-5.584h-.876l-3.4,4.966-.381-.521,2.794-4.445h-.854l-2.37,3.771v.008l-2.833-3.779-6.431,8.789-.44-.6,5.647-8.188h-.878l-5.221,7.57-.474-.647,4.689-6.923h-.873l-4.269,6.3-.526-.719,3.82-5.584h-.876l-3.4,4.966-.381-.521,2.794-4.445h-.854l-2.37,3.771v.008l-2.833-3.779-6.431,8.789-.44-.6,5.647-8.188h-.878l-5.221,7.57-.474-.647,4.689-6.923H424.7l-4.269,6.3-.526-.719,3.82-5.584h-.876l-3.4,4.966-.381-.521,2.794-4.445h-.854l-2.37,3.771v.008l-2.833-3.779-6.431,8.789-.44-.6,5.647-8.188H413.7l-5.221,7.57-.474-.647,4.689-6.923h-.873l-4.269,6.3-.526-.719,3.82-5.584h-.876l-3.4,4.966-.381-.521,2.794-4.445h-.854l-2.37,3.771v.008l-2.833-3.779L396.5-302.6l-.44-.6,5.647-8.188h-.878l-5.221,7.57-.474-.647,4.689-6.923h-.873l-4.269,6.3-.526-.719,3.82-5.584H397.1l-3.4,4.966-.381-.521,2.793-4.445h-.854l-2.37,3.771v.008l-2.833-3.779-6.431,8.789-.44-.6,5.647-8.188h-.878l-5.221,7.57-.474-.647,4.689-6.923h-.873l-4.269,6.3-.526-.719,3.82-5.584h-.876l-3.4,4.966-.381-.521,2.794-4.445h-.854l-2.37,3.771v.008l-2.833-3.779-6.431,8.789-.44-.6,5.647-8.188h-.878l-5.221,7.57-.474-.647,4.689-6.923H373.2l-4.269,6.3-.526-.719,3.82-5.584h-.876l-3.4,4.966-.381-.521,2.794-4.445h-.854l-2.37,3.771v.008l-2.833-3.779L357.88-302.6l-.44-.6,5.647-8.188h-.878l-5.221,7.57-.474-.647,4.689-6.923h-.873l-4.269,6.3-.526-.719,3.82-5.584h-.876l-3.4,4.966-.381-.521,2.794-4.445h-.854l-2.37,3.771v.008l-2.833-3.779-6.431,8.789-.44-.6,5.647-8.188h-.878l-5.221,7.57-.474-.647,4.689-6.923h-.873l-4.269,6.3-.526-.719,3.82-5.584h-.876l-3.4,4.966-.381-.521,2.794-4.445h-.854l-2.37,3.771v.008l-2.833-3.779-6.431,8.789-.44-.6,5.647-8.188h-.878l-5.221,7.57-.474-.647,4.689-6.923h-.873l-4.269,6.3-.526-.719,3.82-5.584h-.876l-3.4,4.966-.381-.521,2.794-4.445h-.854l-2.37,3.771v.008l-2.833-3.779L319.26-302.6l-.44-.6,5.647-8.188h-.878l-5.221,7.57-.474-.647,4.689-6.923h-.873l-4.269,6.3-.526-.719,3.82-5.584h-.876l-3.4,4.966-.381-.521,2.794-4.445h-.854l-2.37,3.771v.008l-2.833-3.779-6.431,8.789-.44-.6,5.647-8.188h-.878l-5.221,7.57-.474-.647,4.689-6.923h-.873l-4.269,6.3-.526-.719,3.82-5.584h-.876l-3.4,4.966-.381-.521L306-311.389h-.854l-2.37,3.771v.008l-2.833-3.779-6.431,8.789-.44-.6,5.647-8.188h-.878l-5.221,7.57-.474-.647,4.689-6.923h-.873l-4.269,6.3-.526-.719,3.82-5.584h-.876l-3.4,4.966-.381-.521,2.794-4.445h-.854l-2.37,3.771v.008l-2.833-3.779-6.431,8.789-.44-.6,5.647-8.188h-.878l-5.221,7.57-.474-.647,4.689-6.923h-.873l-4.269,6.3-.526-.719,3.82-5.584h-.876l-3.4,4.966-.381-.521,2.793-4.445H279.4l-2.37,3.771v.008l-2.833-3.779-6.431,8.789-.44-.6,5.647-8.188h-.878l-5.221,7.57-.474-.647,4.689-6.923h-.873l-4.269,6.3-.526-.719,3.82-5.584h-.876l-3.4,4.966-.381-.521,2.793-4.445h-.854l-2.37,3.771v.008l-2.833-3.779-6.431,8.789-.44-.6,5.647-8.188h-.878L254-303.819l-.474-.647,4.689-6.923h-.873l-4.269,6.3-.526-.719,3.82-5.584h-.876l-3.4,4.966-.381-.521,2.794-4.445h-.854l-2.37,3.771v.008l-2.833-3.779-6.431,8.789-.44-.6,5.647-8.188h-.878l-5.221,7.57-.474-.647,4.689-6.923h-.873l-4.269,6.3-.526-.719,3.82-5.584h-.876l-3.4,4.966-.381-.521,2.794-4.445h-.854l-2.37,3.771v.008l-2.833-3.779-6.431,8.789-.44-.6,5.647-8.188h-.878l-5.221,7.57-.474-.647,4.689-6.923H231.6l-4.269,6.3-.526-.719,3.82-5.584h-.876l-3.4,4.966-.381-.521,2.794-4.445h-.854l-2.37,3.771v.008l-2.833-3.779-6.431,8.789-.44-.6,5.647-8.188H220.6l-5.221,7.57-.474-.647,4.689-6.923h-.873l-4.269,6.3-.526-.719,3.82-5.584h-.876l-3.4,4.966-.381-.521,2.794-4.445h-.854l-2.37,3.771v.008l-2.833-3.779L203.4-302.6l-.44-.6,5.647-8.188h-.878l-5.221,7.57-.474-.647,4.689-6.923h-.873l-4.269,6.3-.526-.719,3.82-5.584H204l-3.4,4.966-.381-.521,2.793-4.445h-.854l-2.37,3.771v.008l-2.833-3.779-6.431,8.789-.44-.6,5.647-8.188h-.878l-5.221,7.57-.474-.647,4.689-6.923h-.873l-4.269,6.3-.526-.719,3.82-5.584h-.876l-3.4,4.966-.381-.521,2.793-4.445h-.854l-2.37,3.771v.008l-2.833-3.779-6.431,8.789-.44-.6,5.647-8.188h-.878l-5.221,7.57-.474-.647,4.689-6.923H180.1l-4.269,6.3-.526-.719,3.82-5.584h-.876l-3.4,4.966-.381-.521,2.794-4.445h-.854l-2.37,3.771v.008l-2.833-3.779-6.431,8.789-.44-.6,5.647-8.188h-.878l-5.221,7.57-.474-.647,4.689-6.923h-.873l-4.269,6.3-.526-.719,3.82-5.584h-.876l-3.4,4.966-.381-.521,2.794-4.445h-.854l-2.37,3.771v.008l-2.833-3.779L151.9-302.6l-.44-.6,5.647-8.188h-.878l-5.221,7.57-.474-.647,4.689-6.923h-.873l-4.269,6.3-.526-.719,3.82-5.584H152.5l-3.4,4.966-.381-.521,2.794-4.445h-.854l-2.37,3.771v.008l-2.833-3.779-6.431,8.789-.44-.6,5.647-8.188h-.878l-5.221,7.57-.474-.647,4.689-6.923h-.873l-4.269,6.3-.526-.719,3.82-5.584h-.876l-3.4,4.966-.381-.521,2.794-4.445h-.854l-2.37,3.771v.008l-2.833-3.779-6.431,8.789-.44-.6,5.647-8.188h-.878l-5.221,7.57-.474-.647,4.689-6.923h-.873l-4.269,6.3-.526-.719,3.82-5.584h-.876l-3.4,4.966-.381-.521,2.794-4.445h-.854l-2.37,3.771v.008l-2.833-3.779-6.431,8.789-.44-.6,5.647-8.188h-.878l-5.221,7.57-.474-.647,4.689-6.923h-.873l-4.269,6.3-.526-.719,3.82-5.584h-.876l-3.4,4.966-.381-.521,2.794-4.445h-.854l-2.37,3.771v.008l-2.833-3.779-6.431,8.789-.44-.6,5.647-8.188h-.878l-5.221,7.57-.474-.647,4.689-6.923h-.873l-4.269,6.3-.526-.719,3.82-5.584h-.876l-3.4,4.966-.381-.521,2.794-4.445h-.854l-2.37,3.771v.008l-2.833-3.779L87.537-302.6l-.44-.6,5.647-8.188h-.878l-5.221,7.57-.474-.647,4.689-6.923h-.873l-4.269,6.3-.526-.719,3.82-5.584h-.876l-3.4,4.966-.381-.521,2.794-4.445H86.3l-2.37,3.771v.008l-2.833-3.779L74.664-302.6l-.44-.6,5.647-8.188h-.878l-5.221,7.57-.474-.647,4.689-6.923h-.873l-4.269,6.3-.526-.719,3.82-5.584h-.876l-3.4,4.966-.381-.521,2.794-4.445h-.854l-2.37,3.771v.008l-2.833-3.779L61.79-302.6l-.44-.6L67-311.389h-.878l-5.221,7.57-.474-.647,4.689-6.923H64.24l-4.269,6.3-.526-.719,3.82-5.584h-.876l-3.4,4.966-.381-.521,2.794-4.445h-.854l-2.37,3.771v.008l-2.833-3.779L48.917-302.6l-.44-.6,5.647-8.188h-.878l-5.221,7.57-.474-.647,4.689-6.923h-.873l-4.269,6.3-.526-.719,3.82-5.584h-.876l-3.4,4.966-.381-.521,2.794-4.445h-.854l-2.37,3.771v.008l-2.833-3.779L36.043-302.6l-.44-.6,5.647-8.188h-.878l-5.221,7.57-.474-.647,4.689-6.923h-.873l-4.269,6.3L33.7-305.8l3.82-5.584h-.876l-3.4,4.966-.381-.521,2.794-4.445H34.8l-2.37,3.771v.008L29.6-311.389,23.17-302.6l-.44-.6,5.647-8.188H27.5l-5.221,7.57-.474-.647,4.689-6.923H25.62l-4.269,6.3-.526-.719,3.82-5.584h-.876l-3.4,4.966-.381-.521,2.794-4.445H21.93l-2.37,3.771v.008l-2.833-3.779L10.3-302.6l-.44-.6,5.647-8.188h-.878L9.4-303.819l-.474-.647,4.689-6.923h-.873l-4.269,6.3-.526-.719,3.82-5.584H10.9l-3.4,4.966-.381-.521,2.794-4.445H9.057l-2.37,3.771v.008l-2.833-3.779L-2.577-302.6l-.44-.6,5.647-8.188H1.752l-5.221,7.57-.474-.647,4.689-6.923H-.127l-4.269,6.3-.526-.719,3.82-5.584h-.876l-3.4,4.966-.381-.521,2.794-4.445h-.854l-2.37,3.771v.008l-2.833-3.779L-15.45-302.6l-.44-.6,5.647-8.188h-.878l-5.221,7.57-.474-.647,4.689-6.923H-13l-4.269,6.3-.526-.719,3.82-5.584h-.876l-3.4,4.966-.381-.521,2.794-4.445h-.854l-2.37,3.771v.008l-2.833-3.779-6.431,8.789-.44-.6,5.647-8.188H-24l-5.221,7.57-.474-.647L-25-311.389h-.873l-4.269,6.3-.526-.719,3.82-5.584h-.876l-3.4,4.966-.381-.521,2.794-4.445h-.854l-2.37,3.771v.008l-2.833-3.779L-41.2-302.6l-.44-.6,5.647-8.188h-.878l-5.221,7.57-.474-.647,4.689-6.923h-.873l-4.269,6.3-.526-.719,3.82-5.584H-40.6l-3.4,4.966-.381-.521,2.794-4.445h-.854l-2.37,3.771v.008l-2.833-3.779v1.224l6.449,8.781.655-.895,2.155-2.884v.008l2.37,3.771h.854l-2.788-4.436.381-.521,3.391,4.957h.876l-3.814-5.575.526-.719,4.263,6.295h.873l-4.683-6.914.474-.647,5.215,7.562h.878l-5.641-8.179.44-.6,6.425,8.781v-.032l.024.032.655-.895,2.155-2.884v.008l2.37,3.771h.854l-2.788-4.436.381-.521,3.391,4.957h.876l-3.814-5.575.526-.719,4.263,6.295h.873l-4.683-6.914.474-.647,5.215,7.562h.878l-5.641-8.179.44-.6,6.425,8.781v-.032l.024.032.655-.895,2.155-2.884v.008l2.37,3.771h.854L-12.2-305.82l.381-.521,3.391,4.957h.876l-3.814-5.575.526-.719,4.263,6.295H-5.7l-4.683-6.914.474-.647,5.215,7.562h.878l-5.641-8.179.44-.6,6.425,8.781v-.032l.024.032.655-.895,2.155-2.884v.008l2.37,3.771h.854L.674-305.82l.381-.521,3.391,4.957h.876l-3.814-5.575.526-.719L6.3-301.384h.873L2.488-308.3l.474-.647,5.215,7.562h.878l-5.641-8.179.44-.6,6.425,8.781v-.032l.024.032.655-.895,2.155-2.884v.008l2.37,3.771h.854l-2.788-4.436.381-.521,3.391,4.957H18.2l-3.814-5.575.526-.719,4.263,6.295h.873L15.362-308.3l.474-.647,5.215,7.562h.878l-5.641-8.179.44-.6,6.425,8.781v-.032l.024.032.655-.895,2.155-2.884v.008l2.37,3.771h.854l-2.788-4.436.381-.521,3.391,4.957h.876l-3.814-5.575.526-.719,4.263,6.295h.873L28.235-308.3l.474-.647,5.215,7.562H34.8l-5.641-8.179.44-.6,6.425,8.781v-.032l.024.032.655-.895,2.155-2.884v.008l2.37,3.771h.854l-2.788-4.436.381-.521,3.391,4.957h.876l-3.814-5.575.526-.719,4.263,6.295h.873L41.109-308.3l.474-.647,5.215,7.562h.878l-5.641-8.179.44-.6,6.425,8.781v-.032l.024.032.655-.895,2.155-2.884v.008l2.37,3.771h.854l-2.788-4.436.381-.521,3.391,4.957h.876L53-306.959l.526-.719,4.263,6.295h.873L53.982-308.3l.474-.647,5.215,7.562h.878l-5.641-8.179.44-.6,6.425,8.781v-.032l.024.032.655-.895,2.155-2.884v.008l2.37,3.771h.854l-2.788-4.436.381-.521,3.391,4.957h.876l-3.814-5.575.526-.719,4.263,6.295h.873L66.855-308.3l.474-.647,5.215,7.562h.878l-5.641-8.179.44-.6,6.425,8.781v-.032l.024.032.655-.895,2.155-2.884v.008l2.37,3.771H80.7l-2.788-4.436.381-.521,3.391,4.957h.876l-3.814-5.575.526-.719,4.263,6.295h.873L79.729-308.3l.474-.647,5.215,7.562H86.3l-5.641-8.179.44-.6,6.425,8.781v-.032l.024.032.655-.895,2.155-2.884v.008l2.37,3.771h.854l-2.788-4.436.381-.521,3.391,4.957h.876l-3.814-5.575.526-.719,4.263,6.295h.873L92.6-308.3l.474-.647,5.215,7.562h.878l-5.641-8.179.44-.6,6.425,8.781v-.032l.024.032.655-.895,2.155-2.884v.008l2.37,3.771h.854l-2.788-4.436.381-.521,3.391,4.957h.876l-3.814-5.575.526-.719,4.263,6.295h.873l-4.683-6.914.474-.647,5.215,7.562h.878l-5.641-8.179.44-.6,6.425,8.781v-.032l.024.032.655-.895,2.155-2.884v.008l2.37,3.771h.854l-2.788-4.436.381-.521,3.391,4.957h.876l-3.814-5.575.526-.719,4.263,6.295h.873l-4.683-6.914.474-.647,5.215,7.562h.878l-5.641-8.179.44-.6,6.425,8.781v-.032l.024.032.655-.895,2.155-2.884v.008l2.37,3.771h.854l-2.788-4.436.381-.521,3.391,4.957h.876l-3.814-5.575.526-.719,4.263,6.295h.873l-4.683-6.914.474-.647,5.215,7.562h.878l-5.641-8.179.44-.6,6.425,8.781v-.032l.024.032.655-.895,2.155-2.884v.008l2.37,3.771h.854l-2.788-4.436.381-.521,3.391,4.957h.876l-3.814-5.575.526-.719,4.263,6.295h.873L144.1-308.3l.474-.647,5.215,7.562h.878l-5.641-8.179.44-.6,6.425,8.781v-.032l.024.032.655-.895,2.155-2.884v.008l2.37,3.771h.854l-2.788-4.436.381-.521,3.391,4.957h.876l-3.814-5.575.526-.719,4.263,6.295h.873L156.97-308.3l.474-.647,5.215,7.562h.878l-5.641-8.179.44-.6,6.425,8.781v-.032l.024.032.655-.895,2.155-2.884v.008l2.37,3.771h.854l-2.788-4.436.381-.521,3.391,4.957h.876l-3.814-5.575.526-.719,4.263,6.295h.873l-4.683-6.914.474-.647,5.215,7.562h.878l-5.641-8.179.44-.6,6.425,8.781v-.032l.024.032.655-.895,2.155-2.884v.008l2.37,3.771h.854L180.9-305.82l.381-.521,3.391,4.957h.876l-3.814-5.575.526-.719,4.263,6.295h.873l-4.683-6.914.474-.647,5.215,7.562h.878l-5.641-8.179.44-.6,6.425,8.781v-.032l.024.032.655-.895,2.155-2.884v.008l2.37,3.771h.854l-2.788-4.436.381-.521,3.391,4.957h.876l-3.814-5.575.526-.719,4.263,6.295h.873L195.59-308.3l.474-.647,5.215,7.562h.878l-5.641-8.179.44-.6,6.425,8.781v-.032l.024.032.655-.895,2.155-2.884v.008l2.37,3.771h.854l-2.788-4.436.381-.521,3.391,4.957h.876l-3.814-5.575.526-.719,4.263,6.295h.873l-4.683-6.914.474-.647,5.215,7.562h.878l-5.641-8.179.44-.6,6.425,8.781v-.032l.024.032.655-.895,2.155-2.884v.008l2.37,3.771h.854l-2.788-4.436.381-.521,3.391,4.957h.876l-3.814-5.575.526-.719,4.263,6.295h.873l-4.683-6.914.474-.647,5.215,7.562h.878l-5.641-8.179.44-.6,6.425,8.781v-.032l.024.032.655-.895,2.155-2.884v.008l2.37,3.771h.854L232.4-305.82l.381-.521,3.391,4.957h.876l-3.814-5.575.526-.719,4.263,6.295h.873l-4.683-6.914.474-.647,5.215,7.562h.878l-5.641-8.179.44-.6L242-301.384v-.032l.024.032.655-.895,2.155-2.884v.008l2.37,3.771h.854l-2.788-4.436.381-.521,3.391,4.957h.876l-3.814-5.575.526-.719,4.263,6.295h.873l-4.683-6.914.474-.647,5.215,7.562h.878l-5.641-8.179.44-.6,6.425,8.781v-.032l.024.032.655-.895,2.155-2.884v.008l2.37,3.771h.854l-2.788-4.436.381-.521,3.391,4.957h.876l-3.814-5.575.526-.719,4.263,6.295h.873l-4.683-6.914.474-.647,5.215,7.562h.878l-5.641-8.179.44-.6,6.425,8.781v-.032l.024.032.655-.895,2.155-2.884v.008l2.37,3.771h.854l-2.788-4.436.381-.521,3.391,4.957h.876l-3.814-5.575.526-.719,4.263,6.295h.873l-4.683-6.914.474-.647,5.215,7.562h.878l-5.641-8.179.44-.6,6.425,8.781v-.032l.024.032.655-.895,2.155-2.884v.008l2.37,3.771h.854l-2.788-4.436.381-.521,3.391,4.957h.876l-3.814-5.575.526-.719,4.263,6.295h.873L285.7-308.3l.474-.647,5.215,7.562h.878l-5.641-8.179.44-.6,6.425,8.781v-.032l.024.032.655-.895,2.155-2.884v.008l2.37,3.771h.854l-2.788-4.436.381-.521,3.391,4.957h.876l-3.814-5.575.526-.719,4.263,6.295h.873l-4.683-6.914.474-.647,5.215,7.562h.878l-5.641-8.179.44-.6,6.425,8.781v-.032l.024.032.655-.895,2.155-2.884v.008l2.37,3.771h.854l-2.788-4.436.381-.521,3.391,4.957h.876l-3.814-5.575.526-.719,4.263,6.295h.873l-4.683-6.914.474-.647,5.215,7.562h.878l-5.641-8.179.44-.6,6.425,8.781v-.032l.024.032.655-.895,2.155-2.884v.008l2.37,3.771h.854l-2.788-4.436.381-.521,3.391,4.957h.876l-3.814-5.575.526-.719,4.263,6.295h.873l-4.683-6.914.474-.647,5.215,7.562h.878l-5.641-8.179.44-.6,6.425,8.781v-.032l.024.032.655-.895,2.155-2.884v.008l2.37,3.771h.854l-2.788-4.436.381-.521,3.391,4.957h.876l-3.814-5.575.526-.719,4.263,6.295h.873L337.2-308.3l.474-.647,5.215,7.562h.878l-5.641-8.179.44-.6,6.425,8.781v-.032l.024.032.655-.895,2.155-2.884v.008l2.37,3.771h.854l-2.788-4.436.381-.521,3.391,4.957h.876l-3.814-5.575.526-.719,4.263,6.295h.873l-4.683-6.914.474-.647,5.215,7.562h.878L351-309.563l.44-.6,6.425,8.781v-.032l.024.032.654-.895,2.155-2.884v.008l2.37,3.771h.854l-2.788-4.436.381-.521,3.391,4.957h.876l-3.814-5.575.526-.719,4.263,6.295h.873l-4.683-6.914.474-.647,5.215,7.562h.878l-5.641-8.179.44-.6,6.425,8.781v-.032l.024.032.655-.895,2.155-2.884v.008l2.37,3.771h.854L374-305.82l.381-.521,3.391,4.957h.876l-3.814-5.575.526-.719,4.263,6.295h.873l-4.683-6.914.474-.647,5.215,7.562h.878l-5.641-8.179.44-.6,6.425,8.781v-.032l.024.032.655-.895,2.155-2.884v.008l2.37,3.771h.854l-2.788-4.436.381-.521,3.391,4.957h.876l-3.814-5.575.526-.719,4.263,6.295h.873l-4.683-6.914.474-.647,5.215,7.562h.878l-5.641-8.179.44-.6,6.425,8.781v-.032l.024.032.655-.895,2.155-2.884v.008l2.37,3.771h.854l-2.788-4.436.381-.521,3.391,4.957h.876l-3.814-5.575.526-.719,4.263,6.295h.873l-4.683-6.914.474-.647,5.215,7.562h.878l-5.641-8.179.44-.6,6.425,8.781v-.032l.024.032.655-.895,2.155-2.884v.008l2.37,3.771h.854l-2.788-4.436.381-.521,3.391,4.957h.876l-3.814-5.575.526-.719,4.263,6.295h.873l-4.683-6.914.474-.647,5.215,7.562h.878l-5.641-8.179.44-.6,6.425,8.781v-.032l.024.032.655-.895,2.155-2.884v.008l2.37,3.771h.854L425.5-305.82l.381-.521,3.391,4.957h.876l-3.814-5.575.526-.719,4.263,6.295H432l-4.683-6.914.474-.647L433-301.384h.878l-5.641-8.179.44-.6,6.425,8.781v-.032l.024.032.655-.895,2.155-2.884v.008l2.37,3.771h.854l-2.788-4.436.381-.521,3.391,4.957h.876l-3.814-5.575.526-.719L444-301.384h.873l-4.683-6.914.474-.647,5.215,7.562h.878l-5.641-8.179.44-.6,6.425,8.781v-.032l.024.032.655-.895,2.155-2.884v.008l2.37,3.771h.854l-2.788-4.436.381-.521,3.391,4.957h.876l-3.814-5.575.526-.719,4.263,6.295h.873L453.06-308.3l.474-.647,5.215,7.562h.878l-5.641-8.179.44-.6,6.425,8.781v-.032l.024.032.655-.895,2.155-2.884v.008l2.37,3.771h.854l-2.788-4.436.381-.521,3.391,4.957h.876l-3.814-5.575.526-.719,4.263,6.295h.873l-4.683-6.914.474-.647,5.215,7.562h.878l-5.641-8.179.44-.6,6.425,8.781v-.032l.024.032.655-.895,2.155-2.884v.008l2.37,3.771h.854l-2.788-4.436.381-.521,3.391,4.957h.876l-3.814-5.575.526-.719,4.263,6.295h.873l-4.683-6.914.474-.647,5.215,7.562h.878l-5.641-8.179.44-.6,6.425,8.781v-.032l.024.032.655-.895,2.155-2.884v.008l2.37,3.771h.854l-2.788-4.436.381-.521,3.391,4.957h.876l-3.814-5.575.526-.719,4.263,6.295h.873L491.68-308.3l.474-.647,5.215,7.562h.878l-5.641-8.179.44-.6,6.425,8.781v-.032l.024.032.655-.895,2.155-2.884v.008l2.37,3.771h.854l-2.788-4.436.381-.521,3.391,4.957h.876l-3.814-5.575.526-.719,4.263,6.295h.873l-4.683-6.914.474-.647,5.215,7.562h.878l-5.641-8.179.44-.6,6.425,8.781v-.032l.024.032.655-.895,2.155-2.884v.008l2.37,3.771h.854l-2.788-4.436.381-.521,3.391,4.957h.876l-3.814-5.575.526-.719,4.263,6.295h.873l-4.683-6.914.474-.647,5.215,7.562h.878l-5.641-8.179.44-.6,6.425,8.781v-.032l.024.032.654-.895,2.155-2.884v.008l2.37,3.771h.854l-2.788-4.436.381-.521,3.391,4.957h.876l-3.814-5.575.526-.719,4.263,6.295h.873L530.3-308.3l.474-.647,5.215,7.562h.878l-5.641-8.179.44-.6,6.425,8.781v-.032l.024.032.655-.895,2.155-2.884v.008l2.37,3.771h.854l-2.788-4.436.381-.521,3.391,4.957h.876l-3.814-5.575.526-.719,4.263,6.295h.873l-4.683-6.914.474-.647,5.215,7.562h.878l-5.641-8.179.44-.6,6.425,8.781v-.032l.024.032.655-.895,2.155-2.884v.008l2.37,3.771h.854l-2.788-4.436.381-.521,3.391,4.957h.876l-3.814-5.575.526-.719,4.263,6.295h.873l-4.683-6.914.474-.647,5.215,7.562h.878l-5.641-8.179.44-.6,6.425,8.781v-.032l.024.032.655-.895,2.155-2.884v.008l2.37,3.771h.854l-2.788-4.436.381-.521,3.391,4.957h.876l-3.814-5.575.526-.719,4.263,6.295h.873l-4.683-6.914.474-.647,5.215,7.562h.878l-5.641-8.179.44-.6,6.425,8.781v-.032l.024.032.655-.895,2.155-2.884v.008l2.37,3.771h.854l-2.788-4.436.381-.521,3.391,4.957h.876l-3.814-5.575.526-.719,4.263,6.295h.873l-4.683-6.914.474-.647,5.215,7.562h.878l-5.641-8.179.44-.6,6.425,8.781v-.032l.024.032.655-.895,2.155-2.884v.008l2.37,3.771h.854l-2.788-4.436.381-.521,3.391,4.957h.876l-3.814-5.575.526-.719,4.263,6.295h.873l-4.683-6.914.474-.647,5.215,7.562h.878l-5.641-8.179.44-.6,6.425,8.781v-.032l.024.032.654-.895,2.155-2.884v.008l2.37,3.771h.854l-2.788-4.436.381-.521,3.391,4.957h.876l-3.814-5.575.526-.719,4.263,6.295h.873l-4.683-6.914.474-.647,5.215,7.562h.878l-5.641-8.179.44-.6,6.425,8.781v-.032l.024.032.654-.895,2.155-2.884v.008l2.37,3.771h.854L618.6-305.82l.381-.521,3.391,4.957h.876l-3.814-5.575.526-.719,4.263,6.295h.873l-4.683-6.914.474-.647,5.215,7.562h.878l-5.641-8.179.44-.6,6.425,8.781v-.032l.024.032.654-.895,2.155-2.884v.008l2.37,3.771h.854l-2.788-4.436.381-.521,3.391,4.957h.876l-3.814-5.575.526-.719,4.263,6.295h.873l-4.683-6.914.474-.647,5.215,7.562h.878l-5.641-8.179.44-.6,6.425,8.781v-.032l.024.032.654-.895,2.155-2.884v.008l2.37,3.771h.854l-2.788-4.436.381-.521,3.391,4.957H649l-3.814-5.575.526-.719,4.263,6.295h.873l-4.683-6.914.474-.647,5.215,7.562h.878l-5.641-8.179.44-.6,6.425,8.781v-.032l.024.032.654-.895,2.155-2.884v.008l2.37,3.771h.854l-2.788-4.436.381-.521,3.391,4.957h.876l-3.814-5.575.526-.719,4.263,6.295h.873l-4.683-6.914.474-.647,5.215,7.562h.878l-5.641-8.179.44-.6,6.425,8.781v-.032l.024.032.654-.895,2.155-2.884v.008l2.37,3.771h.854l-2.788-4.436.381-.521,3.391,4.957h.876l-3.814-5.575.526-.719,4.263,6.295h.873l-4.683-6.914.474-.647,5.215,7.562h.878l-5.641-8.179.44-.6,6.425,8.781v-.032l.024.032.654-.895,2.155-2.884v.008l2.37,3.771h.854l-2.788-4.436.381-.521,3.391,4.957h.876l-3.814-5.575.526-.719,4.263,6.295h.873l-4.683-6.914.474-.647,5.215,7.562h.878l-5.641-8.179.44-.6,6.425,8.781v-.032l.024.032.655-.895,2.155-2.884v.008l2.37,3.771h.854l-2.788-4.436.381-.521,3.391,4.957h.876l-3.814-5.575.526-.719,4.263,6.295h.873l-4.683-6.914.474-.647,5.215,7.562h.878l-5.641-8.179.44-.6,6.425,8.781v-.032l.024.032.654-.895,2.155-2.884v.008l2.37,3.771h.854l-2.788-4.436.381-.521,3.391,4.957h.876l-3.814-5.575.526-.719,4.263,6.295h.873l-4.683-6.914.474-.647,5.215,7.562h.878l-5.641-8.179.44-.6,6.425,8.781v-.032l.024.032.654-.895,2.155-2.884v.008l2.37,3.771h.854l-2.788-4.436.381-.521,3.391,4.957h.876l-3.814-5.575.526-.719,4.263,6.295h.873L723.4-308.3l.474-.647,5.215,7.562h.878l-5.641-8.179.44-.6,6.425,8.781v-.032l.024.032.654-.895,2.155-2.884v.008l2.37,3.771h.854l-2.788-4.436.381-.521,3.391,4.957h.876l-3.814-5.575.526-.719,4.263,6.295h.873l-4.683-6.914.474-.647,5.215,7.562h.878l-5.641-8.179.44-.6,6.425,8.781v-.032l.024.032.655-.895,2.155-2.884v.008l2.37,3.771h.854l-2.788-4.436.381-.521,3.391,4.957h.876l-3.814-5.575.526-.719,4.263,6.295h.873l-4.683-6.914.474-.647,5.215,7.562h.878l-5.641-8.179.44-.6,6.425,8.781v-.032l.024.032.654-.895,2.155-2.884v.008l2.37,3.771H763l-2.788-4.436.381-.521,3.391,4.957h.876l-3.814-5.575.526-.719,4.263,6.295h.873l-4.683-6.914.474-.647,5.215,7.562h.878l-5.641-8.179.44-.6,6.425,8.781v-.032l.024.032.655-.895,2.155-2.884v.008l2.37,3.771h.854l-2.788-4.436.381-.521,3.391,4.957h.876l-3.814-5.575.526-.719,4.263,6.295h.873L774.9-308.3l.474-.647,5.215,7.562h.878l-5.641-8.179.44-.6Z" transform="translate(952.477 311.389)" fill="#d2d2d2"/><path d="M782.687-301.384v-1.224l-5.977-8.169-.448-.612-6.431,8.789-.44-.6,5.647-8.188h-.878l-5.221,7.57-.474-.647,4.689-6.923h-.873l-4.269,6.3-.526-.719,3.82-5.584h-.876l-3.4,4.966-.381-.521,2.794-4.445h-.854l-2.37,3.771v.008l-2.834-3.779-6.431,8.789-.44-.6,5.647-8.188h-.878l-5.221,7.57-.474-.647,4.689-6.923h-.873l-4.269,6.3-.526-.719,3.82-5.584h-.876l-3.4,4.966-.381-.521,2.794-4.445h-.854l-2.37,3.771v.008l-2.833-3.779-6.431,8.789-.44-.6,5.647-8.188h-.878l-5.221,7.57-.474-.647,4.689-6.923h-.873l-4.269,6.3-.526-.719,3.82-5.584h-.876l-3.4,4.966-.381-.521,2.793-4.445h-.854l-2.37,3.771v.008l-2.834-3.779-6.431,8.789-.44-.6,5.647-8.188h-.878l-5.221,7.57-.474-.647,4.689-6.923h-.873l-4.269,6.3-.526-.719,3.82-5.584h-.876l-3.4,4.966-.381-.521,2.794-4.445h-.854l-2.37,3.771v.008l-2.833-3.779-6.431,8.789-.44-.6,5.647-8.188h-.878l-5.221,7.57-.474-.647,4.689-6.923h-.873l-4.269,6.3-.526-.719,3.82-5.584h-.876l-3.4,4.966-.381-.521,2.794-4.445H717.1l-2.37,3.771v.008l-2.833-3.779-6.431,8.789-.44-.6,5.647-8.188h-.878l-5.221,7.57-.474-.647,4.689-6.923h-.873l-4.269,6.3-.526-.719,3.82-5.584h-.876l-3.4,4.966-.381-.521,2.794-4.445h-.854l-2.37,3.771v.008l-2.833-3.779L692.59-302.6l-.44-.6,5.647-8.188h-.878l-5.221,7.57-.474-.647,4.689-6.923h-.873l-4.269,6.3-.526-.719,3.82-5.584h-.876l-3.4,4.966-.381-.521,2.793-4.445h-.854l-2.37,3.771v.008l-2.833-3.779-6.431,8.789-.44-.6,5.647-8.188h-.878l-5.221,7.57-.474-.647,4.689-6.923h-.873l-4.269,6.3-.526-.719,3.82-5.584h-.876l-3.4,4.966-.381-.521,2.794-4.445h-.854l-2.37,3.771v.008l-2.833-3.779-6.431,8.789-.44-.6,5.647-8.188h-.878l-5.221,7.57-.474-.647,4.689-6.923h-.873l-4.269,6.3-.526-.719,3.82-5.584h-.876l-3.4,4.966-.381-.521,2.793-4.445H665.6l-2.37,3.771v.008l-2.833-3.779L653.97-302.6l-.44-.6,5.647-8.188H658.3l-5.221,7.57-.474-.647,4.689-6.923h-.873l-4.269,6.3-.526-.719,3.82-5.584h-.876l-3.4,4.966-.381-.521,2.794-4.445h-.854l-2.37,3.771v.008l-2.833-3.779L641.1-302.6l-.44-.6,5.647-8.188h-.878l-5.221,7.57-.474-.647,4.689-6.923h-.873l-4.269,6.3-.526-.719,3.82-5.584h-.876l-3.4,4.966-.381-.521,2.794-4.445h-.854l-2.37,3.771v.008l-2.833-3.779-6.431,8.789-.44-.6,5.647-8.188h-.878l-5.221,7.57-.474-.647,4.689-6.923h-.873l-4.269,6.3-.526-.719,3.82-5.584h-.876l-3.4,4.966-.381-.521,2.794-4.445h-.854l-2.37,3.771v.008l-2.833-3.779-6.431,8.789-.44-.6,5.647-8.188h-.878l-5.221,7.57-.474-.647,4.689-6.923H617.8l-4.269,6.3L613-305.8l3.82-5.584h-.876l-3.4,4.966-.381-.521,2.793-4.445h-.854l-2.37,3.771v.008l-2.833-3.779-6.431,8.789-.44-.6,5.647-8.188H606.8l-5.221,7.57-.474-.647,4.689-6.923h-.873l-4.269,6.3-.526-.719,3.82-5.584h-.876l-3.4,4.966-.381-.521,2.794-4.445h-.854l-2.37,3.771v.008l-2.833-3.779L589.6-302.6l-.44-.6,5.647-8.188h-.878l-5.221,7.57-.474-.647,4.689-6.923h-.873l-4.269,6.3-.526-.719,3.82-5.584H590.2l-3.4,4.966-.381-.521,2.794-4.445h-.854l-2.37,3.771v.008l-2.833-3.779-6.431,8.789-.44-.6,5.647-8.188h-.878l-5.221,7.57-.474-.647,4.689-6.923h-.873l-4.269,6.3-.526-.719,3.82-5.584h-.876l-3.4,4.966-.381-.521,2.794-4.445h-.854l-2.37,3.771v.008l-2.833-3.779-6.431,8.789-.44-.6,5.647-8.188h-.878l-5.221,7.57-.474-.647,4.689-6.923h-.873l-4.269,6.3-.526-.719,3.82-5.584h-.876l-3.4,4.966-.381-.521,2.794-4.445h-.854l-2.37,3.771v.008l-2.833-3.779-6.431,8.789-.44-.6,5.647-8.188h-.878l-5.221,7.57-.474-.647,4.689-6.923h-.873l-4.269,6.3-.526-.719,3.82-5.584h-.876l-3.4,4.966-.381-.521,2.793-4.445h-.854l-2.37,3.771v.008l-2.833-3.779-6.431,8.789-.44-.6,5.647-8.188h-.878l-5.221,7.57-.474-.647,4.689-6.923h-.873l-4.269,6.3-.526-.719,3.82-5.584h-.876l-3.4,4.966-.381-.521,2.793-4.445h-.854l-2.37,3.771v.008l-2.833-3.779-6.431,8.789-.44-.6,5.647-8.188h-.878l-5.221,7.57-.474-.647,4.689-6.923h-.873l-4.269,6.3-.526-.719,3.82-5.584h-.876l-3.4,4.966-.381-.521,2.793-4.445H524l-2.37,3.771v.008l-2.833-3.779-6.431,8.789-.44-.6,5.647-8.188h-.878l-5.221,7.57-.474-.647,4.689-6.923h-.873l-4.269,6.3-.526-.719,3.82-5.584h-.876l-3.4,4.966-.381-.521,2.794-4.445h-.854l-2.37,3.771v.008l-2.833-3.779-6.431,8.789-.44-.6,5.647-8.188h-.878l-5.221,7.57-.474-.647,4.689-6.923h-.873l-4.269,6.3-.526-.719,3.82-5.584h-.876l-3.4,4.966-.381-.521,2.794-4.445h-.854l-2.37,3.771v.008l-2.833-3.779-6.431,8.789-.44-.6,5.647-8.188h-.878l-5.221,7.57-.474-.647,4.689-6.923h-.873l-4.269,6.3-.526-.719,3.82-5.584h-.876l-3.4,4.966-.381-.521,2.794-4.445h-.854l-2.37,3.771v.008l-2.833-3.779-6.431,8.789-.44-.6,5.647-8.188h-.878l-5.221,7.57-.474-.647,4.689-6.923h-.873l-4.269,6.3-.526-.719,3.82-5.584h-.876l-3.4,4.966-.381-.521,2.793-4.445H472.5l-2.37,3.771v.008l-2.833-3.779-6.431,8.789-.44-.6,5.647-8.188H465.2l-5.221,7.57-.474-.647,4.689-6.923h-.873l-4.269,6.3-.526-.719,3.82-5.584h-.876l-3.4,4.966-.381-.521,2.794-4.445h-.854l-2.37,3.771v.008l-2.833-3.779-6.431,8.789-.44-.6,5.647-8.188h-.878l-5.221,7.57-.474-.647,4.689-6.923h-.873l-4.269,6.3-.526-.719,3.82-5.584h-.876l-3.4,4.966-.381-.521,2.794-4.445h-.854l-2.37,3.771v.008l-2.833-3.779-6.431,8.789-.44-.6,5.647-8.188h-.878l-5.221,7.57-.474-.647,4.689-6.923h-.873l-4.269,6.3-.526-.719,3.82-5.584h-.876l-3.4,4.966-.381-.521,2.794-4.445h-.854l-2.37,3.771v.008l-2.833-3.779-6.431,8.789-.44-.6,5.647-8.188h-.878l-5.221,7.57-.474-.647,4.689-6.923H424.7l-4.269,6.3-.526-.719,3.82-5.584h-.876l-3.4,4.966-.381-.521,2.794-4.445h-.854l-2.37,3.771v.008l-2.833-3.779-6.431,8.789-.44-.6,5.647-8.188H413.7l-5.221,7.57-.474-.647,4.689-6.923h-.873l-4.269,6.3-.526-.719,3.82-5.584h-.876l-3.4,4.966-.381-.521,2.794-4.445h-.854l-2.37,3.771v.008l-2.833-3.779L396.5-302.6l-.44-.6,5.647-8.188h-.878l-5.221,7.57-.474-.647,4.689-6.923h-.873l-4.269,6.3-.526-.719,3.82-5.584H397.1l-3.4,4.966-.381-.521,2.793-4.445h-.854l-2.37,3.771v.008l-2.833-3.779-6.431,8.789-.44-.6,5.647-8.188h-.878l-5.221,7.57-.474-.647,4.689-6.923h-.873l-4.269,6.3-.526-.719,3.82-5.584h-.876l-3.4,4.966-.381-.521,2.794-4.445h-.854l-2.37,3.771v.008l-2.833-3.779-6.431,8.789-.44-.6,5.647-8.188h-.878l-5.221,7.57-.474-.647,4.689-6.923H373.2l-4.269,6.3-.526-.719,3.82-5.584h-.876l-3.4,4.966-.381-.521,2.794-4.445h-.854l-2.37,3.771v.008l-2.833-3.779L357.88-302.6l-.44-.6,5.647-8.188h-.878l-5.221,7.57-.474-.647,4.689-6.923h-.873l-4.269,6.3-.526-.719,3.82-5.584h-.876l-3.4,4.966-.381-.521,2.794-4.445h-.854l-2.37,3.771v.008l-2.833-3.779-6.431,8.789-.44-.6,5.647-8.188h-.878l-5.221,7.57-.474-.647,4.689-6.923h-.873l-4.269,6.3-.526-.719,3.82-5.584h-.876l-3.4,4.966-.381-.521,2.794-4.445h-.854l-2.37,3.771v.008l-2.833-3.779-6.431,8.789-.44-.6,5.647-8.188h-.878l-5.221,7.57-.474-.647,4.689-6.923h-.873l-4.269,6.3-.526-.719,3.82-5.584h-.876l-3.4,4.966-.381-.521,2.794-4.445h-.854l-2.37,3.771v.008l-2.833-3.779L319.26-302.6l-.44-.6,5.647-8.188h-.878l-5.221,7.57-.474-.647,4.689-6.923h-.873l-4.269,6.3-.526-.719,3.82-5.584h-.876l-3.4,4.966-.381-.521,2.794-4.445h-.854l-2.37,3.771v.008l-2.833-3.779-6.431,8.789-.44-.6,5.647-8.188h-.878l-5.221,7.57-.474-.647,4.689-6.923h-.873l-4.269,6.3-.526-.719,3.82-5.584h-.876l-3.4,4.966-.381-.521L306-311.389h-.854l-2.37,3.771v.008l-2.833-3.779-6.431,8.789-.44-.6,5.647-8.188h-.878l-5.221,7.57-.474-.647,4.689-6.923h-.873l-4.269,6.3-.526-.719,3.82-5.584h-.876l-3.4,4.966-.381-.521,2.794-4.445h-.854l-2.37,3.771v.008l-2.833-3.779-6.431,8.789-.44-.6,5.647-8.188h-.878l-5.221,7.57-.474-.647,4.689-6.923h-.873l-4.269,6.3-.526-.719,3.82-5.584h-.876l-3.4,4.966-.381-.521,2.793-4.445H279.4l-2.37,3.771v.008l-2.833-3.779-6.431,8.789-.44-.6,5.647-8.188h-.878l-5.221,7.57-.474-.647,4.689-6.923h-.873l-4.269,6.3-.526-.719,3.82-5.584h-.876l-3.4,4.966-.381-.521,2.793-4.445h-.854l-2.37,3.771v.008l-2.833-3.779-6.431,8.789-.44-.6,5.647-8.188h-.878L254-303.819l-.474-.647,4.689-6.923h-.873l-4.269,6.3-.526-.719,3.82-5.584h-.876l-3.4,4.966-.381-.521,2.794-4.445h-.854l-2.37,3.771v.008l-2.833-3.779-6.431,8.789-.44-.6,5.647-8.188h-.878l-5.221,7.57-.474-.647,4.689-6.923h-.873l-4.269,6.3-.526-.719,3.82-5.584h-.876l-3.4,4.966-.381-.521,2.794-4.445h-.854l-2.37,3.771v.008l-2.833-3.779-6.431,8.789-.44-.6,5.647-8.188h-.878l-5.221,7.57-.474-.647,4.689-6.923H231.6l-4.269,6.3-.526-.719,3.82-5.584h-.876l-3.4,4.966-.381-.521,2.794-4.445h-.854l-2.37,3.771v.008l-2.833-3.779-6.431,8.789-.44-.6,5.647-8.188H220.6l-5.221,7.57-.474-.647,4.689-6.923h-.873l-4.269,6.3-.526-.719,3.82-5.584h-.876l-3.4,4.966-.381-.521,2.794-4.445h-.854l-2.37,3.771v.008l-2.833-3.779L203.4-302.6l-.44-.6,5.647-8.188h-.878l-5.221,7.57-.474-.647,4.689-6.923h-.873l-4.269,6.3-.526-.719,3.82-5.584H204l-3.4,4.966-.381-.521,2.793-4.445h-.854l-2.37,3.771v.008l-2.833-3.779-6.431,8.789-.44-.6,5.647-8.188h-.878l-5.221,7.57-.474-.647,4.689-6.923h-.873l-4.269,6.3-.526-.719,3.82-5.584h-.876l-3.4,4.966-.381-.521,2.793-4.445h-.854l-2.37,3.771v.008l-2.833-3.779-6.431,8.789-.44-.6,5.647-8.188h-.878l-5.221,7.57-.474-.647,4.689-6.923H180.1l-4.269,6.3-.526-.719,3.82-5.584h-.876l-3.4,4.966-.381-.521,2.794-4.445h-.854l-2.37,3.771v.008l-2.833-3.779-6.431,8.789-.44-.6,5.647-8.188h-.878l-5.221,7.57-.474-.647,4.689-6.923h-.873l-4.269,6.3-.526-.719,3.82-5.584h-.876l-3.4,4.966-.381-.521,2.794-4.445h-.854l-2.37,3.771v.008l-2.833-3.779L151.9-302.6l-.44-.6,5.647-8.188h-.878l-5.221,7.57-.474-.647,4.689-6.923h-.873l-4.269,6.3-.526-.719,3.82-5.584H152.5l-3.4,4.966-.381-.521,2.794-4.445h-.854l-2.37,3.771v.008l-2.833-3.779-6.431,8.789-.44-.6,5.647-8.188h-.878l-5.221,7.57-.474-.647,4.689-6.923h-.873l-4.269,6.3-.526-.719,3.82-5.584h-.876l-3.4,4.966-.381-.521,2.794-4.445h-.854l-2.37,3.771v.008l-2.833-3.779-6.431,8.789-.44-.6,5.647-8.188h-.878l-5.221,7.57-.474-.647,4.689-6.923h-.873l-4.269,6.3-.526-.719,3.82-5.584h-.876l-3.4,4.966-.381-.521,2.794-4.445h-.854l-2.37,3.771v.008l-2.833-3.779-6.431,8.789-.44-.6,5.647-8.188h-.878l-5.221,7.57-.474-.647,4.689-6.923h-.873l-4.269,6.3-.526-.719,3.82-5.584h-.876l-3.4,4.966-.381-.521,2.794-4.445h-.854l-2.37,3.771v.008l-2.833-3.779-6.431,8.789-.44-.6,5.647-8.188h-.878l-5.221,7.57-.474-.647,4.689-6.923h-.873l-4.269,6.3-.526-.719,3.82-5.584h-.876l-3.4,4.966-.381-.521,2.794-4.445h-.854l-2.37,3.771v.008l-2.833-3.779L87.537-302.6l-.44-.6,5.647-8.188h-.878l-5.221,7.57-.474-.647,4.689-6.923h-.873l-4.269,6.3-.526-.719,3.82-5.584h-.876l-3.4,4.966-.381-.521,2.794-4.445H86.3l-2.37,3.771v.008l-2.833-3.779L74.664-302.6l-.44-.6,5.647-8.188h-.878l-5.221,7.57-.474-.647,4.689-6.923h-.873l-4.269,6.3-.526-.719,3.82-5.584h-.876l-3.4,4.966-.381-.521,2.794-4.445h-.854l-2.37,3.771v.008l-2.833-3.779L61.79-302.6l-.44-.6L67-311.389h-.878l-5.221,7.57-.474-.647,4.689-6.923H64.24l-4.269,6.3-.526-.719,3.82-5.584h-.876l-3.4,4.966-.381-.521,2.794-4.445h-.854l-2.37,3.771v.008l-2.833-3.779L48.917-302.6l-.44-.6,5.647-8.188h-.878l-5.221,7.57-.474-.647,4.689-6.923h-.873l-4.269,6.3-.526-.719,3.82-5.584h-.876l-3.4,4.966-.381-.521,2.794-4.445h-.854l-2.37,3.771v.008l-2.833-3.779L36.043-302.6l-.44-.6,5.647-8.188h-.878l-5.221,7.57-.474-.647,4.689-6.923h-.873l-4.269,6.3L33.7-305.8l3.82-5.584h-.876l-3.4,4.966-.381-.521,2.794-4.445H34.8l-2.37,3.771v.008L29.6-311.389,23.17-302.6l-.44-.6,5.647-8.188H27.5l-5.221,7.57-.474-.647,4.689-6.923H25.62l-4.269,6.3-.526-.719,3.82-5.584h-.876l-3.4,4.966-.381-.521,2.794-4.445H21.93l-2.37,3.771v.008l-2.833-3.779L10.3-302.6l-.44-.6,5.647-8.188h-.878L9.4-303.819l-.474-.647,4.689-6.923h-.873l-4.269,6.3-.526-.719,3.82-5.584H10.9l-3.4,4.966-.381-.521,2.794-4.445H9.057l-2.37,3.771v.008l-2.833-3.779L-2.577-302.6l-.44-.6,5.647-8.188H1.752l-5.221,7.57-.474-.647,4.689-6.923H-.127l-4.269,6.3-.526-.719,3.82-5.584h-.876l-3.4,4.966-.381-.521,2.794-4.445h-.854l-2.37,3.771v.008l-2.833-3.779L-15.45-302.6l-.44-.6,5.647-8.188h-.878l-5.221,7.57-.474-.647,4.689-6.923H-13l-4.269,6.3-.526-.719,3.82-5.584h-.876l-3.4,4.966-.381-.521,2.794-4.445h-.854l-2.37,3.771v.008l-2.833-3.779-6.431,8.789-.44-.6,5.647-8.188H-24l-5.221,7.57-.474-.647L-25-311.389h-.873l-4.269,6.3-.526-.719,3.82-5.584h-.876l-3.4,4.966-.381-.521,2.794-4.445h-.854l-2.37,3.771v.008l-2.833-3.779L-41.2-302.6l-.44-.6,5.647-8.188h-.878l-5.221,7.57-.474-.647,4.689-6.923h-.873l-4.269,6.3-.526-.719,3.82-5.584H-40.6l-3.4,4.966-.381-.521,2.794-4.445h-.854l-2.37,3.771v.008l-2.833-3.779v1.224l6.449,8.781.655-.895,2.155-2.884v.008l2.37,3.771h.854l-2.788-4.436.381-.521,3.391,4.957h.876l-3.814-5.575.526-.719,4.263,6.295h.873l-4.683-6.914.474-.647,5.215,7.562h.878l-5.641-8.179.44-.6,6.425,8.781v-.032l.024.032.655-.895,2.155-2.884v.008l2.37,3.771h.854l-2.788-4.436.381-.521,3.391,4.957h.876l-3.814-5.575.526-.719,4.263,6.295h.873l-4.683-6.914.474-.647,5.215,7.562h.878l-5.641-8.179.44-.6,6.425,8.781v-.032l.024.032.655-.895,2.155-2.884v.008l2.37,3.771h.854L-12.2-305.82l.381-.521,3.391,4.957h.876l-3.814-5.575.526-.719,4.263,6.295H-5.7l-4.683-6.914.474-.647,5.215,7.562h.878l-5.641-8.179.44-.6,6.425,8.781v-.032l.024.032.655-.895,2.155-2.884v.008l2.37,3.771h.854L.674-305.82l.381-.521,3.391,4.957h.876l-3.814-5.575.526-.719L6.3-301.384h.873L2.488-308.3l.474-.647,5.215,7.562h.878l-5.641-8.179.44-.6,6.425,8.781v-.032l.024.032.655-.895,2.155-2.884v.008l2.37,3.771h.854l-2.788-4.436.381-.521,3.391,4.957H18.2l-3.814-5.575.526-.719,4.263,6.295h.873L15.362-308.3l.474-.647,5.215,7.562h.878l-5.641-8.179.44-.6,6.425,8.781v-.032l.024.032.655-.895,2.155-2.884v.008l2.37,3.771h.854l-2.788-4.436.381-.521,3.391,4.957h.876l-3.814-5.575.526-.719,4.263,6.295h.873L28.235-308.3l.474-.647,5.215,7.562H34.8l-5.641-8.179.44-.6,6.425,8.781v-.032l.024.032.655-.895,2.155-2.884v.008l2.37,3.771h.854l-2.788-4.436.381-.521,3.391,4.957h.876l-3.814-5.575.526-.719,4.263,6.295h.873L41.109-308.3l.474-.647,5.215,7.562h.878l-5.641-8.179.44-.6,6.425,8.781v-.032l.024.032.655-.895,2.155-2.884v.008l2.37,3.771h.854l-2.788-4.436.381-.521,3.391,4.957h.876L53-306.959l.526-.719,4.263,6.295h.873L53.982-308.3l.474-.647,5.215,7.562h.878l-5.641-8.179.44-.6,6.425,8.781v-.032l.024.032.655-.895,2.155-2.884v.008l2.37,3.771h.854l-2.788-4.436.381-.521,3.391,4.957h.876l-3.814-5.575.526-.719,4.263,6.295h.873L66.855-308.3l.474-.647,5.215,7.562h.878l-5.641-8.179.44-.6,6.425,8.781v-.032l.024.032.655-.895,2.155-2.884v.008l2.37,3.771H80.7l-2.788-4.436.381-.521,3.391,4.957h.876l-3.814-5.575.526-.719,4.263,6.295h.873L79.729-308.3l.474-.647,5.215,7.562H86.3l-5.641-8.179.44-.6,6.425,8.781v-.032l.024.032.655-.895,2.155-2.884v.008l2.37,3.771h.854l-2.788-4.436.381-.521,3.391,4.957h.876l-3.814-5.575.526-.719,4.263,6.295h.873L92.6-308.3l.474-.647,5.215,7.562h.878l-5.641-8.179.44-.6,6.425,8.781v-.032l.024.032.655-.895,2.155-2.884v.008l2.37,3.771h.854l-2.788-4.436.381-.521,3.391,4.957h.876l-3.814-5.575.526-.719,4.263,6.295h.873l-4.683-6.914.474-.647,5.215,7.562h.878l-5.641-8.179.44-.6,6.425,8.781v-.032l.024.032.655-.895,2.155-2.884v.008l2.37,3.771h.854l-2.788-4.436.381-.521,3.391,4.957h.876l-3.814-5.575.526-.719,4.263,6.295h.873l-4.683-6.914.474-.647,5.215,7.562h.878l-5.641-8.179.44-.6,6.425,8.781v-.032l.024.032.655-.895,2.155-2.884v.008l2.37,3.771h.854l-2.788-4.436.381-.521,3.391,4.957h.876l-3.814-5.575.526-.719,4.263,6.295h.873l-4.683-6.914.474-.647,5.215,7.562h.878l-5.641-8.179.44-.6,6.425,8.781v-.032l.024.032.655-.895,2.155-2.884v.008l2.37,3.771h.854l-2.788-4.436.381-.521,3.391,4.957h.876l-3.814-5.575.526-.719,4.263,6.295h.873L144.1-308.3l.474-.647,5.215,7.562h.878l-5.641-8.179.44-.6,6.425,8.781v-.032l.024.032.655-.895,2.155-2.884v.008l2.37,3.771h.854l-2.788-4.436.381-.521,3.391,4.957h.876l-3.814-5.575.526-.719,4.263,6.295h.873L156.97-308.3l.474-.647,5.215,7.562h.878l-5.641-8.179.44-.6,6.425,8.781v-.032l.024.032.655-.895,2.155-2.884v.008l2.37,3.771h.854l-2.788-4.436.381-.521,3.391,4.957h.876l-3.814-5.575.526-.719,4.263,6.295h.873l-4.683-6.914.474-.647,5.215,7.562h.878l-5.641-8.179.44-.6,6.425,8.781v-.032l.024.032.655-.895,2.155-2.884v.008l2.37,3.771h.854L180.9-305.82l.381-.521,3.391,4.957h.876l-3.814-5.575.526-.719,4.263,6.295h.873l-4.683-6.914.474-.647,5.215,7.562h.878l-5.641-8.179.44-.6,6.425,8.781v-.032l.024.032.655-.895,2.155-2.884v.008l2.37,3.771h.854l-2.788-4.436.381-.521,3.391,4.957h.876l-3.814-5.575.526-.719,4.263,6.295h.873L195.59-308.3l.474-.647,5.215,7.562h.878l-5.641-8.179.44-.6,6.425,8.781v-.032l.024.032.655-.895,2.155-2.884v.008l2.37,3.771h.854l-2.788-4.436.381-.521,3.391,4.957h.876l-3.814-5.575.526-.719,4.263,6.295h.873l-4.683-6.914.474-.647,5.215,7.562h.878l-5.641-8.179.44-.6,6.425,8.781v-.032l.024.032.655-.895,2.155-2.884v.008l2.37,3.771h.854l-2.788-4.436.381-.521,3.391,4.957h.876l-3.814-5.575.526-.719,4.263,6.295h.873l-4.683-6.914.474-.647,5.215,7.562h.878l-5.641-8.179.44-.6,6.425,8.781v-.032l.024.032.655-.895,2.155-2.884v.008l2.37,3.771h.854L232.4-305.82l.381-.521,3.391,4.957h.876l-3.814-5.575.526-.719,4.263,6.295h.873l-4.683-6.914.474-.647,5.215,7.562h.878l-5.641-8.179.44-.6L242-301.384v-.032l.024.032.655-.895,2.155-2.884v.008l2.37,3.771h.854l-2.788-4.436.381-.521,3.391,4.957h.876l-3.814-5.575.526-.719,4.263,6.295h.873l-4.683-6.914.474-.647,5.215,7.562h.878l-5.641-8.179.44-.6,6.425,8.781v-.032l.024.032.655-.895,2.155-2.884v.008l2.37,3.771h.854l-2.788-4.436.381-.521,3.391,4.957h.876l-3.814-5.575.526-.719,4.263,6.295h.873l-4.683-6.914.474-.647,5.215,7.562h.878l-5.641-8.179.44-.6,6.425,8.781v-.032l.024.032.655-.895,2.155-2.884v.008l2.37,3.771h.854l-2.788-4.436.381-.521,3.391,4.957h.876l-3.814-5.575.526-.719,4.263,6.295h.873l-4.683-6.914.474-.647,5.215,7.562h.878l-5.641-8.179.44-.6,6.425,8.781v-.032l.024.032.655-.895,2.155-2.884v.008l2.37,3.771h.854l-2.788-4.436.381-.521,3.391,4.957h.876l-3.814-5.575.526-.719,4.263,6.295h.873L285.7-308.3l.474-.647,5.215,7.562h.878l-5.641-8.179.44-.6,6.425,8.781v-.032l.024.032.655-.895,2.155-2.884v.008l2.37,3.771h.854l-2.788-4.436.381-.521,3.391,4.957h.876l-3.814-5.575.526-.719,4.263,6.295h.873l-4.683-6.914.474-.647,5.215,7.562h.878l-5.641-8.179.44-.6,6.425,8.781v-.032l.024.032.655-.895,2.155-2.884v.008l2.37,3.771h.854l-2.788-4.436.381-.521,3.391,4.957h.876l-3.814-5.575.526-.719,4.263,6.295h.873l-4.683-6.914.474-.647,5.215,7.562h.878l-5.641-8.179.44-.6,6.425,8.781v-.032l.024.032.655-.895,2.155-2.884v.008l2.37,3.771h.854l-2.788-4.436.381-.521,3.391,4.957h.876l-3.814-5.575.526-.719,4.263,6.295h.873l-4.683-6.914.474-.647,5.215,7.562h.878l-5.641-8.179.44-.6,6.425,8.781v-.032l.024.032.655-.895,2.155-2.884v.008l2.37,3.771h.854l-2.788-4.436.381-.521,3.391,4.957h.876l-3.814-5.575.526-.719,4.263,6.295h.873L337.2-308.3l.474-.647,5.215,7.562h.878l-5.641-8.179.44-.6,6.425,8.781v-.032l.024.032.655-.895,2.155-2.884v.008l2.37,3.771h.854l-2.788-4.436.381-.521,3.391,4.957h.876l-3.814-5.575.526-.719,4.263,6.295h.873l-4.683-6.914.474-.647,5.215,7.562h.878L351-309.563l.44-.6,6.425,8.781v-.032l.024.032.654-.895,2.155-2.884v.008l2.37,3.771h.854l-2.788-4.436.381-.521,3.391,4.957h.876l-3.814-5.575.526-.719,4.263,6.295h.873l-4.683-6.914.474-.647,5.215,7.562h.878l-5.641-8.179.44-.6,6.425,8.781v-.032l.024.032.655-.895,2.155-2.884v.008l2.37,3.771h.854L374-305.82l.381-.521,3.391,4.957h.876l-3.814-5.575.526-.719,4.263,6.295h.873l-4.683-6.914.474-.647,5.215,7.562h.878l-5.641-8.179.44-.6,6.425,8.781v-.032l.024.032.655-.895,2.155-2.884v.008l2.37,3.771h.854l-2.788-4.436.381-.521,3.391,4.957h.876l-3.814-5.575.526-.719,4.263,6.295h.873l-4.683-6.914.474-.647,5.215,7.562h.878l-5.641-8.179.44-.6,6.425,8.781v-.032l.024.032.655-.895,2.155-2.884v.008l2.37,3.771h.854l-2.788-4.436.381-.521,3.391,4.957h.876l-3.814-5.575.526-.719,4.263,6.295h.873l-4.683-6.914.474-.647,5.215,7.562h.878l-5.641-8.179.44-.6,6.425,8.781v-.032l.024.032.655-.895,2.155-2.884v.008l2.37,3.771h.854l-2.788-4.436.381-.521,3.391,4.957h.876l-3.814-5.575.526-.719,4.263,6.295h.873l-4.683-6.914.474-.647,5.215,7.562h.878l-5.641-8.179.44-.6,6.425,8.781v-.032l.024.032.655-.895,2.155-2.884v.008l2.37,3.771h.854L425.5-305.82l.381-.521,3.391,4.957h.876l-3.814-5.575.526-.719,4.263,6.295H432l-4.683-6.914.474-.647L433-301.384h.878l-5.641-8.179.44-.6,6.425,8.781v-.032l.024.032.655-.895,2.155-2.884v.008l2.37,3.771h.854l-2.788-4.436.381-.521,3.391,4.957h.876l-3.814-5.575.526-.719L444-301.384h.873l-4.683-6.914.474-.647,5.215,7.562h.878l-5.641-8.179.44-.6,6.425,8.781v-.032l.024.032.655-.895,2.155-2.884v.008l2.37,3.771h.854l-2.788-4.436.381-.521,3.391,4.957h.876l-3.814-5.575.526-.719,4.263,6.295h.873L453.06-308.3l.474-.647,5.215,7.562h.878l-5.641-8.179.44-.6,6.425,8.781v-.032l.024.032.655-.895,2.155-2.884v.008l2.37,3.771h.854l-2.788-4.436.381-.521,3.391,4.957h.876l-3.814-5.575.526-.719,4.263,6.295h.873l-4.683-6.914.474-.647,5.215,7.562h.878l-5.641-8.179.44-.6,6.425,8.781v-.032l.024.032.655-.895,2.155-2.884v.008l2.37,3.771h.854l-2.788-4.436.381-.521,3.391,4.957h.876l-3.814-5.575.526-.719,4.263,6.295h.873l-4.683-6.914.474-.647,5.215,7.562h.878l-5.641-8.179.44-.6,6.425,8.781v-.032l.024.032.655-.895,2.155-2.884v.008l2.37,3.771h.854l-2.788-4.436.381-.521,3.391,4.957h.876l-3.814-5.575.526-.719,4.263,6.295h.873L491.68-308.3l.474-.647,5.215,7.562h.878l-5.641-8.179.44-.6,6.425,8.781v-.032l.024.032.655-.895,2.155-2.884v.008l2.37,3.771h.854l-2.788-4.436.381-.521,3.391,4.957h.876l-3.814-5.575.526-.719,4.263,6.295h.873l-4.683-6.914.474-.647,5.215,7.562h.878l-5.641-8.179.44-.6,6.425,8.781v-.032l.024.032.655-.895,2.155-2.884v.008l2.37,3.771h.854l-2.788-4.436.381-.521,3.391,4.957h.876l-3.814-5.575.526-.719,4.263,6.295h.873l-4.683-6.914.474-.647,5.215,7.562h.878l-5.641-8.179.44-.6,6.425,8.781v-.032l.024.032.654-.895,2.155-2.884v.008l2.37,3.771h.854l-2.788-4.436.381-.521,3.391,4.957h.876l-3.814-5.575.526-.719,4.263,6.295h.873L530.3-308.3l.474-.647,5.215,7.562h.878l-5.641-8.179.44-.6,6.425,8.781v-.032l.024.032.655-.895,2.155-2.884v.008l2.37,3.771h.854l-2.788-4.436.381-.521,3.391,4.957h.876l-3.814-5.575.526-.719,4.263,6.295h.873l-4.683-6.914.474-.647,5.215,7.562h.878l-5.641-8.179.44-.6,6.425,8.781v-.032l.024.032.655-.895,2.155-2.884v.008l2.37,3.771h.854l-2.788-4.436.381-.521,3.391,4.957h.876l-3.814-5.575.526-.719,4.263,6.295h.873l-4.683-6.914.474-.647,5.215,7.562h.878l-5.641-8.179.44-.6,6.425,8.781v-.032l.024.032.655-.895,2.155-2.884v.008l2.37,3.771h.854l-2.788-4.436.381-.521,3.391,4.957h.876l-3.814-5.575.526-.719,4.263,6.295h.873l-4.683-6.914.474-.647,5.215,7.562h.878l-5.641-8.179.44-.6,6.425,8.781v-.032l.024.032.655-.895,2.155-2.884v.008l2.37,3.771h.854l-2.788-4.436.381-.521,3.391,4.957h.876l-3.814-5.575.526-.719,4.263,6.295h.873l-4.683-6.914.474-.647,5.215,7.562h.878l-5.641-8.179.44-.6,6.425,8.781v-.032l.024.032.655-.895,2.155-2.884v.008l2.37,3.771h.854l-2.788-4.436.381-.521,3.391,4.957h.876l-3.814-5.575.526-.719,4.263,6.295h.873l-4.683-6.914.474-.647,5.215,7.562h.878l-5.641-8.179.44-.6,6.425,8.781v-.032l.024.032.654-.895,2.155-2.884v.008l2.37,3.771h.854l-2.788-4.436.381-.521,3.391,4.957h.876l-3.814-5.575.526-.719,4.263,6.295h.873l-4.683-6.914.474-.647,5.215,7.562h.878l-5.641-8.179.44-.6,6.425,8.781v-.032l.024.032.654-.895,2.155-2.884v.008l2.37,3.771h.854L618.6-305.82l.381-.521,3.391,4.957h.876l-3.814-5.575.526-.719,4.263,6.295h.873l-4.683-6.914.474-.647,5.215,7.562h.878l-5.641-8.179.44-.6,6.425,8.781v-.032l.024.032.654-.895,2.155-2.884v.008l2.37,3.771h.854l-2.788-4.436.381-.521,3.391,4.957h.876l-3.814-5.575.526-.719,4.263,6.295h.873l-4.683-6.914.474-.647,5.215,7.562h.878l-5.641-8.179.44-.6,6.425,8.781v-.032l.024.032.654-.895,2.155-2.884v.008l2.37,3.771h.854l-2.788-4.436.381-.521,3.391,4.957H649l-3.814-5.575.526-.719,4.263,6.295h.873l-4.683-6.914.474-.647,5.215,7.562h.878l-5.641-8.179.44-.6,6.425,8.781v-.032l.024.032.654-.895,2.155-2.884v.008l2.37,3.771h.854l-2.788-4.436.381-.521,3.391,4.957h.876l-3.814-5.575.526-.719,4.263,6.295h.873l-4.683-6.914.474-.647,5.215,7.562h.878l-5.641-8.179.44-.6,6.425,8.781v-.032l.024.032.654-.895,2.155-2.884v.008l2.37,3.771h.854l-2.788-4.436.381-.521,3.391,4.957h.876l-3.814-5.575.526-.719,4.263,6.295h.873l-4.683-6.914.474-.647,5.215,7.562h.878l-5.641-8.179.44-.6,6.425,8.781v-.032l.024.032.654-.895,2.155-2.884v.008l2.37,3.771h.854l-2.788-4.436.381-.521,3.391,4.957h.876l-3.814-5.575.526-.719,4.263,6.295h.873l-4.683-6.914.474-.647,5.215,7.562h.878l-5.641-8.179.44-.6,6.425,8.781v-.032l.024.032.655-.895,2.155-2.884v.008l2.37,3.771h.854l-2.788-4.436.381-.521,3.391,4.957h.876l-3.814-5.575.526-.719,4.263,6.295h.873l-4.683-6.914.474-.647,5.215,7.562h.878l-5.641-8.179.44-.6,6.425,8.781v-.032l.024.032.654-.895,2.155-2.884v.008l2.37,3.771h.854l-2.788-4.436.381-.521,3.391,4.957h.876l-3.814-5.575.526-.719,4.263,6.295h.873l-4.683-6.914.474-.647,5.215,7.562h.878l-5.641-8.179.44-.6,6.425,8.781v-.032l.024.032.654-.895,2.155-2.884v.008l2.37,3.771h.854l-2.788-4.436.381-.521,3.391,4.957h.876l-3.814-5.575.526-.719,4.263,6.295h.873L723.4-308.3l.474-.647,5.215,7.562h.878l-5.641-8.179.44-.6,6.425,8.781v-.032l.024.032.654-.895,2.155-2.884v.008l2.37,3.771h.854l-2.788-4.436.381-.521,3.391,4.957h.876l-3.814-5.575.526-.719,4.263,6.295h.873l-4.683-6.914.474-.647,5.215,7.562h.878l-5.641-8.179.44-.6,6.425,8.781v-.032l.024.032.655-.895,2.155-2.884v.008l2.37,3.771h.854l-2.788-4.436.381-.521,3.391,4.957h.876l-3.814-5.575.526-.719,4.263,6.295h.873l-4.683-6.914.474-.647,5.215,7.562h.878l-5.641-8.179.44-.6,6.425,8.781v-.032l.024.032.654-.895,2.155-2.884v.008l2.37,3.771H763l-2.788-4.436.381-.521,3.391,4.957h.876l-3.814-5.575.526-.719,4.263,6.295h.873l-4.683-6.914.474-.647,5.215,7.562h.878l-5.641-8.179.44-.6,6.425,8.781v-.032l.024.032.655-.895,2.155-2.884v.008l2.37,3.771h.854l-2.788-4.436.381-.521,3.391,4.957h.876l-3.814-5.575.526-.719,4.263,6.295h.873L774.9-308.3l.474-.647,5.215,7.562h.878l-5.641-8.179.44-.6Z" transform="translate(1763.477 311.389)" fill="#d2d2d2"/></g></svg>