<svg xmlns="http://www.w3.org/2000/svg" width="39.282" height="15" viewBox="0 0 39.282 15"><path d="M-13.8-303.039l.572-.781h0l4.875-6.662-.68-.906-9.642,13.177-.66-.9,8.466-12.276h-1.316l-7.827,11.35-.71-.97,7.03-10.38h-1.309l-6.4,9.451-.789-1.078,5.727-8.372h-1.313l-5.093,7.445-.571-.781,4.188-6.664h-1.28l-3.553,5.654v.012l-4.248-5.665-9.642,13.177-.66-.9,8.466-12.276H-31.49l-7.827,11.35-.71-.97,7.03-10.38h-1.309l-6.4,9.451-.789-1.078,5.727-8.372h-1.313l-5.093,7.445-.571-.781,4.188-6.664h-1.28l-3.553,5.654v.012l-4.248-5.665v1.835l9.668,13.165.981-1.341,3.231-4.324v.012l3.553,5.654h1.28l-4.179-6.65.572-.781,5.084,7.432h1.313l-5.718-8.359.789-1.078,6.392,9.438h1.309l-7.021-10.367.71-.97,7.819,11.337h1.316L-29-308.652l.66-.9,9.633,13.165v-.048l.036.048,4.866-6.65Z" transform="translate(47.64 311.389)" fill="#cc3e00"/></svg>