<svg xmlns="http://www.w3.org/2000/svg" xmlns:xlink="http://www.w3.org/1999/xlink" width="1136" height="30" viewBox="0 0 1136 30"><defs><clipPath id="a"><rect width="1136" height="30" transform="translate(392 165)" fill="#fff" stroke="#707070" stroke-width="1"/></clipPath></defs><g transform="translate(-392 -165)" clip-path="url(#a)"><path d="M1474.433,14.274l-1.505-2.057,8.391-12.2h-8.67V12.33L1463.627,0,1444.47,25.657l-1.521-2.079L1459.459.017h-2.647L1441.6,21.73l-1.583-2.164L1453.931.017h-2.66l-12.606,17.706-1.161-1.588L1448.277.017h-2.606l-9.529,14.257-1.505-2.057,8.391-12.2h-8.67V12.33L1425.336,0l-19.157,25.657-1.521-2.079L1421.168.017h-2.647L1403.306,21.73l-1.584-2.164L1415.639.017h-2.66l-12.606,17.706-1.161-1.588L1409.985.017h-2.606l-9.53,14.257-1.5-2.057,8.391-12.2h-8.67V12.33L1387.044,0l-19.157,25.657-1.521-2.079L1382.876.017h-2.646L1365.014,21.73l-1.584-2.164L1377.348.017h-2.661l-12.605,17.706-1.162-1.588L1371.693.017h-2.606l-9.529,14.257-1.505-2.057,8.391-12.2h-8.67V12.33L1348.753,0,1329.6,25.657l-1.521-2.079L1344.584.017h-2.647L1326.722,21.73l-1.584-2.164L1339.056.017H1336.4L1323.79,17.723l-1.161-1.588L1333.4.017H1330.8l-9.529,14.257-1.505-2.057,8.391-12.2h-8.67V12.33L1310.461,0,1291.3,25.657l-1.521-2.079L1306.293.017h-2.647L1288.431,21.73l-1.583-2.164L1300.765.017H1298.1L1285.5,17.723l-1.161-1.588L1295.11.017H1292.5l-9.529,14.257-1.505-2.057,8.391-12.2h-8.67V12.33L1272.169,0l-19.157,25.657-1.521-2.079L1268,.017h-2.647L1250.139,21.73l-1.584-2.164L1262.473.017h-2.661l-12.606,17.706-1.161-1.588L1256.819.017h-2.606l-9.53,14.257-1.505-2.057,8.391-12.2h-8.67V12.33L1233.877,0,1214.72,25.657l-1.521-2.079L1229.709.017h-2.646L1211.847,21.73l-1.584-2.164L1224.181.017h-2.661l-12.605,17.706-1.162-1.588L1218.527.017h-2.606l-9.529,14.257-1.505-2.057,8.391-12.2h-8.67V12.33L1195.586,0l-19.157,25.657-1.521-2.079L1191.418.017h-2.647L1173.556,21.73l-1.584-2.164L1185.89.017h-2.661l-12.605,17.706-1.162-1.588L1180.235.017h-2.606L1168.1,14.274l-1.505-2.057,8.391-12.2h-8.67V12.33L1157.294,0l-19.157,25.657-1.521-2.079L1153.126.017h-2.647L1135.264,21.73l-1.583-2.164L1147.6.017h-2.661l-12.605,17.706-1.161-1.588L1141.944.017h-2.606l-9.529,14.257-1.505-2.057,8.391-12.2h-8.67V12.33L1119,0l-19.157,25.657-1.521-2.079L1114.834.017h-2.647L1096.972,21.73l-1.584-2.164L1109.306.017h-2.66L1094.04,17.723l-1.161-1.588L1103.652.017h-2.606l-9.529,14.257-1.505-2.057L1098.4.017h-8.67V12.33L1080.711,0l-19.157,25.657-1.521-2.079L1076.543.017H1073.9L1058.681,21.73l-1.584-2.164L1071.015.017h-2.661l-12.605,17.706-1.162-1.588L1065.36.017h-2.606l-9.529,14.257-1.505-2.057,8.391-12.2h-8.67V12.33L1042.419,0l-19.157,25.657-1.521-2.079L1038.251.017H1035.6L1020.389,21.73l-1.584-2.164L1032.723.017h-2.661l-12.605,17.706-1.162-1.588L1027.069.017h-2.606l-9.529,14.257-1.505-2.057,8.391-12.2h-8.67V12.33L1004.128,0,984.97,25.657l-1.521-2.079L999.959.017h-2.646L982.1,21.73l-1.584-2.164L994.431.017h-2.661L979.165,17.723,978,16.136,988.777.017h-2.606l-9.529,14.257-1.505-2.057,8.391-12.2h-8.67V12.33L965.836,0,946.679,25.657l-1.521-2.079L961.668.017h-2.647L943.806,21.73l-1.584-2.164L956.14.017h-2.66L940.874,17.723l-1.162-1.588L950.485.017h-2.606L938.35,14.274l-1.505-2.057,8.391-12.2h-8.67V12.33L927.544,0,908.387,25.657l-1.521-2.079L923.376.017H920.73L905.514,21.73l-1.584-2.164L917.848.017h-2.66L902.582,17.723l-1.162-1.588L912.194.017h-2.606l-9.529,14.257-1.505-2.057,8.391-12.2h-8.67V12.33L889.253,0,870.1,25.657l-1.521-2.079L885.084.017h-2.647L867.222,21.73l-1.584-2.164L879.556.017H876.9L864.29,17.723l-1.162-1.588L873.9.017H871.3l-9.529,14.257-1.505-2.057,8.391-12.2h-8.67V12.33L850.961,0,831.8,25.657l-1.521-2.079L846.793.017h-2.646L828.931,21.73l-1.584-2.164L841.265.017H838.6L826,17.723l-1.162-1.588L835.61.017H833l-9.529,14.257-1.505-2.057,8.391-12.2h-8.67V12.33L812.669,0,793.512,25.657l-1.521-2.079L808.5.017h-2.647L790.639,21.73l-1.583-2.164L802.973.017h-2.661L787.707,17.723l-1.161-1.588L797.319.017h-2.606l-9.529,14.257-1.505-2.057L792.07.017H783.4V12.33L774.378,0,755.22,25.657,753.7,23.578,770.21.017h-2.647L752.347,21.73l-1.583-2.164L764.681.017h-2.661L749.415,17.723l-1.162-1.588L759.027.017h-2.606l-9.529,14.257-1.505-2.057,8.391-12.2h-8.67V12.641L735.859,0,716.7,25.657l-1.521-2.079L731.691.017h-2.647L713.829,21.73l-1.584-2.164L726.163.017H723.5L710.9,17.723l-1.162-1.588L720.508.017H717.9l-9.529,14.257-1.505-2.057,8.391-12.2h-8.67V12.33L697.567,0,678.41,25.657l-1.521-2.079L693.4.017h-2.647L675.537,21.73l-1.583-2.164L687.871.017H685.21L672.6,17.723l-1.162-1.588L682.217.017h-2.606l-9.529,14.257-1.505-2.057,8.391-12.2H668.3V12.33L659.276,0,640.118,25.657,638.6,23.578,655.108.017h-2.647L637.245,21.73l-1.584-2.164L649.579.017h-2.661L634.313,17.723l-1.162-1.588L643.925.017h-2.606L631.79,14.274l-1.505-2.057,8.391-12.2h-8.67V12.33L620.984,0,601.827,25.657l-1.521-2.079L616.816.017h-2.647L598.954,21.73l-1.584-2.164L611.288.017h-2.661L596.022,17.723l-1.162-1.588L605.633.017h-2.606L593.5,14.274l-1.505-2.057,8.391-12.2h-8.67V12.33L582.692,0,563.535,25.657l-1.521-2.079L578.524.017h-2.647L560.662,21.73l-1.583-2.164L573,.017h-2.661L557.73,17.723l-1.162-1.588L567.342.017h-2.606l-9.529,14.257L553.7,12.217l8.391-12.2h-8.67V12.33L544.4,0,525.243,25.657l-1.521-2.079L540.233.017h-2.646L522.37,21.73l-1.583-2.164L534.7.017h-2.66L519.438,17.723l-1.162-1.588L529.05.017h-2.606l-9.529,14.257-1.505-2.057L523.8.017h-8.67V12.33L506.109,0,486.952,25.657l-1.521-2.079L501.941.017h-2.647L484.079,21.73,482.5,19.566,496.413.017h-2.66L481.147,17.723l-1.162-1.588L490.758.017h-2.606l-9.529,14.257-1.505-2.057,8.391-12.2h-8.67V12.33L467.817,0,448.66,25.657l-1.521-2.079L463.649.017H461L445.787,21.73,444.2,19.566,458.121.017H455.46L442.855,17.723l-1.162-1.588L452.467.017h-2.606l-9.529,14.257-1.505-2.057,8.391-12.2h-8.67V12.33L429.526,0,410.368,25.657l-1.521-2.079L425.358.017h-2.647L407.5,21.73l-1.584-2.164L419.829.017h-2.661L404.563,17.723,403.4,16.136,414.175.017h-2.606L402.04,14.274l-1.505-2.057,8.391-12.2h-8.67V12.33L391.234,0,372.077,25.657l-1.521-2.079L387.066.017h-2.647L369.2,21.73l-1.584-2.164L381.538.017h-2.661L366.272,17.723l-1.162-1.588L375.883.017h-2.606l-9.529,14.257-1.505-2.057,8.391-12.2h-8.67V12.33L352.942,0,333.785,25.657l-1.521-2.079L348.774.017h-2.647L330.912,21.73l-1.583-2.164L343.246.017h-2.661L327.98,17.723l-1.162-1.588L337.592.017h-2.606l-9.529,14.257-1.505-2.057,8.391-12.2h-8.67V12.33L314.651,0,295.493,25.657l-1.521-2.079L310.483.017h-2.647L292.62,21.73l-1.584-2.164L304.954.017h-2.661L289.688,17.723l-1.162-1.588L299.3.017h-2.606l-9.529,14.257-1.505-2.057,8.391-12.2h-8.67V12.33L276.359,0,257.2,25.657l-1.521-2.079L272.191.017h-2.647L254.329,21.73l-1.584-2.164L266.663.017H264L251.4,17.723l-1.162-1.588L261.008.017H258.4l-9.529,14.257-1.505-2.057,8.391-12.2h-8.67V12.33L238.067,0,218.91,25.657l-1.521-2.079L233.9.017h-2.647L216.037,21.73l-1.584-2.164L228.371.017H225.71L213.105,17.723l-1.162-1.588L222.717.017h-2.606l-9.529,14.257-1.505-2.057,8.391-12.2H208.8V12.33L199.776,0,180.618,25.657,179.1,23.578,195.608.017h-2.647L177.745,21.73l-1.584-2.164L190.079.017h-2.661L174.813,17.723l-1.162-1.588L184.425.017h-2.606L172.29,14.274l-1.505-2.057,8.391-12.2h-8.67V12.33L161.484,0,142.327,25.657l-1.521-2.079L157.316.017h-2.647L139.454,21.73l-1.584-2.164L151.788.017h-2.661L136.522,17.723l-1.162-1.588L146.134.017h-2.606L134,14.274l-1.505-2.057,8.391-12.2h-8.67V12.33L123.192,0,104.035,25.657l-1.521-2.079L119.024.017h-2.647L101.162,21.73l-1.584-2.164L113.5.017h-2.661L98.23,17.723l-1.162-1.588L107.842.017h-2.606L95.707,14.274,94.2,12.217l8.391-12.2h-8.67V12.33L84.9,0,65.744,25.657l-1.521-2.079L80.733.017H78.086L62.87,21.73l-1.584-2.164L75.2.017H72.544L59.938,17.723l-1.162-1.588L69.55.017H66.944L57.415,14.274,55.91,12.217,64.3.017h-8.67V12.33L46.609,0,27.452,25.657l-1.521-2.079L42.441.017H39.794L24.579,21.73,23,19.566,36.913.017H34.252L21.647,17.723l-1.162-1.588L31.258.017H28.653L19.123,14.274l-1.505-2.057L26.009.017H17.34V12.33L8.317,0,0,11.139v4.1L10.095,30h2.626L1.267,13.255,2.845,11.1,15.646,30h2.618L4.2,9.241,5.625,7.3,21.28,30h2.633L6.981,5.448,8.3,3.646,27.583,30h8.18V18.685L42.874,30h2.56L37.058,16.671,38.2,15.11,48.386,30h2.626L39.558,13.255,41.137,11.1,53.938,30h2.618L42.5,9.241l1.42-1.94L59.572,30H62.2L45.272,5.448l1.319-1.8L65.875,30h8.18V18.685L81.166,30h2.56L75.349,16.671l1.143-1.562L86.678,30H89.3L77.85,13.255,79.428,11.1,92.23,30h2.618L80.788,9.241l1.42-1.94L97.863,30H100.5L83.564,5.448l1.319-1.8L104.166,30h8.18V18.685L119.458,30h2.56l-8.377-13.329,1.143-1.562L124.97,30H127.6L116.142,13.255,117.72,11.1l12.8,18.9h2.618L119.08,9.241,120.5,7.3,136.155,30h2.633L121.856,5.448l1.319-1.8L142.458,30h8.18V18.685L157.749,30h2.56l-8.377-13.329,1.143-1.562L163.261,30h2.626L154.433,13.255l1.578-2.157,12.8,18.9h2.618L157.371,9.241l1.42-1.94L174.446,30h2.633L160.147,5.448l1.319-1.8L180.75,30h8.18V18.685L196.041,30h2.56l-8.377-13.329,1.143-1.562L201.553,30h2.626L192.725,13.255,194.3,11.1,207.1,30h2.618L195.663,9.241l1.42-1.94L212.738,30h2.633L198.439,5.448l1.319-1.8L219.041,30h8.18V18.685L234.333,30h2.56l-8.377-13.329,1.143-1.562L239.845,30h2.626L231.017,13.255,232.6,11.1,245.4,30h2.618L233.955,9.241l1.42-1.94L251.03,30h2.633L236.731,5.448l1.319-1.8L257.333,30h8.18V18.685L272.624,30h2.56l-8.377-13.329,1.143-1.562L278.136,30h2.626L269.308,13.255l1.579-2.157,12.8,18.9h2.618L272.246,9.241l1.42-1.94L289.321,30h2.633L275.022,5.448l1.319-1.8L295.625,30h8.18V18.685L310.916,30h2.56L305.1,16.671l1.143-1.562L316.428,30h2.626L307.6,13.255l1.579-2.157L321.98,30H324.6L310.538,9.241l1.42-1.94L327.613,30h2.633L313.314,5.448l1.319-1.8L333.916,30h8.18V18.685L349.208,30h2.56l-8.377-13.329,1.143-1.562L354.72,30h2.626L345.891,13.255,347.47,11.1l12.8,18.9h2.618L348.83,9.241l1.42-1.94L365.9,30h2.633L351.606,5.448l1.319-1.8L372.208,30h8.18V18.685L387.5,30h2.56l-8.377-13.329,1.143-1.562L393.011,30h2.626L384.183,13.255l1.578-2.157,12.8,18.9h2.618L387.121,9.241l1.42-1.94L404.2,30h2.633L389.9,5.448l1.319-1.8L410.5,30h8.18V18.685L425.791,30h2.56l-8.377-13.329,1.143-1.562L431.3,30h2.626L422.475,13.255l1.579-2.157,12.8,18.9h2.618L425.413,9.241l1.42-1.94L442.488,30h2.633L428.189,5.448l1.319-1.8L448.791,30h8.18V18.685L464.083,30h2.56l-8.377-13.329,1.143-1.562L469.595,30h2.626L460.766,13.255l1.579-2.157,12.8,18.9h2.618L463.7,9.241l1.42-1.94L480.78,30h2.633L466.481,5.448l1.319-1.8L487.083,30h8.18V18.685L502.374,30h2.56l-8.377-13.329L497.7,15.11,507.886,30h2.626L499.058,13.255l1.579-2.157,12.8,18.9h2.618L502,9.241l1.42-1.94L519.071,30H521.7L504.772,5.448l1.319-1.8L525.375,30h8.18V18.685L540.666,30h2.56l-8.377-13.329,1.143-1.562L546.178,30H548.8L537.35,13.255l1.579-2.157L551.73,30h2.618L540.288,9.241l1.42-1.94L557.363,30H560L543.064,5.448l1.319-1.8L563.666,30h8.18V18.685L578.958,30h2.56l-8.377-13.329,1.143-1.562L584.47,30H587.1L575.641,13.255,577.22,11.1l12.8,18.9h2.618L578.58,9.241,580,7.3,595.655,30h2.633L581.356,5.448l1.319-1.8L601.958,30h8.18V18.685L617.249,30h2.56l-8.377-13.329,1.143-1.562L622.761,30h2.626L613.933,13.255l1.578-2.157,12.8,18.9h2.618L616.871,9.241l1.42-1.94L633.946,30h2.633L619.647,5.448l1.319-1.8L640.25,30h8.18V18.685L655.541,30h2.56l-8.377-13.329,1.143-1.562L661.053,30h2.626L652.225,13.255,653.8,11.1,666.6,30h2.618L655.163,9.241l1.42-1.94L672.238,30h2.633L657.939,5.448l1.319-1.8L678.541,30h8.18V18.685L693.833,30h2.56l-8.377-13.329,1.143-1.562L699.344,30h2.626L690.516,13.255l1.578-2.157L704.9,30h2.618L693.455,9.241l1.42-1.94L710.53,30h2.633L696.231,5.448l1.319-1.8L716.833,30h8.18V18.685L732.124,30h2.56l-8.377-13.329,1.143-1.562L737.636,30h2.626L728.808,13.255l1.578-2.157,12.8,18.9h2.618L731.746,9.241l1.42-1.94L748.821,30h2.633L734.522,5.448l1.319-1.8L755.125,30h8.407V18.685L770.643,30h2.56l-8.377-13.329,1.143-1.562L776.155,30h2.626L767.327,13.255l1.579-2.157,12.8,18.9h2.618L770.265,9.241l1.42-1.94L787.34,30h2.633L773.041,5.448l1.319-1.8L793.643,30h8.18V18.685L808.934,30h2.56l-8.377-13.329,1.143-1.562L814.447,30h2.626L805.618,13.255,807.2,11.1,820,30h2.618L808.557,9.241l1.42-1.94L825.632,30h2.633L811.333,5.448l1.319-1.8L831.935,30h8.18V18.685L847.226,30h2.56l-8.377-13.329,1.143-1.562L852.738,30h2.626L843.91,13.255l1.578-2.157L858.29,30h2.618L846.848,9.241l1.42-1.94L863.923,30h2.633L849.624,5.448l1.319-1.8L870.227,30h8.18V18.685L885.518,30h2.56L879.7,16.671l1.143-1.562L891.03,30h2.626L882.2,13.255,883.78,11.1l12.8,18.9H899.2L885.14,9.241l1.42-1.94L902.215,30h2.633L887.916,5.448l1.319-1.8L908.518,30h8.18V18.685L923.81,30h2.56l-8.377-13.329,1.143-1.562L929.322,30h2.626L920.493,13.255l1.578-2.157,12.8,18.9h2.618L923.432,9.241l1.42-1.94L940.507,30h2.633L926.208,5.448l1.319-1.8L946.81,30h8.18V18.685L962.1,30h2.56l-8.377-13.329,1.143-1.562L967.613,30h2.627L958.785,13.255l1.578-2.157,12.8,18.9h2.618L961.723,9.241l1.42-1.94L978.8,30h2.633L964.5,5.448l1.319-1.8L985.1,30h8.18V18.685L1000.393,30h2.56l-8.377-13.329,1.143-1.562L1005.9,30h2.626L997.077,13.255l1.578-2.157,12.8,18.9h2.618l-14.06-20.759,1.42-1.94L1017.09,30h2.633L1002.791,5.448l1.319-1.8L1023.393,30h8.18V18.685L1038.685,30h2.56l-8.377-13.329,1.143-1.562L1044.2,30h2.626l-11.454-16.745,1.578-2.157,12.8,18.9h2.618l-14.06-20.759,1.42-1.94L1055.382,30h2.633L1041.083,5.448l1.319-1.8L1061.685,30h8.18V18.685L1076.976,30h2.56l-8.377-13.329,1.143-1.562L1082.488,30h2.626L1073.66,13.255l1.578-2.157,12.8,18.9h2.618L1076.6,9.241l1.42-1.94L1093.673,30h2.633L1079.374,5.448l1.319-1.8L1099.976,30h8.18V18.685L1115.268,30h2.56l-8.377-13.329,1.143-1.562L1120.78,30h2.627l-11.455-16.745,1.578-2.157,12.8,18.9h2.618L1114.89,9.241l1.42-1.94L1131.965,30h2.633L1117.666,5.448l1.319-1.8L1138.268,30h8.18V18.685L1153.559,30h2.56l-8.377-13.329,1.143-1.562L1159.071,30h2.627l-11.454-16.745,1.578-2.157,12.8,18.9h2.618l-14.06-20.759,1.42-1.94L1170.256,30h2.633L1155.957,5.448l1.319-1.8L1176.56,30h8.18V18.685L1191.851,30h2.56l-8.377-13.329,1.143-1.562L1197.363,30h2.626l-11.454-16.745,1.578-2.157,12.8,18.9h2.618L1191.473,9.241l1.42-1.94L1208.548,30h2.633L1194.249,5.448l1.319-1.8L1214.851,30h8.18V18.685L1230.143,30h2.56l-8.377-13.329,1.143-1.562L1235.655,30h2.626l-11.454-16.745,1.578-2.157,12.8,18.9h2.618L1229.765,9.241l1.42-1.94L1246.84,30h2.633L1232.541,5.448l1.319-1.8L1253.143,30h8.18V18.685L1268.434,30h2.56l-8.377-13.329,1.143-1.562L1273.947,30h2.626l-11.455-16.745L1266.7,11.1,1279.5,30h2.618l-14.06-20.759,1.42-1.94L1285.132,30h2.633L1270.833,5.448l1.319-1.8L1291.435,30h8.18V18.685L1306.726,30h2.56l-8.376-13.329,1.143-1.562L1312.238,30h2.626L1303.41,13.255l1.578-2.157,12.8,18.9h2.618l-14.06-20.759,1.42-1.94L1323.423,30h2.633L1309.124,5.448l1.319-1.8L1329.726,30h8.18V18.685L1345.018,30h2.56L1339.2,16.671l1.143-1.562L1350.53,30h2.626L1341.7,13.255l1.579-2.157,12.8,18.9h2.618L1344.64,9.241l1.42-1.94L1361.715,30h2.633L1347.416,5.448l1.319-1.8L1368.018,30h8.18V18.685L1383.309,30h2.56l-8.377-13.329,1.143-1.562L1388.821,30h2.626l-11.455-16.745,1.578-2.157,12.8,18.9h2.618l-14.06-20.759,1.42-1.94L1400.007,30h2.633L1385.707,5.448l1.319-1.8L1406.31,30h8.18V18.685L1421.6,30h2.56l-8.377-13.329,1.143-1.562L1427.113,30h2.626l-11.455-16.745,1.578-2.157,12.8,18.9h2.618L1421.223,9.241l1.42-1.94L1438.3,30h2.633L1424,5.448l1.319-1.8L1444.6,30h8.18V18.685L1459.893,30h2.56l-8.377-13.329,1.143-1.562L1465.4,30h2.627l-11.454-16.745,1.578-2.157,12.8,18.9h2.618l-14.06-20.759,1.42-1.94L1476.59,30h2.633L1462.291,5.448l1.319-1.8L1482.893,30h1.687V23.222l-1.818,2.434-1.521-2.079,3.339-4.765V15.036l-4.691,6.694-1.583-2.164,6.274-8.813V7.016l-7.623,10.707-1.161-1.588,8.784-13.143V.017h-.617Z" transform="translate(392 165)" fill="#cc3e00"/></g></svg>