<svg xmlns="http://www.w3.org/2000/svg" width="1888.988" height="38.172" viewBox="0 0 1888.988 38.172"><path d="M0,15.689v4.67L13.034,38.172H23.442v-14.4l9.049,14.4h3.257L25.089,21.213l1.454-1.987L39.5,38.172h3.342L28.271,16.866l2.008-2.744,16.288,24.05H49.9L32.01,11.758l1.807-2.469L53.736,38.172h3.35L35.542,6.932,37.22,4.64,61.756,38.172H72.164v-14.4l9.049,14.4H84.47L73.812,21.213l1.454-1.987,12.96,18.946h3.342L76.994,16.866,79,14.122l16.288,24.05h3.331L80.732,11.758l1.807-2.469,19.919,28.883h3.35L84.264,6.932,85.943,4.64l24.536,33.533h10.408v-14.4l9.049,14.4h3.257L122.534,21.213l1.454-1.987,12.96,18.946h3.342L125.716,16.866l2.008-2.744,16.289,24.05h3.331l-17.89-26.414,1.807-2.469,19.919,28.883h3.35L132.987,6.932l1.678-2.293L159.2,38.172H169.61v-14.4l9.049,14.4h3.257L171.257,21.213l1.454-1.987,12.96,18.946h3.342L174.439,16.866l2.008-2.744,16.289,24.05h3.331L178.177,11.758l1.807-2.469L199.9,38.172h3.35L181.709,6.932l1.678-2.293,24.536,33.533h10.408v-14.4l9.049,14.4h3.257L219.979,21.213l1.454-1.987,12.96,18.946h3.342L223.161,16.866l2.008-2.744,16.289,24.05h3.331L226.9,11.758l1.807-2.469,19.919,28.883h3.35L230.432,6.932,232.11,4.64l24.536,33.533h10.408v-14.4l9.049,14.4h3.257L268.7,21.213l1.454-1.987,12.96,18.946h3.342L271.884,16.866l2.008-2.744,16.289,24.05h3.331L275.622,11.758l1.807-2.469,19.919,28.883h3.35L279.155,6.932l1.678-2.293,24.536,33.533h10.408v-14.4l9.049,14.4h3.257L317.425,21.213l1.454-1.987,12.96,18.946h3.342L320.606,16.866l2.008-2.744L338.9,38.172h3.331L324.345,11.758l1.807-2.469,19.919,28.883h3.35L327.877,6.932l1.678-2.293,24.536,33.533H364.5v-14.4l9.049,14.4h3.257L366.147,21.213l1.454-1.987,12.96,18.946H383.9L369.329,16.866l2.008-2.744,16.289,24.05h3.331L373.068,11.758l1.807-2.469,19.919,28.883h3.35L376.6,6.932l1.678-2.293,24.536,33.533h10.408v-14.4l9.049,14.4h3.257L414.87,21.213l1.454-1.987,12.96,18.946h3.342L418.051,16.866l2.009-2.744,16.288,24.05h3.331L421.79,11.758,423.6,9.289l19.919,28.883h3.35L425.322,6.932,427,4.64l24.536,33.533h10.408v-14.4l9.049,14.4h3.257L463.592,21.213l1.454-1.987,12.96,18.946h3.342L466.774,16.866l2.009-2.744,16.288,24.05H488.4l-17.89-26.414,1.807-2.469,19.919,28.883h3.35L474.045,6.932l1.678-2.293,24.536,33.533h10.408v-14.4l9.049,14.4h3.257L512.315,21.213l1.454-1.987,12.96,18.946h3.342L515.5,16.866l2.008-2.744,16.289,24.05h3.331l-17.89-26.414,1.807-2.469,19.919,28.883h3.35L522.767,6.932l1.678-2.293,24.536,33.533H559.39v-14.4l9.049,14.4H571.7L561.037,21.213l1.454-1.987,12.96,18.946h3.342L564.219,16.866l2.008-2.744,16.289,24.05h3.331l-17.89-26.414,1.807-2.469,19.919,28.883h3.35L571.49,6.932l1.678-2.293L597.7,38.172h10.408v-14.4l9.049,14.4h3.257L609.76,21.213l1.454-1.987,12.96,18.946h3.342L612.942,16.866l2.009-2.744,16.288,24.05h3.331L616.68,11.758l1.807-2.469,19.919,28.883h3.35L620.212,6.932l1.678-2.293,24.536,33.533h10.408v-14.4l9.049,14.4h3.257L658.482,21.213l1.454-1.987L672.9,38.172h3.342L661.664,16.866l2.009-2.744,16.288,24.05h3.331L665.4,11.758l1.807-2.469,19.919,28.883h3.35L668.935,6.932l1.678-2.293,24.536,33.533h10.408v-14.4l9.049,14.4h3.257L707.2,21.213l1.454-1.987,12.96,18.946h3.342L710.387,16.866l2.009-2.744,16.288,24.05h3.331l-17.89-26.414,1.807-2.469,19.919,28.883h3.35L717.657,6.932l1.678-2.293,24.536,33.533H754.28v-14.4l9.049,14.4h3.257L755.927,21.213l1.454-1.987,12.96,18.946h3.342L759.109,16.866l2.009-2.744,16.288,24.05h3.331l-17.89-26.414,1.807-2.469,19.919,28.883h3.35L766.38,6.932l1.678-2.293,24.536,33.533H803v-14.4l9.049,14.4h3.257L804.65,21.213l1.454-1.987,12.96,18.946h3.342L807.832,16.866l2.008-2.744,16.289,24.05h3.331L811.57,11.758l1.807-2.469L833.3,38.172h3.35L815.1,6.932l1.678-2.293,24.536,33.533h10.408v-14.4l9.049,14.4h3.257L853.373,21.213l1.454-1.987,12.96,18.946h3.342L856.554,16.866l2.009-2.744,16.288,24.05h3.331l-17.89-26.414L862.1,9.289l19.919,28.883h3.35L863.825,6.932,865.5,4.64l24.536,33.533h10.408v-14.4l9.049,14.4h3.257L902.1,21.213l1.454-1.987,12.96,18.946h3.342L905.277,16.866l2.009-2.744,16.288,24.05H926.9L909.016,11.758l1.807-2.469,19.919,28.883h3.35L912.548,6.932l1.678-2.293,24.536,33.533h10.7v-14.4l9.049,14.4h3.257L951.106,21.213l1.454-1.987,12.96,18.946h3.342L954.288,16.866l2.008-2.744,16.288,24.05h3.331l-17.89-26.414,1.807-2.469,19.919,28.883h3.35L961.559,6.932l1.678-2.293,24.536,33.533h10.408v-14.4l9.049,14.4h3.257L999.829,21.213l1.454-1.987,12.96,18.946h3.342l-14.575-21.306,2.008-2.744,16.288,24.05h3.331l-17.89-26.414,1.807-2.469,19.919,28.883h3.35l-21.544-31.24,1.678-2.293L1036.5,38.172H1046.9v-14.4l9.049,14.4h3.257l-10.658-16.959,1.454-1.987,12.961,18.946h3.342l-14.575-21.306,2.009-2.744,16.288,24.05h3.331l-17.89-26.414,1.807-2.469L1077.2,38.172h3.35L1059,6.932l1.678-2.293,24.536,33.533h10.408v-14.4l9.049,14.4h3.257l-10.658-16.959,1.454-1.987,12.961,18.946h3.342l-14.575-21.306,2.008-2.744,16.288,24.05h3.331l-17.89-26.414L1106,9.289l19.919,28.883h3.35l-21.544-31.24L1109.4,4.64l24.536,33.533h10.408v-14.4l9.048,14.4h3.257L1146,21.213l1.454-1.987,12.96,18.946h3.342l-14.575-21.306,2.009-2.744,16.288,24.05h3.331l-17.89-26.414,1.807-2.469,19.919,28.883h3.35l-21.545-31.24,1.678-2.293,24.536,33.533h10.408v-14.4l9.048,14.4h3.257l-10.659-16.959,1.454-1.987,12.96,18.946h3.342L1197.9,16.866l2.008-2.744,16.289,24.05h3.331l-17.89-26.414,1.807-2.469,19.919,28.883h3.35l-21.545-31.24,1.678-2.293,24.536,33.533h10.408v-14.4l9.049,14.4h3.257l-10.658-16.959,1.454-1.987,12.96,18.946h3.342l-14.575-21.306,2.009-2.744,16.288,24.05h3.331l-17.89-26.414,1.807-2.469,19.919,28.883h3.35l-21.545-31.24,1.678-2.293,24.536,33.533h10.408v-14.4l9.049,14.4h3.257l-10.658-16.959,1.454-1.987,12.961,18.946h3.342l-14.575-21.306,2.008-2.744,16.289,24.05h3.331l-17.89-26.414,1.807-2.469,19.919,28.883h3.35l-21.545-31.24L1304.3,4.64l24.536,33.533h10.408v-14.4l9.049,14.4h3.257l-10.659-16.959,1.454-1.987,12.96,18.946h3.342l-14.575-21.306,2.009-2.744,16.289,24.05h3.331l-17.889-26.414,1.807-2.469,19.919,28.883h3.35l-21.544-31.24,1.678-2.293,24.536,33.533h10.408v-14.4l9.049,14.4h3.257l-10.659-16.959,1.454-1.987,12.96,18.946h3.342l-14.575-21.306,2.008-2.744,16.288,24.05h3.331l-17.89-26.414,1.807-2.469,19.919,28.883h3.35l-21.544-31.24,1.678-2.293,24.536,33.533h10.408v-14.4l9.049,14.4h3.257l-10.659-16.959,1.454-1.987,12.96,18.946h3.342l-14.575-21.306,2.009-2.744,16.288,24.05h3.331l-17.889-26.414,1.807-2.469,19.919,28.883h3.35l-21.544-31.24,1.678-2.293L1475,38.172h10.408v-14.4l9.049,14.4h3.257l-10.658-16.959,1.454-1.987,12.96,18.946h3.342l-14.575-21.306,2.008-2.744,16.289,24.05h3.331l-17.889-26.414,1.807-2.469L1515.7,38.172h3.35l-21.545-31.24,1.678-2.293,24.536,33.533h10.408v-14.4l9.049,14.4h3.257l-10.659-16.959,1.454-1.987,12.96,18.946h3.342l-14.575-21.306,2.009-2.744,16.289,24.05h3.331L1542.7,11.758l1.807-2.469,19.919,28.883h3.35l-21.544-31.24,1.678-2.293,24.536,33.533h10.408v-14.4l9.049,14.4h3.257L1584.5,21.213l1.454-1.987,12.96,18.946h3.342l-14.575-21.306,2.008-2.744,16.288,24.05h3.331L1591.42,11.758l1.807-2.469,19.919,28.883h3.35l-21.545-31.24,1.678-2.293,24.536,33.533h10.408v-14.4l9.048,14.4h3.257l-10.659-16.959,1.454-1.987,12.96,18.946h3.342L1636.4,16.866l2.009-2.744,16.288,24.05h3.331l-17.89-26.414,1.807-2.469,19.919,28.883h3.35l-21.544-31.24,1.678-2.293,24.536,33.533H1680.3v-14.4l9.049,14.4h3.257l-10.658-16.959,1.454-1.987,12.96,18.946h3.342l-14.575-21.306,2.008-2.744,16.288,24.05h3.331l-17.889-26.414,1.807-2.469,19.919,28.883h3.35L1692.4,6.932l1.679-2.293,24.536,33.533h10.408v-14.4l9.049,14.4h3.257l-10.658-16.959,1.454-1.987,12.96,18.946h3.342l-14.575-21.306,2.009-2.744,16.289,24.05h3.331l-17.889-26.414,1.807-2.469,19.919,28.883h3.35L1741.12,6.932,1742.8,4.64l24.536,33.533h10.408v-14.4l9.048,14.4h3.257L1779.39,21.213l1.454-1.987,12.96,18.946h3.342l-14.575-21.306,2.009-2.744,16.288,24.05h3.331L1786.31,11.758l1.807-2.469,19.919,28.883h3.35l-21.545-31.24,1.678-2.293,24.536,33.533h10.408v-14.4l9.048,14.4h3.257l-10.658-16.959,1.454-1.987,12.96,18.946h3.342l-14.575-21.306,2.008-2.744,16.288,24.05h3.331l-17.89-26.414,1.807-2.469,19.919,28.883h3.35l-21.544-31.24,1.679-2.293,24.536,33.533h10.408v-14.4l9.049,14.4h3.257l-10.658-16.959,1.454-1.987,10.7,15.64V29.981l-8.972-13.115,2.009-2.744,6.963,10.281V19.484l-5.233-7.726,1.807-2.469,3.426,4.967V9.4l-1.7-2.466,1.679-2.293.022.031V0l-24.376,32.646L1862.677,30,1883.685.021h-3.368L1860.956,27.65l-2.015-2.754L1876.65.021h-3.385l-16.039,22.53-1.478-2.02L1869.456.021h-3.316l-12.125,18.141-1.915-2.617L1862.777.021h-11.031V15.689L1840.266,0,1815.89,32.646,1813.954,30,1834.962.021h-3.368L1812.234,27.65l-2.015-2.754L1827.928.021h-3.385L1808.5,22.551l-1.478-2.02L1820.733.021h-3.316l-12.125,18.141-1.915-2.617L1814.054.021h-11.031V15.689L1791.543,0l-24.376,32.646L1765.232,30,1786.239.021h-3.368l-19.36,27.628L1761.5,24.9,1779.205.021h-3.385l-16.039,22.53-1.478-2.02L1772.011.021h-3.316L1756.57,18.163l-1.915-2.617L1765.332.021H1754.3V15.689L1742.82,0l-24.376,32.646L1716.509,30,1737.517.021h-3.367L1714.789,27.65l-2.015-2.754L1730.483.021H1727.1l-16.039,22.53-1.478-2.02L1723.288.021h-3.316l-12.125,18.141-1.915-2.617L1716.609.021h-11.032V15.689L1694.1,0l-24.376,32.646L1667.786,30,1688.794.021h-3.368L1666.066,27.65l-2.015-2.754L1681.76.021h-3.385l-16.039,22.53-1.478-2.02L1674.566.021h-3.316l-12.125,18.141-1.916-2.617L1667.887.021h-11.031V15.689L1645.375,0,1621,32.646,1619.064,30,1640.072.021H1636.7L1617.344,27.65l-2.015-2.754L1633.038.021h-3.385l-16.039,22.53-1.478-2.02L1625.843.021h-3.316L1610.4,18.163l-1.915-2.617L1619.164.021h-11.031V15.689L1596.653,0l-24.376,32.646L1570.341,30,1591.349.021h-3.368l-19.36,27.628-2.015-2.754L1584.315.021h-3.385l-16.039,22.53-1.478-2.02L1577.121.021H1573.8l-12.125,18.141-1.915-2.617L1570.442.021H1559.41V15.689L1547.93,0l-24.376,32.646L1521.619,30,1542.627.021h-3.368L1519.9,27.65l-2.015-2.754L1535.593.021h-3.385l-16.039,22.53-1.478-2.02L1528.4.021h-3.316l-12.125,18.141-1.915-2.617L1521.719.021h-11.032V15.689L1499.208,0l-24.376,32.646L1472.9,30,1493.9.021h-3.368l-19.36,27.628-2.015-2.754L1486.87.021h-3.385l-16.039,22.53-1.478-2.02L1479.675.021h-3.316l-12.125,18.141-1.915-2.617L1473,.021h-11.032V15.689L1450.485,0l-24.376,32.646L1424.174,30,1445.182.021h-3.368L1422.453,27.65l-2.015-2.754L1438.147.021h-3.385l-16.039,22.53-1.478-2.02L1430.953.021h-3.316l-12.125,18.141-1.915-2.617L1424.274.021h-11.031V15.689L1401.763,0l-24.376,32.646L1375.451,30,1396.459.021h-3.368l-19.36,27.628-2.015-2.754L1389.425.021h-3.385L1370,22.551l-1.478-2.02L1382.23.021h-3.316l-12.125,18.141-1.915-2.617L1375.551.021H1364.52V15.689L1353.04,0l-24.376,32.646L1326.729,30,1347.737.021h-3.368l-19.36,27.628-2.015-2.754L1340.7.021h-3.385l-16.039,22.53-1.478-2.02L1333.508.021h-3.316l-12.125,18.141-1.915-2.617L1326.829.021H1315.8V15.689L1304.318,0l-24.376,32.646L1278.006,30,1299.014.021h-3.367L1276.286,27.65l-2.015-2.754L1291.98.021h-3.385l-16.039,22.53-1.478-2.02L1284.785.021h-3.316l-12.125,18.141-1.915-2.617L1278.106.021h-11.032V15.689L1255.595,0l-24.376,32.646L1229.284,30,1250.292.021h-3.367L1227.563,27.65l-2.015-2.754L1243.257.021h-3.385l-16.039,22.53-1.478-2.02L1236.063.021h-3.316l-12.125,18.141-1.915-2.617L1229.384.021h-11.031V15.689L1206.872,0,1182.5,32.646,1180.561,30,1201.569.021H1198.2L1178.841,27.65l-2.015-2.754L1194.535.021h-3.385l-16.039,22.53-1.478-2.02L1187.34.021h-3.316L1171.9,18.163l-1.915-2.617L1180.661.021H1169.63V15.689L1158.15,0l-24.376,32.646L1131.839,30,1152.846.021h-3.368l-19.36,27.628L1128.1,24.9,1145.812.021h-3.385l-16.039,22.53-1.478-2.02L1138.618.021H1135.3l-12.125,18.141-1.915-2.617L1131.939.021h-11.031V15.689L1109.427,0l-24.376,32.646L1083.116,30,1104.124.021h-3.367L1081.4,27.65l-2.015-2.754L1097.09.021H1093.7l-16.039,22.53-1.478-2.02L1089.9.021h-3.316l-12.125,18.141-1.915-2.617L1083.216.021h-11.032V15.689L1060.7,0l-24.376,32.646L1034.393,30,1055.4.021h-3.367L1032.673,27.65l-2.015-2.754L1048.367.021h-3.385l-16.039,22.53-1.478-2.02L1041.173.021h-3.316l-12.125,18.141-1.915-2.617L1034.494.021h-11.031V15.689L1011.982,0,987.606,32.646,985.671,30,1006.679.021h-3.368L983.951,27.65,981.936,24.9,999.645.021h-3.385L980.22,22.551l-1.478-2.02L992.45.021h-3.316L977.009,18.163l-1.915-2.617L985.771.021H974.74V15.689L963.26,0,938.884,32.646,936.948,30,957.956.021h-3.368L935.228,27.65,933.213,24.9,950.922.021h-3.385L931.5,22.551l-1.478-2.02L943.728.021h-3.316L928.287,18.163l-1.915-2.617L937.049.021H926.017V16.084L914.248,0,889.873,32.646,887.937,30,908.945.021h-3.368L886.217,27.65,884.2,24.9,901.911.021h-3.385l-16.039,22.53-1.478-2.02L894.716.021H891.4L879.275,18.163l-1.915-2.617L888.037.021H877.006V15.689L865.526,0,841.15,32.646,839.214,30,860.222.021h-3.367L837.494,27.65,835.479,24.9,853.188.021H849.8l-16.039,22.53-1.478-2.02L845.994.021h-3.316L830.553,18.163l-1.915-2.617L839.315.021H828.283V15.689L816.8,0,792.427,32.646,790.492,30,811.5.021h-3.367L788.772,27.65,786.757,24.9,804.466.021H801.08l-16.039,22.53-1.478-2.02L797.271.021h-3.316L781.83,18.163l-1.915-2.617L790.592.021H779.561V15.689L768.081,0,743.7,32.646,741.769,30,762.777.021H759.41L740.049,27.65,738.034,24.9,755.743.021h-3.385l-16.039,22.53-1.478-2.02L748.549.021h-3.316L733.108,18.163l-1.915-2.617L741.87.021H730.838V15.689L719.358,0,694.982,32.646,693.047,30,714.055.021h-3.367L691.327,27.65,689.312,24.9,707.021.021h-3.385L687.6,22.551l-1.478-2.02L699.826.021H696.51L684.385,18.163l-1.915-2.617L693.147.021H682.116V15.689L670.636,0,646.26,32.646,644.324,30,665.332.021h-3.367L642.6,27.65,640.589,24.9,658.3.021h-3.385l-16.039,22.53-1.478-2.02L651.1.021h-3.316L635.663,18.163l-1.915-2.617L644.425.021H633.393V15.689L621.913,0,597.537,32.646,595.6,30,616.61.021h-3.367L593.882,27.65,591.867,24.9,609.575.021H606.19l-16.039,22.53-1.478-2.02L602.381.021h-3.316L586.94,18.163l-1.915-2.617L595.7.021H584.67V15.689L573.19,0,548.815,32.646,546.879,30,567.887.021H564.52L545.159,27.65,543.144,24.9,560.853.021h-3.385l-16.039,22.53-1.478-2.02L553.658.021h-3.316L538.217,18.163,536.3,15.545,546.979.021H535.948V15.689L524.468,0,500.092,32.646,498.157,30,519.165.021H515.8L496.436,27.65,494.422,24.9,512.13.021h-3.385l-16.039,22.53-1.478-2.02L504.936.021H501.62L489.495,18.163l-1.915-2.617L498.257.021H487.225V15.689L475.745,0,451.37,32.646,449.434,30,470.442.021h-3.367L447.714,27.65,445.7,24.9,463.408.021h-3.385l-16.039,22.53-1.478-2.02L456.213.021H452.9L440.772,18.163l-1.915-2.617L449.534.021H438.5V15.689L427.023,0,402.647,32.646,400.712,30,421.719.021h-3.368L398.991,27.65,396.977,24.9,414.685.021H411.3l-16.039,22.53-1.478-2.02L407.491.021h-3.316L392.05,18.163l-1.915-2.617L400.812.021H389.78V15.689L378.3,0,353.925,32.646,351.989,30,373,.021h-3.368L350.269,27.65,348.254,24.9,365.963.021h-3.385l-16.039,22.53-1.478-2.02L358.768.021h-3.316L343.327,18.163l-1.915-2.617L352.089.021H341.058V15.689L329.578,0,305.2,32.646,303.266,30,324.274.021h-3.368L301.546,27.65,299.531,24.9,317.24.021h-3.385l-16.039,22.53-1.478-2.02L310.046.021H306.73L294.6,18.163l-1.915-2.617L303.367.021H292.335V15.689L280.855,0,256.48,32.646,254.544,30,275.552.021h-3.367L252.824,27.65,250.809,24.9,268.518.021h-3.385l-16.039,22.53-1.478-2.02L261.323.021h-3.316L245.882,18.163l-1.915-2.617L254.644.021H243.613V15.689L232.133,0,207.757,32.646,205.821,30,226.829.021h-3.367L204.1,27.65,202.086,24.9,219.8.021H216.41l-16.039,22.53-1.478-2.02L212.6.021h-3.316L197.16,18.163l-1.915-2.617L205.922.021H194.89V15.689L183.41,0,159.034,32.646,157.1,30,178.107.021h-3.367L155.379,27.65,153.364,24.9,171.073.021h-3.385l-16.039,22.53-1.478-2.02L163.878.021h-3.316L148.437,18.163l-1.915-2.617L157.2.021H146.168V15.689L134.688,0,110.312,32.646,108.376,30,129.384.021h-3.368L106.656,27.65,104.641,24.9,122.35.021h-3.385l-16.039,22.53-1.478-2.02L115.156.021H111.84L99.715,18.163,97.8,15.545,108.477.021H97.445V15.689L85.965,0,61.589,32.646,59.654,30,80.662.021H77.294L57.934,27.65,55.919,24.9,73.627.021H70.242L54.2,22.551l-1.478-2.02L66.433.021H63.117L50.992,18.163l-1.915-2.617L59.754.021H48.723V15.689L37.243,0,12.867,32.646,10.931,30,31.939.021H28.572L9.211,27.65,7.2,24.9,24.9.021H21.52L5.48,22.551,4,20.531,17.71.021H14.395L2.27,18.163.354,15.545,11.031.021H0V15.689Z" fill="#cc3e00"/></svg>