<svg xmlns="http://www.w3.org/2000/svg" width="450" height="146.943"><g fill="#1d0000"><path d="M112.326 65.666a1.639 1.639 0 01-.362 0H86.617q-.122 7.694-.347 15.387c-2.008-.351-4.022-.7-6.041-.982l-.033-12.892c-2.148.01-4.295.124-6.443.213-.332 4.025-.492 8.061-.546 12.1-4.034-.084-8.1.2-12.118.319l-5.687.169q.108-6.752.375-13.5c-2.376-.036-4.752-.074-7.125.024.346 4.546.572 9.1.714 13.657l-18.166.541c-.124-4.13-.123-8.264.027-12.394.019-.541.045-1.082.071-1.623H26.65c.022 1.885.161 3.771.284 5.651.186 2.843.181 5.683.193 8.528a1.582 1.582 0 00-.257.061 97.378 97.378 0 01-16.129 3.715q-.077-2.836-.157-5.671-.182-6.249-.395-12.5a46.105 46.105 0 01-6.367-.122l.148 26.474c.061 10.835.208 21.675.039 32.51-.095 6.062-.308 12.122-.737 18.17a.378.378 0 00.233.4c.143 0 .286-.012.429-.019a.521.521 0 00.07-.038h.624c1.942-.123 3.88-.359 5.828-.477.449-.027.9-.049 1.35-.068q-.109-12.015-.312-24.03 4.18.105 8.359.176-.126 11.9-.391 23.792l1.413.007c.713 0 1.427.012 2.14.018q-.032-9.387.234-18.773.072-2.5.168-5 2.7.036 5.407.062l-.493 20.38-.081 3.394 3.656.056-.068-19.078-.017-4.729q3.55.018 7.1.011.135 11.955.434 23.907c.644.008 1.287.019 1.931.024.818.008 1.636.008 2.453.012q-.372-9.592.111-19.191c.081-1.591.186-3.18.3-4.769 1.863-.013 3.726-.037 5.588-.06.04 2.584.094 5.168.179 7.751.181 5.429.482 10.855.976 16.264q3.518-.022 7.034-.07-1.147-12-1.784-24.049 3.75-.072 7.5-.171l.058 24.137 4.2-.065q-.29-9.234-.216-18.475.026-2.854.088-5.709c2.014-.061 4.027-.134 6.04-.208a201.712 201.712 0 01-.317 9.488 142.3 142.3 0 00-.447 14.827q2.659-.037 5.317-.066c.538-.006 1.076-.008 1.615-.011l.947-.012c-.777-9.6-.585-19.269-.609-28.886l-.076-29.822q2.953.293 5.916.471l-.049 1.56c-.068 1.994-.141 3.17-.22 5.071 1.822.134 3.647.21 5.474.247 4.012.081 8.024-.01 12.036-.007.764 0 1.528.01 2.292.022v-6.578s3.676 1.006 3.676 1.618v4.796c1.719.018 3.437.123 5.156.139.3-7.109.6-13.415.9-20.579l.214-5.107c-.007-.14-.011-.28-.019-.42zm-85.125 19.2c.031.732.069 1.462.129 2.192l-7.8-.375zm-.706 5.35l3.21.3c-2.563 3.083-5.136 6.16-7.761 9.191q-2.656-3.382-5.24-6.821-1.427-1.91-2.827-3.84zm-15.139 20.946q-.192-10.1-.453-20.206l8.8 11.306a218.609 218.609 0 01-4.946 5.422q-1.675 1.767-3.401 3.478zm7.759 4.332q-3.736-.082-7.471-.206 4.866-5.4 9.9-10.652l4.9 6.292 3.672 4.72q-5.502-.037-11.001-.154zm11.453-5.2q-3.394-4.008-6.667-8.118 1.846-1.9 3.712-3.786a40.112 40.112 0 003.277-3.437q-.272 7.668-.322 15.342zM31.5 87.26q-.073-1.141-.13-2.284 7.474-.208 14.942-.573c1.054-.052 2.108-.11 3.162-.166q.042 1.956.071 3.912-7.287-.365-14.574-.722zm6.97 7.831l-2.827-4.1c2.229.132 4.456.189 6.69.239q2.222.049 4.43.24-2.807 3.781-5.544 7.612-1.374-1.992-2.748-3.99zm.5 7.176q-1.636 2.331-3.247 4.679c-.523.764-1.039 1.533-1.556 2.3l.094-14.413q2.26 3.776 4.707 7.435zm-3.34 13.4h-2.027c2.164-3.263 4.337-6.522 6.672-9.667.215-.29.435-.576.654-.863q2.086 2.988 4.3 5.888c1.153 1.511 2.325 3.009 3.494 4.508q-6.549.122-13.094.133zm7.651-13.576c.254-.331.507-.662.757-1 1.145-1.537 2.171-3.155 3.229-4.752.735-1.108 1.493-2.2 2.329-3.232 0 .456.01.912.012 1.368.031 5.637.021 11.274.05 16.911q-3.184-4.655-6.378-9.296zm12.07-17.77l14.469-.7 3.364-.163q.008 3.35.083 6.7-7.228-.727-14.483-1.118-1.727-.092-3.456-.161-.001-2.28.022-4.559zm13.107 8.514q-1.963 2.711-4.14 5.257-2.149-2.841-4.232-5.732 4.186.21 8.371.471zm-12.71 17.773q-.339-9.01-.4-18.027 3.437 4.692 7.036 9.263zm4.116 4.43l-2.193-.045q3.39-5.208 7.02-10.255 2.456 3.059 4.975 6.066 1.918 2.277 3.878 4.518zm7.135-13.449a268.33 268.33 0 012.935-3.9q1.682-2.183 3.413-4.327c.022.887.044 1.774.07 2.66.136 4.638.275 9.275.35 13.913q-3.459-4.11-6.769-8.347z"/><path d="M115.063 98.296q-.02-1.088-.029-2.175l-27.361-.291v21.045h2.268l4.162-6.9 3.633 6.856c.425-.008.849-.018 1.273-.029l.411-.011.241-.006.274-.007h.01c.482-.014.964-.029 1.445-.047l5.721-7.746 6.342 8.456c.5.012 1.005.028 1.508.045-.006-.973-.081-1.944-.138-2.915l-6.121-7.74 6.3-8.535zM90.27 111.111q.077-4.183 0-8.365l2.415 4.557c-.935 1.48-1.785 2.83-2.415 3.808zm.452-12.846l7.382.368c-.927 1.491-2.4 3.863-3.893 6.243zm8.333 15.793l-3.46-6.558 3.673-6.092zm2.586-1.66q.1-5.214.209-10.428l3.783 5.043zm5.547-7.482l-4.8-6.07 8.969.447zM102.377 144.004q2.58-.029 5.16-.064l.105-14.3.031-4.285c6.789.152 13.579.229 20.368.161l.378 18.147q1.747-.017 3.494-.029a307.051 307.051 0 01-.237-14.458c.01-1.237.032-2.474.058-3.711q4.365-.078 8.728-.253.517 9.188.629 18.392 2.136 0 4.272.016a135.859 135.859 0 01.026-13.867c.068-1.261.164-2.52.27-3.778q3.334-.09 6.667-.09l.238 17.819q1.915.033 3.828.08c0-2.062-.012-4.125-.048-6.186q-.1-5.845-.382-11.686 6.523.1 13.038.541.017 8.591-.049 17.181a85.68 85.68 0 013.358-.147l.075-13.682.034-6.263a.439.439 0 00-.065-.239v-.975l-51.5-.329s-25.949-.456-33.239-.582a25.943 25.943 0 00.176 3.343c4.974.17 9.948.336 14.924.471q-.167 9.387-.337 18.773zM21.364 19.151h14.14l.315-2.426 7.074 3.1-14-19.828-15.578 18.887 8.652-2.158zM30.396 27.205c2.876.231 5.753.447 8.633.628l-3.522-6.047h-14.94l-2.595 4.732c4.135.319 8.312.359 12.424.687zM40.618 30.563c-3.609-.21-7.215-.48-10.819-.771-4.379-.354-8.811-.4-13.2-.78L.002 59.287l57.783.737zM141.774 24.733c4.784.33 9.566.681 14.352.969v-3.548l8.883 3.982-14.09-21.135-19.297 22.053 11.027-5.82zM160.195 34.889c-7.462-.591-14.938-1.027-22.371-1.909l-14.508 27.585 24.552.178 25.49 1.475zM158.879 32.158l-1.814-3.765c-5.421-.315-10.838-.722-16.255-1.091l-1.685 3.2c6.564.753 13.164 1.157 19.754 1.656zM121.173 51.897c1.73-2.8 3.42-5.629 4.978-8.53l-42.548.3-28.964-.869c3.161 5.724 6.845 11.13 10.5 16.552h51.325c1.431-2.549 3.186-4.986 4.709-7.453zM172.597 112.604q-.032-.946-.037-1.893-.042-1.266-.041-2.532c0-3.211.071-6.421.081-9.631a511.7 511.7 0 00-.285-19.47q-.184-5.3-.51-10.6c-2.352-.116-4.7-.321-7.065-.4-4.555-.15-9.131-.1-13.688-.129-9.467-.061-18.926-.091-28.389-.41-.011.585-.016 1.169-.057 1.752-.013.193-.031.386-.047.58-.2 5.556-.509 11.107-.8 16.659-.347 6.7-.662 13.4-.721 20.1-.033 3.757.016 6.289.182 10.042a.45.45 0 00.072.225 28.954 28.954 0 012.5-.009c6.039-.418 12.1-.255 18.15-.141l19.882.373 5.582.1a22.5 22.5 0 005.333-.223c.01 0 .018-.007.028-.01q-.009-.986-.009-1.973c-.065-1.21-.122-1.202-.161-2.41zm-32.328-17.382l-10.773-.69.359-21.058 10.414 1.225zm22.121.093h-11.228l1.053-21.228h11.086z"/></g><path d="M231.631 98.617a.269.269 0 01.2-.08h2.123a.274.274 0 01.277.276v15.6a.276.276 0 01-.277.277h-2.056a.331.331 0 01-.324-.184l-6.646-10.897c-.031-.046-.061-.066-.092-.058s-.046.043-.046.1l.046 10.752a.276.276 0 01-.276.277h-2.124a.275.275 0 01-.276-.277V98.809a.273.273 0 01.276-.276h2.053a.332.332 0 01.323.184l6.622 10.891c.031.046.062.066.092.057s.046-.042.046-.1l-.022-10.752a.268.268 0 01.081-.196zM239.453 113.947a4.876 4.876 0 01-1.835-2.561 9.279 9.279 0 01-.023-5.261 4.741 4.741 0 011.845-2.515 5.466 5.466 0 013.162-.9 5.144 5.144 0 013.033.9 4.806 4.806 0 011.811 2.492 7.489 7.489 0 01.415 2.63 8.309 8.309 0 01-.392 2.631 4.962 4.962 0 01-1.823 2.573 5.1 5.1 0 01-3.068.934 5.264 5.264 0 01-3.125-.923zm4.591-1.868a2.728 2.728 0 00.889-1.362 6.83 6.83 0 00.23-1.938 6.4 6.4 0 00-.23-1.938 2.507 2.507 0 00-.877-1.35 2.449 2.449 0 00-1.523-.473 2.377 2.377 0 00-1.477.473 2.633 2.633 0 00-.9 1.35 8.218 8.218 0 000 3.876 2.536 2.536 0 00.888 1.362 2.457 2.457 0 001.534.484 2.289 2.289 0 001.466-.482zM250.713 114.609a.262.262 0 01-.081-.2v-15.6a.275.275 0 01.277-.276h2.123a.275.275 0 01.277.276v8.33a.093.093 0 00.046.092c.031.015.061 0 .092-.046l3.738-4.13a.485.485 0 01.346-.162h2.445c.153 0 .231.055.231.162a.4.4 0 01-.07.184l-2.93 3.507a.127.127 0 00-.023.162l3.462 7.452a.364.364 0 01.046.139c0 .123-.085.184-.254.184H258.2a.327.327 0 01-.324-.208l-2.514-5.86a.108.108 0 00-.081-.057.067.067 0 00-.081.034l-1.845 2.122a.379.379 0 00-.046.162v3.53a.277.277 0 01-.277.277h-2.123a.261.261 0 01-.196-.074zM272.111 108.758l-.023.715a.245.245 0 01-.277.277h-7.221a.1.1 0 00-.116.115 3.318 3.318 0 00.208 1.039 2.536 2.536 0 002.7 1.684 2.91 2.91 0 002.493-1.292.268.268 0 01.23-.139.219.219 0 01.161.07l1.431 1.176a.246.246 0 01.069.369 4.707 4.707 0 01-1.9 1.569 6.18 6.18 0 01-2.642.554 5.539 5.539 0 01-3.057-.808 4.649 4.649 0 01-1.834-2.261 9.069 9.069 0 01-.531-3.46 7.029 7.029 0 01.276-2.169 4.626 4.626 0 011.741-2.55 5.079 5.079 0 013.08-.935q4.546 0 5.123 4.752a8.237 8.237 0 01.089 1.294zm-6.634-3.311a2.26 2.26 0 00-.8 1.188 4.029 4.029 0 00-.185 1.016c-.031.077 0 .115.093.115h4.683a.1.1 0 00.115-.115 4.356 4.356 0 00-.138-.877 2.241 2.241 0 00-.819-1.292 2.48 2.48 0 00-1.535-.462 2.288 2.288 0 00-1.413.427zM279.967 114.609a.262.262 0 01-.081-.2v-15.6a.275.275 0 01.277-.276h2.122a.275.275 0 01.277.276v6.9a.091.091 0 00.046.092.074.074 0 00.092-.023l6-7.083a.436.436 0 01.345-.161h2.4c.154 0 .231.054.231.161a.4.4 0 01-.069.184l-5.284 6.483c-.046.062-.055.116-.023.162l5.676 8.836a.964.964 0 01.046.162c0 .108-.077.162-.231.162h-2.423a.363.363 0 01-.323-.184l-4.568-7.107c-.062-.092-.115-.1-.161-.023l-1.707 1.984a.36.36 0 00-.046.161v4.894a.277.277 0 01-.277.277h-2.122a.264.264 0 01-.197-.077zM295.404 113.947a4.865 4.865 0 01-1.834-2.561 9.272 9.272 0 01-.023-5.261 4.738 4.738 0 011.846-2.515 5.463 5.463 0 013.161-.9 5.147 5.147 0 013.034.9 4.809 4.809 0 011.811 2.492 7.507 7.507 0 01.415 2.63 8.3 8.3 0 01-.392 2.631 4.962 4.962 0 01-1.823 2.573 5.1 5.1 0 01-3.068.934 5.263 5.263 0 01-3.127-.923zm4.591-1.868a2.729 2.729 0 00.888-1.362 6.79 6.79 0 00.231-1.938 6.365 6.365 0 00-.231-1.938 2.506 2.506 0 00-.877-1.35 2.448 2.448 0 00-1.522-.473 2.376 2.376 0 00-1.477.473 2.628 2.628 0 00-.9 1.35 8.229 8.229 0 000 3.876 2.54 2.54 0 00.888 1.362 2.459 2.459 0 001.535.484 2.291 2.291 0 001.465-.482zM308.496 101.109a6.639 6.639 0 01-.761-.335 3.652 3.652 0 00-.334-.173 3.46 3.46 0 00-.45-.184 1.238 1.238 0 00-.369-.058 1.687 1.687 0 00-.681.127 1.633 1.633 0 00-.542.4.332.332 0 01-.231.116.2.2 0 01-.161-.093l-.739-.785a.254.254 0 01-.046-.368 2.694 2.694 0 01.957-.97 2.53 2.53 0 011.3-.346 2.151 2.151 0 01.785.127c.215.085.5.219.853.4.293.154.516.262.67.323a1.274 1.274 0 00.484.093 1.421 1.421 0 001.154-.577.318.318 0 01.207-.115.221.221 0 01.185.092l.669.784a.325.325 0 01.07.346 2.2 2.2 0 01-.912.946 2.736 2.736 0 01-1.373.346 2.259 2.259 0 01-.735-.096zm-1.973 13.5a.263.263 0 01-.081-.2v-11.235a.265.265 0 01.081-.2.268.268 0 01.2-.081h2.122a.276.276 0 01.277.277v11.236a.277.277 0 01-.277.277h-2.125a.264.264 0 01-.196-.077z" fill="#cc3e00"/><path d="M322.213 112.115a.223.223 0 01.035-.242l2.446-3.6a.115.115 0 000-.138l-2.446-3.6a.356.356 0 01-.046-.161c0-.123.077-.185.23-.185h1.938a.364.364 0 01.323.185l2.423 3.646a.249.249 0 01.069.184.4.4 0 01-.069.185l-2.423 3.646a.363.363 0 01-.323.184h-1.935a.229.229 0 01-.222-.104zm3.853 0a.225.225 0 01.035-.242l2.445-3.6a.115.115 0 000-.138l-2.445-3.6a.368.368 0 01-.046-.161c0-.123.077-.185.231-.185h1.938a.362.362 0 01.323.185l2.423 3.646a.249.249 0 01.069.184.4.4 0 01-.069.185l-2.423 3.646a.361.361 0 01-.323.184h-1.938a.23.23 0 01-.22-.104z" fill="#1d0000"/><path d="M352.981 99.113a4.241 4.241 0 011.719 1.7 5.1 5.1 0 01.612 2.526 4.907 4.907 0 01-.623 2.492 4.215 4.215 0 01-1.764 1.673 5.692 5.692 0 01-2.642.588h-3.692a.1.1 0 00-.116.115v6.207a.276.276 0 01-.276.277h-2.123a.275.275 0 01-.276-.277v-15.62a.27.27 0 01.08-.2.267.267 0 01.2-.08h6.345a5.3 5.3 0 012.556.599zm-1.061 6.114a2.424 2.424 0 00.715-1.823 2.53 2.53 0 00-.715-1.868 2.56 2.56 0 00-1.892-.716h-3.438a.1.1 0 00-.116.115v4.868a.1.1 0 00.116.116h3.438a2.607 2.607 0 001.892-.691zM358.945 113.947a4.863 4.863 0 01-1.834-2.561 9.273 9.273 0 01-.023-5.261 4.737 4.737 0 011.846-2.515 5.463 5.463 0 013.161-.9 5.146 5.146 0 013.034.9 4.808 4.808 0 011.811 2.492 7.5 7.5 0 01.415 2.63 8.3 8.3 0 01-.392 2.631 4.963 4.963 0 01-1.823 2.573 5.1 5.1 0 01-3.068.934 5.263 5.263 0 01-3.127-.923zm4.591-1.868a2.731 2.731 0 00.888-1.362 6.8 6.8 0 00.231-1.938 6.375 6.375 0 00-.231-1.938 2.507 2.507 0 00-.877-1.35 2.448 2.448 0 00-1.522-.473 2.377 2.377 0 00-1.477.473 2.631 2.631 0 00-.9 1.35 8.246 8.246 0 000 3.876 2.542 2.542 0 00.888 1.362 2.458 2.458 0 001.535.484 2.291 2.291 0 001.461-.482zM376.907 103.059a.285.285 0 01.138.345l-.392 2.078q-.023.276-.323.161a2.564 2.564 0 00-.807-.115 3.5 3.5 0 00-.461.023 2.378 2.378 0 00-1.615.68 2.206 2.206 0 00-.646 1.649v6.53a.278.278 0 01-.277.277h-2.123a.277.277 0 01-.277-.277v-11.237a.277.277 0 01.277-.277h2.123a.277.277 0 01.277.277v1.038c0 .062.012.1.035.1s.05-.011.08-.057a3.047 3.047 0 012.7-1.5 2.666 2.666 0 011.291.305zM385.404 104.986a.268.268 0 01-.2.081h-2.354a.1.1 0 00-.115.115v5.56a1.777 1.777 0 00.381 1.269 1.628 1.628 0 001.211.392h.693a.276.276 0 01.277.277v1.73a.285.285 0 01-.277.3l-1.2.023a4.817 4.817 0 01-2.723-.622 2.726 2.726 0 01-.923-2.354v-6.576a.1.1 0 00-.115-.115h-1.317a.275.275 0 01-.276-.277v-1.615a.275.275 0 01.276-.277h1.317a.1.1 0 00.115-.115v-2.7a.274.274 0 01.276-.276h2.008a.275.275 0 01.276.276v2.7a.1.1 0 00.115.115h2.354a.276.276 0 01.277.277v1.615a.268.268 0 01-.076.197zM395.145 102.978a.269.269 0 01.2-.081h2.1a.277.277 0 01.277.277v11.236a.278.278 0 01-.277.277h-2.1a.277.277 0 01-.277-.277v-.738a.093.093 0 00-.046-.093c-.031-.014-.062 0-.092.046a3.363 3.363 0 01-2.838 1.223 4.368 4.368 0 01-2.941-1.015 3.584 3.584 0 01-1.189-2.884v-7.776a.264.264 0 01.081-.2.268.268 0 01.2-.081h2.123a.276.276 0 01.277.277v7.014a2.529 2.529 0 00.565 1.73 1.988 1.988 0 001.58.646 2.2 2.2 0 001.661-.646 2.385 2.385 0 00.623-1.73v-7.014a.267.267 0 01.073-.191zM408.113 102.978a.266.266 0 01.2-.081h2.123a.277.277 0 01.277.277v10.729a4.815 4.815 0 01-1.65 4.119 7.048 7.048 0 01-4.326 1.234q-.714 0-1.407-.069a.261.261 0 01-.254-.3l.069-1.891q0-.254.323-.254a11.848 11.848 0 001.2.069 3.946 3.946 0 002.55-.681 2.834 2.834 0 00.819-2.3v-.183c0-.046-.016-.072-.046-.08a.1.1 0 00-.092.034 3.479 3.479 0 01-2.677 1.016 5.164 5.164 0 01-2.745-.762 3.989 3.989 0 01-1.731-2.331 10.743 10.743 0 01-.3-2.792 9.005 9.005 0 01.368-2.93 4.466 4.466 0 011.592-2.25 4.323 4.323 0 012.654-.842 3.745 3.745 0 012.838 1.061c.031.046.062.062.092.046a.093.093 0 00.046-.092v-.554a.264.264 0 01.077-.193zm-.115 7.037q.035-.4.035-1.3 0-.876-.035-1.257a3.605 3.605 0 00-.15-.749 2.3 2.3 0 00-3.6-1.223 2.555 2.555 0 00-.831 1.223 5.485 5.485 0 00-.277 2.03 6.013 6.013 0 00.231 2.007 2.4 2.4 0 00.842 1.212 2.323 2.323 0 001.465.472 2.1 2.1 0 002.192-1.661 4.346 4.346 0 00.127-.754zM420.755 102.978a.268.268 0 01.2-.081h2.1a.276.276 0 01.277.277v11.236a.277.277 0 01-.277.277h-2.1a.278.278 0 01-.277-.277v-.738a.094.094 0 00-.046-.093c-.031-.014-.061 0-.092.046a3.364 3.364 0 01-2.838 1.223 4.368 4.368 0 01-2.942-1.015 3.585 3.585 0 01-1.188-2.884v-7.776a.276.276 0 01.277-.277h2.122a.277.277 0 01.277.277v7.014a2.529 2.529 0 00.565 1.73 1.988 1.988 0 001.58.646 2.2 2.2 0 001.661-.646 2.386 2.386 0 00.622-1.73v-7.014a.269.269 0 01.079-.195zM436.456 108.758l-.023.715a.245.245 0 01-.277.277h-7.221a.1.1 0 00-.116.115 3.293 3.293 0 00.208 1.039 2.536 2.536 0 002.7 1.684 2.909 2.909 0 002.493-1.292.269.269 0 01.23-.139.217.217 0 01.161.07l1.431 1.176a.247.247 0 01.069.369 4.707 4.707 0 01-1.9 1.569 6.181 6.181 0 01-2.642.554 5.542 5.542 0 01-3.058-.808 4.653 4.653 0 01-1.834-2.262 9.07 9.07 0 01-.53-3.46 7.024 7.024 0 01.277-2.169 4.627 4.627 0 011.742-2.549 5.078 5.078 0 013.08-.935q4.546 0 5.123 4.752a8.283 8.283 0 01.087 1.294zm-8.606-7.4a.248.248 0 01.046-.242l1.753-2.423a.376.376 0 01.323-.161h2.423a.376.376 0 01.323.161l1.754 2.423a.309.309 0 01.069.184c0 .108-.077.162-.23.162h-1.615a.36.36 0 01-.323-.185l-1.085-1.545a.134.134 0 00-.092-.047.074.074 0 00-.069.047l-1.085 1.545a.36.36 0 01-.323.185h-1.638c-.123.005-.2-.03-.231-.099zm1.973 4.084a2.259 2.259 0 00-.8 1.188 3.99 3.99 0 00-.185 1.016c-.031.077 0 .115.093.115h4.684a.1.1 0 00.115-.115 4.353 4.353 0 00-.138-.877 2.238 2.238 0 00-.819-1.292 2.479 2.479 0 00-1.535-.462 2.288 2.288 0 00-1.413.432zM440.759 114.4a3.95 3.95 0 01-1.7-1.177 2.611 2.611 0 01-.6-1.673v-.207a.277.277 0 01.277-.277h2.031a.276.276 0 01.277.277v.046a1.212 1.212 0 00.635 1 2.811 2.811 0 001.6.426 2.68 2.68 0 001.5-.38 1.123 1.123 0 00.576-.958.858.858 0 00-.472-.8 7.587 7.587 0 00-1.535-.565l-.877-.277a12.916 12.916 0 01-1.985-.738 3.957 3.957 0 01-1.361-1.073 2.67 2.67 0 01-.553-1.741 3.056 3.056 0 011.269-2.573 5.411 5.411 0 013.345-.958 6.3 6.3 0 012.469.449 3.791 3.791 0 011.638 1.247 3.006 3.006 0 01.576 1.81.275.275 0 01-.276.277h-1.961a.276.276 0 01-.277-.277 1.189 1.189 0 00-.588-1 2.8 2.8 0 00-1.6-.4 2.852 2.852 0 00-1.465.334 1.038 1.038 0 00-.565.935.911.911 0 00.542.842 9.6 9.6 0 001.811.635l.507.138a16.478 16.478 0 012.053.749 4.017 4.017 0 011.407 1.062 2.634 2.634 0 01.577 1.765 3 3 0 01-1.292 2.573 5.75 5.75 0 01-3.438.933 7 7 0 01-2.545-.424zM231.204 126.801a4.248 4.248 0 011.719 1.7 5.109 5.109 0 01.61 2.526 4.912 4.912 0 01-.622 2.492 4.211 4.211 0 01-1.766 1.673 5.692 5.692 0 01-2.642.588h-3.692a.1.1 0 00-.115.115v6.206a.266.266 0 01-.081.2.263.263 0 01-.2.081h-2.123a.275.275 0 01-.276-.277v-15.62a.274.274 0 01.276-.276h6.345a5.293 5.293 0 012.567.592zm-1.061 6.115a2.422 2.422 0 00.716-1.823 2.527 2.527 0 00-.716-1.869 2.557 2.557 0 00-1.892-.716h-3.437a.1.1 0 00-.115.115v4.868a.1.1 0 00.115.116h3.437a2.605 2.605 0 001.892-.691zM237.168 141.637a4.878 4.878 0 01-1.835-2.561 8.721 8.721 0 01-.393-2.63 8.606 8.606 0 01.37-2.631 4.735 4.735 0 011.845-2.515 5.465 5.465 0 013.161-.9 5.139 5.139 0 013.033.9 4.8 4.8 0 011.811 2.492 7.463 7.463 0 01.416 2.63 8.305 8.305 0 01-.392 2.631 4.971 4.971 0 01-1.823 2.573 5.1 5.1 0 01-3.068.934 5.265 5.265 0 01-3.125-.923zm4.591-1.869a2.732 2.732 0 00.889-1.362 6.828 6.828 0 00.23-1.937 6.4 6.4 0 00-.23-1.938 2.521 2.521 0 00-.877-1.35 2.452 2.452 0 00-1.523-.473 2.377 2.377 0 00-1.477.473 2.63 2.63 0 00-.9 1.35 8.245 8.245 0 000 3.876 2.539 2.539 0 00.888 1.362 2.459 2.459 0 001.535.484 2.29 2.29 0 001.466-.484zM255.131 130.743a.286.286 0 01.14.345l-.393 2.077q-.024.277-.324.161a2.554 2.554 0 00-.806-.115 3.51 3.51 0 00-.462.023 2.385 2.385 0 00-1.615.681 2.211 2.211 0 00-.646 1.649v6.53a.277.277 0 01-.277.277h-2.122a.263.263 0 01-.2-.081.266.266 0 01-.081-.2v-11.228a.276.276 0 01.277-.277h2.122a.268.268 0 01.2.081.263.263 0 01.081.2v1.038c0 .062.011.1.035.1s.049-.011.08-.057a3.048 3.048 0 012.7-1.5 2.665 2.665 0 011.291.296zM263.633 132.673a.269.269 0 01-.2.081h-2.354a.1.1 0 00-.115.115v5.56a1.781 1.781 0 00.38 1.269 1.628 1.628 0 001.213.392h.692a.276.276 0 01.276.277v1.73a.284.284 0 01-.276.3l-1.2.023a4.815 4.815 0 01-2.723-.623 2.726 2.726 0 01-.923-2.353v-6.576a.1.1 0 00-.115-.115h-1.312a.277.277 0 01-.277-.277v-1.615a.277.277 0 01.277-.277h1.315a.1.1 0 00.115-.115v-2.7a.269.269 0 01.081-.2.264.264 0 01.2-.08h2.008a.274.274 0 01.276.276v2.7a.1.1 0 00.115.115h2.354a.274.274 0 01.276.277v1.615a.27.27 0 01-.083.201zM273.368 130.666a.268.268 0 01.2-.081h2.1a.276.276 0 01.277.277v11.236a.268.268 0 01-.081.2.265.265 0 01-.2.081h-2.1a.265.265 0 01-.2-.081.268.268 0 01-.081-.2v-.738a.093.093 0 00-.046-.093c-.031-.015-.061 0-.093.046a3.362 3.362 0 01-2.838 1.223 4.365 4.365 0 01-2.941-1.015 3.583 3.583 0 01-1.189-2.884v-7.776a.277.277 0 01.277-.277h2.123a.276.276 0 01.277.277v7.014a2.53 2.53 0 00.566 1.73 1.987 1.987 0 001.58.646 2.2 2.2 0 001.661-.646 2.387 2.387 0 00.622-1.73v-7.014a.268.268 0 01.086-.195zM286.336 130.666a.266.266 0 01.2-.081h2.123a.276.276 0 01.277.277v10.729a4.814 4.814 0 01-1.65 4.119 7.046 7.046 0 01-4.326 1.234q-.715 0-1.407-.069a.26.26 0 01-.254-.3l.069-1.891c0-.17.107-.254.323-.254a11.756 11.756 0 001.2.069 3.948 3.948 0 002.55-.68 2.836 2.836 0 00.819-2.3v-.185c0-.046-.015-.073-.046-.08a.1.1 0 00-.092.034 3.48 3.48 0 01-2.677 1.016 5.166 5.166 0 01-2.745-.761 3.991 3.991 0 01-1.731-2.331 10.757 10.757 0 01-.3-2.792 9.006 9.006 0 01.368-2.93 4.465 4.465 0 011.592-2.25 4.322 4.322 0 012.654-.842 3.743 3.743 0 012.838 1.061c.031.046.061.062.092.046a.092.092 0 00.046-.092v-.554a.264.264 0 01.077-.193zm-.115 7.037q.034-.4.034-1.3 0-.876-.034-1.257a3.646 3.646 0 00-.15-.749 2.3 2.3 0 00-3.6-1.223 2.56 2.56 0 00-.831 1.223 5.489 5.489 0 00-.277 2.03 6.012 6.012 0 00.231 2.008 2.4 2.4 0 00.841 1.211 2.321 2.321 0 001.465.473 2.106 2.106 0 002.193-1.661 4.449 4.449 0 00.128-.755zM298.979 130.666a.268.268 0 01.2-.081h2.1a.277.277 0 01.277.277v11.236a.267.267 0 01-.081.2.264.264 0 01-.2.081h-2.1a.276.276 0 01-.277-.277v-.738a.092.092 0 00-.046-.093c-.03-.015-.061 0-.092.046a3.363 3.363 0 01-2.838 1.223 4.365 4.365 0 01-2.941-1.015 3.582 3.582 0 01-1.189-2.884v-7.776a.263.263 0 01.081-.2.267.267 0 01.2-.081h2.123a.276.276 0 01.277.277v7.014a2.528 2.528 0 00.565 1.73 1.987 1.987 0 001.58.646 2.2 2.2 0 001.661-.646 2.386 2.386 0 00.623-1.73v-7.014a.267.267 0 01.077-.195zM314.68 136.446l-.023.715a.245.245 0 01-.277.277h-7.221a.1.1 0 00-.116.115 3.317 3.317 0 00.208 1.039 2.536 2.536 0 002.7 1.684 2.91 2.91 0 002.493-1.292.269.269 0 01.23-.139.22.22 0 01.161.07l1.431 1.176a.247.247 0 01.069.37 4.71 4.71 0 01-1.9 1.569 6.178 6.178 0 01-2.642.554 5.543 5.543 0 01-3.057-.807 4.652 4.652 0 01-1.834-2.261 9.07 9.07 0 01-.531-3.461 7.043 7.043 0 01.276-2.169 4.627 4.627 0 011.742-2.549 5.078 5.078 0 013.08-.935q4.546 0 5.123 4.752a8.24 8.24 0 01.088 1.292zm-8.606-7.395a.249.249 0 01.046-.242l1.753-2.423a.375.375 0 01.323-.161h2.423a.376.376 0 01.323.161l1.753 2.423a.306.306 0 01.069.184q0 .162-.23.162h-1.615a.36.36 0 01-.323-.185l-1.085-1.545a.135.135 0 00-.092-.047.074.074 0 00-.069.047l-1.085 1.545a.36.36 0 01-.322.185h-1.638c-.123 0-.2-.035-.231-.104zm1.972 4.084a2.258 2.258 0 00-.8 1.188 4.031 4.031 0 00-.185 1.016c-.03.077 0 .115.093.115h4.683a.1.1 0 00.115-.115 4.367 4.367 0 00-.138-.877 2.24 2.24 0 00-.819-1.292 2.479 2.479 0 00-1.535-.462 2.287 2.287 0 00-1.413.427zM318.982 142.087a3.951 3.951 0 01-1.7-1.177 2.614 2.614 0 01-.6-1.673v-.207a.276.276 0 01.277-.277h2.031a.277.277 0 01.277.277v.046a1.21 1.21 0 00.634 1 2.811 2.811 0 001.6.426 2.675 2.675 0 001.5-.38 1.123 1.123 0 00.576-.958.858.858 0 00-.473-.8 7.63 7.63 0 00-1.535-.565l-.877-.277a12.848 12.848 0 01-1.984-.738 3.944 3.944 0 01-1.361-1.073 2.67 2.67 0 01-.553-1.741 3.056 3.056 0 011.269-2.573 5.411 5.411 0 013.345-.958 6.3 6.3 0 012.469.449 3.792 3.792 0 011.638 1.247 3.009 3.009 0 01.576 1.81.275.275 0 01-.276.277h-1.961a.277.277 0 01-.277-.277 1.19 1.19 0 00-.588-1 2.8 2.8 0 00-1.6-.4 2.852 2.852 0 00-1.465.334 1.038 1.038 0 00-.566.935.912.912 0 00.542.843 9.646 9.646 0 001.811.635l.507.138a16.426 16.426 0 012.053.75 4.014 4.014 0 011.407 1.061 2.637 2.637 0 01.577 1.765 3 3 0 01-1.292 2.573 5.747 5.747 0 01-3.438.934 7 7 0 01-2.543-.426z" fill="#cc3e00"/><path d="M338.895 139.803a.223.223 0 01.035-.242l2.446-3.6a.116.116 0 000-.138l-2.446-3.6a.361.361 0 01-.046-.161c0-.123.077-.185.23-.185h1.938a.364.364 0 01.323.185l2.423 3.646a.249.249 0 01.069.184.4.4 0 01-.069.185l-2.423 3.646a.364.364 0 01-.323.184h-1.938a.229.229 0 01-.219-.104zm3.853 0a.224.224 0 01.035-.242l2.446-3.6a.116.116 0 000-.138l-2.446-3.6a.371.371 0 01-.046-.161c0-.123.077-.185.231-.185h1.937a.362.362 0 01.323.185l2.423 3.646a.249.249 0 01.069.184.394.394 0 01-.069.185l-2.423 3.646a.362.362 0 01-.323.184h-1.937a.229.229 0 01-.22-.104z" fill="#1d0000"/><path d="M370.088 126.305a.266.266 0 01.2-.08h2.122a.275.275 0 01.277.276v15.6a.277.277 0 01-.277.277h-2.053a.331.331 0 01-.323-.184l-6.645-10.891c-.031-.046-.062-.065-.092-.058s-.046.042-.046.1l.046 10.752a.267.267 0 01-.081.2.265.265 0 01-.2.081h-2.122a.276.276 0 01-.277-.277v-15.6a.275.275 0 01.277-.276h2.053a.331.331 0 01.323.184l6.622 10.891c.031.046.061.066.092.057s.046-.042.046-.1l-.023-10.752a.266.266 0 01.081-.2zM377.911 141.637a4.865 4.865 0 01-1.834-2.561 9.275 9.275 0 01-.023-5.261 4.739 4.739 0 011.846-2.515 5.462 5.462 0 013.161-.9 5.147 5.147 0 013.034.9 4.811 4.811 0 011.811 2.492 7.5 7.5 0 01.415 2.63 8.3 8.3 0 01-.393 2.631 4.963 4.963 0 01-1.823 2.573 5.1 5.1 0 01-3.068.934 5.266 5.266 0 01-3.126-.923zm4.591-1.869a2.726 2.726 0 00.888-1.362 6.793 6.793 0 00.231-1.937 6.371 6.371 0 00-.231-1.938 2.507 2.507 0 00-.877-1.35 2.448 2.448 0 00-1.522-.473 2.376 2.376 0 00-1.477.473 2.628 2.628 0 00-.9 1.35 8.228 8.228 0 000 3.876 2.536 2.536 0 00.888 1.362 2.458 2.458 0 001.535.484 2.29 2.29 0 001.465-.484zM389.17 142.295a.265.265 0 01-.081-.2v-15.6a.276.276 0 01.278-.276h2.122a.275.275 0 01.277.276v8.33a.093.093 0 00.046.092c.031.016.062 0 .092-.046l3.738-4.13a.488.488 0 01.346-.162h2.446c.154 0 .231.055.231.162a.4.4 0 01-.069.184l-2.93 3.508a.127.127 0 00-.024.161l3.461 7.452a.362.362 0 01.046.139c0 .122-.084.184-.254.184h-2.238a.326.326 0 01-.323-.208l-2.515-5.86a.108.108 0 00-.081-.057.065.065 0 00-.08.034l-1.846 2.122a.38.38 0 00-.046.162v3.529a.268.268 0 01-.081.2.265.265 0 01-.2.081h-2.122a.264.264 0 01-.193-.077zM410.568 136.446l-.023.715a.245.245 0 01-.277.277h-7.221a.1.1 0 00-.116.115 3.323 3.323 0 00.208 1.039 2.537 2.537 0 002.7 1.684 2.91 2.91 0 002.493-1.292.269.269 0 01.23-.139.22.22 0 01.161.07l1.431 1.176a.247.247 0 01.069.37 4.713 4.713 0 01-1.9 1.569 6.179 6.179 0 01-2.642.554 5.544 5.544 0 01-3.057-.807 4.651 4.651 0 01-1.834-2.261 9.07 9.07 0 01-.531-3.461 7.04 7.04 0 01.276-2.169 4.628 4.628 0 011.742-2.549 5.078 5.078 0 013.08-.935q4.546 0 5.123 4.752a8.273 8.273 0 01.088 1.292zm-6.634-3.311a2.258 2.258 0 00-.8 1.188 4.012 4.012 0 00-.185 1.016c-.031.077 0 .115.093.115h4.683a.1.1 0 00.115-.115 4.363 4.363 0 00-.138-.877 2.241 2.241 0 00-.819-1.292 2.479 2.479 0 00-1.535-.462 2.287 2.287 0 00-1.413.427zM418.426 142.295a.264.264 0 01-.081-.2v-15.6a.275.275 0 01.277-.276h2.123a.265.265 0 01.2.08.269.269 0 01.081.2v6.9a.091.091 0 00.046.092.074.074 0 00.092-.023l6-7.083a.435.435 0 01.345-.161h2.4c.154 0 .231.053.231.161a.4.4 0 01-.069.184l-5.284 6.484c-.046.062-.055.116-.023.162l5.676 8.836a.941.941 0 01.046.162c0 .107-.077.161-.231.161h-2.423a.364.364 0 01-.323-.184l-4.568-7.107q-.092-.139-.161-.023l-1.707 1.985a.358.358 0 00-.046.161v4.891a.267.267 0 01-.081.2.264.264 0 01-.2.081h-2.123a.262.262 0 01-.197-.083zM433.861 141.637a4.869 4.869 0 01-1.834-2.561 9.269 9.269 0 01-.023-5.261 4.737 4.737 0 011.845-2.515 5.463 5.463 0 013.161-.9 5.146 5.146 0 013.034.9 4.81 4.81 0 011.811 2.492 7.5 7.5 0 01.415 2.63 8.31 8.31 0 01-.392 2.631 4.965 4.965 0 01-1.823 2.573 5.1 5.1 0 01-3.068.934 5.267 5.267 0 01-3.126-.923zm4.591-1.869a2.727 2.727 0 00.888-1.362 6.784 6.784 0 00.231-1.937 6.363 6.363 0 00-.231-1.938 2.509 2.509 0 00-.877-1.35 2.447 2.447 0 00-1.522-.473 2.378 2.378 0 00-1.477.473 2.63 2.63 0 00-.9 1.35 8.245 8.245 0 000 3.876 2.54 2.54 0 00.888 1.362 2.46 2.46 0 001.535.484 2.29 2.29 0 001.465-.484zM446.954 128.797a6.565 6.565 0 01-.761-.334 3.606 3.606 0 00-.334-.173 3.473 3.473 0 00-.45-.184 1.223 1.223 0 00-.369-.058 1.685 1.685 0 00-.68.127 1.64 1.64 0 00-.542.4.333.333 0 01-.231.116.2.2 0 01-.161-.093l-.738-.785a.254.254 0 01-.046-.368 2.691 2.691 0 01.957-.97 2.529 2.529 0 011.3-.346 2.158 2.158 0 01.785.127q.322.128.854.4c.292.154.515.262.669.322a1.275 1.275 0 00.485.093 1.421 1.421 0 001.154-.577.317.317 0 01.207-.115.22.22 0 01.185.092l.669.785a.325.325 0 01.07.346 2.208 2.208 0 01-.911.946 2.738 2.738 0 01-1.373.346 2.262 2.262 0 01-.739-.097zm-1.972 13.5a.264.264 0 01-.081-.2v-11.235a.277.277 0 01.277-.277h2.122a.277.277 0 01.277.277v11.236a.277.277 0 01-.277.277h-2.122a.263.263 0 01-.197-.08z" fill="#cc3e00"/><g fill="#1d0000"><path d="M222.003 71.014V58.339a.164.164 0 01.186-.187h4.511a4.518 4.518 0 013.094 1.016 3.432 3.432 0 011.156 2.713v5.592a3.43 3.43 0 01-1.156 2.713 4.518 4.518 0 01-3.094 1.016h-4.511a.164.164 0 01-.186-.188zm1.864-1.36h2.908a2.3 2.3 0 001.724-.662 2.513 2.513 0 00.662-1.78v-5.07a2.449 2.449 0 00-.643-1.781 2.321 2.321 0 00-1.743-.662h-2.908a.067.067 0 00-.075.075v9.8a.066.066 0 00.075.079zM233.709 71.014V58.339a.165.165 0 01.187-.187h1.416a.166.166 0 01.187.187v12.675a.166.166 0 01-.187.187h-1.413a.165.165 0 01-.19-.187zM240.559 70.838a3.84 3.84 0 01-1.6-1.51 4.384 4.384 0 01-.569-2.246v-4.828a4.285 4.285 0 01.569-2.227 3.877 3.877 0 011.6-1.491 5.129 5.129 0 012.376-.531 5.227 5.227 0 012.367.513 3.827 3.827 0 011.595 1.444 4.072 4.072 0 01.568 2.163v.019a.2.2 0 01-.057.149.178.178 0 01-.129.056l-1.417.075c-.125 0-.186-.056-.186-.168V62.2a2.564 2.564 0 00-.745-1.92 2.74 2.74 0 00-2-.727 2.77 2.77 0 00-2 .727 2.544 2.544 0 00-.754 1.92v4.959a2.544 2.544 0 00.754 1.919 2.771 2.771 0 002 .727 2.741 2.741 0 002-.727 2.563 2.563 0 00.745-1.919v-.038c0-.111.061-.168.186-.168l1.417.075a.165.165 0 01.186.186 4.119 4.119 0 01-.568 2.172 3.865 3.865 0 01-1.595 1.463 5.6 5.6 0 01-4.743-.009zM250.242 71.014V58.339a.165.165 0 01.187-.187h1.416a.166.166 0 01.187.187v12.675a.166.166 0 01-.187.187h-1.416a.165.165 0 01-.187-.187zM257.12 70.809a3.994 3.994 0 01-1.622-1.575 4.653 4.653 0 01-.577-2.339v-4.437a4.6 4.6 0 01.577-2.33 4.008 4.008 0 011.622-1.565 5.487 5.487 0 014.829 0 4 4 0 011.62 1.565 4.593 4.593 0 01.578 2.33v4.437a4.642 4.642 0 01-.578 2.339 3.987 3.987 0 01-1.62 1.575 5.49 5.49 0 01-4.829 0zm4.455-1.771a2.8 2.8 0 00.783-2.069v-4.531a2.857 2.857 0 00-.783-2.1 2.754 2.754 0 00-2.051-.791 2.724 2.724 0 00-2.041.791 2.875 2.875 0 00-.774 2.1v4.529a2.814 2.814 0 00.774 2.069 2.742 2.742 0 002.041.783 2.772 2.772 0 002.051-.781zM274.923 58.152h1.416a.165.165 0 01.186.187v12.675a.165.165 0 01-.186.187h-1.361a.27.27 0 01-.224-.131l-5.835-9.525c-.012-.037-.031-.052-.055-.046s-.037.027-.037.065l.019 9.451a.165.165 0 01-.187.187h-1.417a.165.165 0 01-.187-.187V58.339a.165.165 0 01.187-.187h1.379a.271.271 0 01.224.131l5.816 9.525c.012.037.031.053.056.046s.037-.027.037-.065l-.019-9.451a.165.165 0 01.188-.186zM287.484 71.051l-.671-2.18a.073.073 0 00-.074-.056H281.5a.073.073 0 00-.074.056l-.671 2.18a.217.217 0 01-.224.149h-1.51c-.136 0-.186-.068-.149-.2l4.082-12.694a.219.219 0 01.225-.149h1.863a.218.218 0 01.224.149L289.385 71l.019.074c0 .087-.056.131-.167.131h-1.529a.217.217 0 01-.224-.154zm-5.583-3.681a.09.09 0 00.066.028h4.287a.091.091 0 00.066-.028.051.051 0 00.009-.065l-2.162-6.916a.06.06 0 00-.112 0l-2.163 6.916a.052.052 0 00.009.065zm1.268-10.475a.135.135 0 01.01-.159l1.1-2.013a.219.219 0 01.224-.131h1.249c.075 0 .121.022.14.066a.172.172 0 01-.028.158l-1.324 2.013a.27.27 0 01-.223.131h-.988a.18.18 0 01-.16-.065zM298.949 71.07l-2.61-5.574a.072.072 0 00-.074-.055h-2.686a.066.066 0 00-.075.074v5.5a.165.165 0 01-.187.187H291.9a.165.165 0 01-.187-.187V58.339a.165.165 0 01.187-.187h5.014a4.021 4.021 0 011.967.467 3.274 3.274 0 011.314 1.3 3.925 3.925 0 01.465 1.938 3.571 3.571 0 01-.68 2.209 3.344 3.344 0 01-1.892 1.221c-.049.025-.062.055-.037.093l2.7 5.592a.213.213 0 01.019.093c0 .087-.05.131-.149.131h-1.473a.2.2 0 01-.199-.126zm-5.443-11.3v4.175a.066.066 0 00.075.075h3.113a2.162 2.162 0 001.585-.588 2.085 2.085 0 00.6-1.556 2.051 2.051 0 00-2.181-2.181h-3.119a.066.066 0 00-.073.079zM303.329 71.014V58.339a.165.165 0 01.187-.187h1.416a.165.165 0 01.187.187v12.675a.165.165 0 01-.187.187h-1.416a.165.165 0 01-.187-.187zM310.206 70.809a4 4 0 01-1.621-1.575 4.647 4.647 0 01-.578-2.339v-4.437a4.6 4.6 0 01.578-2.33 4.012 4.012 0 011.621-1.565 5.486 5.486 0 014.828 0 4.007 4.007 0 011.621 1.565 4.6 4.6 0 01.578 2.33v4.437a4.645 4.645 0 01-.578 2.339 3.993 3.993 0 01-1.621 1.575 5.489 5.489 0 01-4.828 0zm4.456-1.771a2.8 2.8 0 00.783-2.069v-4.531a2.857 2.857 0 00-.783-2.1 2.757 2.757 0 00-2.051-.791 2.721 2.721 0 00-2.041.791 2.876 2.876 0 00-.775 2.1v4.529a2.815 2.815 0 00.775 2.069 2.739 2.739 0 002.041.783 2.775 2.775 0 002.051-.781z"/></g></svg>