<svg xmlns="http://www.w3.org/2000/svg" width="38.172" height="1888.988"><path data-name="Caminho 257" d="M18.163 12.91l-2.617 1.915L.021 4.148v11.031h15.668L0 26.66l32.646 24.376L30 52.971.021 31.963v3.368L27.65 54.688l-2.754 2.015L.021 38.997v3.385l22.53 16.039-2.02 1.478L.021 46.188v3.316l18.141 12.125-2.617 1.915L.021 52.871v11.031h15.668L0 75.382l32.646 24.376L30 101.693.021 80.688v3.368l27.628 19.36-2.754 2.015L.021 87.72v3.385l22.53 16.04-2.02 1.478L.021 94.914v3.316l18.141 12.125-2.617 1.915L.021 101.593v11.032h15.668L0 124.105l32.646 24.376L30 150.416.021 129.408v3.367l27.628 19.36-2.754 2.015L.021 136.442v3.385l22.53 16.039-2.02 1.478-20.51-13.707v3.316l18.142 12.125-2.617 1.915L.021 150.316v11.032h15.668L0 172.827l32.646 24.376L30 199.139.021 178.131v3.368l27.629 19.36-2.754 2.015L.021 185.165v3.385l22.53 16.038-2.02 1.478-20.51-13.707v3.316L18.162 207.8l-2.617 1.915L.021 199.038v11.031h15.668L0 221.55l32.646 24.376L30 247.861.021 226.853v3.368l27.628 19.36-2.754 2.015L.021 233.888v3.385l22.53 16.039-2.02 1.478-20.51-13.708v3.316l18.141 12.125-2.617 1.915L.021 247.761v11.027h15.668L0 270.272l32.646 24.376-2.646 1.94L.021 275.576v3.368l27.628 19.36-2.754 2.015L.021 282.61v3.385l22.53 16.039-2.02 1.478-20.51-13.708v3.316l18.141 12.125-2.617 1.915L.021 296.488v11.032h15.668L0 318.995l32.646 24.376L30 345.306.021 324.298v3.367l27.628 19.36-2.754 2.015L.021 331.332v3.385l22.53 16.039-2.02 1.478-20.51-13.707v3.316l18.142 12.125-2.617 1.915L.021 345.206v11.032h15.668L0 367.717l32.646 24.376L30 394.029.021 373.021v3.367l27.629 19.361-2.754 2.015L.021 380.055v3.385l22.53 16.039-2.02 1.478L.021 387.25v3.316l18.142 12.122-2.617 1.915L.021 393.929v11.031h15.668L0 416.44l32.646 24.376L30 442.751.021 421.743v3.368l27.628 19.36-2.749 2.017-24.879-17.71v3.385l22.53 16.039-2.02 1.478-20.51-13.708v3.316l18.141 12.125-2.617 1.915L.021 442.651v11.031h15.668L0 465.162l32.646 24.376L30 491.474.021 470.466v3.368l27.628 19.36-2.754 2.015L.021 477.5v3.388l22.53 16.039-2.02 1.478-20.51-13.71v3.316l18.141 12.125-2.617 1.915L.021 491.373v11.031h15.668L0 513.888l32.646 24.376L30 540.196.021 519.188v3.368l27.628 19.36-2.754 2.015L.021 526.222v3.385l22.53 16.039-2.02 1.478-20.51-13.707v3.316l18.142 12.125-2.617 1.915L.021 540.096v11.032h15.668L0 562.608l32.646 24.38L30 588.919.021 567.911v3.368l27.628 19.36-2.754 2.015L.021 574.945v3.385l22.53 16.039-2.02 1.478L.021 582.14v3.316l18.141 12.125-2.617 1.915L.021 588.819v11.032h15.668L0 611.33l32.646 24.376L30 637.641.021 616.634v3.367l27.629 19.361-2.754 2.015L.021 623.668v3.385l22.53 16.035-2.02 1.478-20.51-13.704v3.316l18.141 12.125-2.617 1.915L.021 637.541v11.032h15.668L0 660.053l32.646 24.375L30 686.364.021 665.356v3.368l27.629 19.364-2.754 2.015L.021 672.388v3.385l22.53 16.039-2.02 1.478-20.51-13.702v3.316l18.141 12.125-2.617 1.915-15.524-10.68v11.031h15.668L0 708.775l32.646 24.376L30 735.088.021 714.079v3.368l27.628 19.36-2.754 2.015L.021 721.113v3.385l22.53 16.04-2.02 1.478-20.51-13.709v3.316l18.142 12.125-2.617 1.915L.021 734.988v11.03h15.668L0 757.498l32.646 24.376L30 783.809.021 762.801v3.367l27.628 19.36-2.754 2.015L.021 769.835v3.385l22.53 16.039-2.02 1.478L.021 777.03v3.316l18.141 12.125-2.617 1.915L.021 783.709v11.032h15.668L0 806.22l32.646 24.376L30 832.532.021 811.524v3.364l27.629 19.364-2.754 2.015L.021 818.558v3.385l22.53 16.039-2.02 1.478-20.51-13.708v3.316l18.141 12.125-2.617 1.915L.021 832.431v11.031h15.668L0 854.943l32.646 24.375L30 881.254.021 860.246v3.368l27.629 19.36-2.75 2.014L.021 867.28v3.385l22.53 16.039-2.02 1.478-20.51-13.707v3.313l18.142 12.128-2.617 1.915L.021 881.154v11.034h15.668L0 903.665l32.646 24.376L30 929.977.021 908.969v3.367l27.629 19.361-2.75 2.015L.021 916.003v3.385l22.53 16.039-2.02 1.478-20.51-13.708v3.316l18.142 12.125-2.617 1.915L.021 929.876v11.032h16.063L0 952.677l32.646 24.375L30 978.988.021 957.98v3.368l27.629 19.36-2.75 2.015L.021 965.014v3.385l22.53 16.039-2.02 1.478-20.51-13.707v3.316l18.142 12.125-2.617 1.915L.021 978.888v11.031h15.668L0 1001.399l32.646 24.376-2.646 1.936-29.979-21.008v3.368l27.629 19.36-2.75 2.015-24.879-17.709v3.385l22.53 16.039-2.02 1.478-20.51-13.708v3.316l18.142 12.125-2.618 1.916L.021 1027.61v11.032h15.668L0 1050.122l32.646 24.375-2.646 1.936-29.979-21.008v3.363l27.629 19.365-2.75 2.015-24.879-17.709v3.385l22.53 16.044-2.02 1.478-20.51-13.712v3.316l18.142 12.125-2.617 1.915-15.525-10.677v11.031h15.668L0 1098.844l32.646 24.376-2.646 1.936-29.979-21.008v3.367l27.629 19.361-2.75 2.012-24.879-17.706v3.385l22.53 16.039-2.02 1.478-20.51-13.708v3.312l18.142 12.129-2.617 1.915-15.525-10.677v11.033h15.668L0 1147.567l32.646 24.376-2.646 1.935L.021 1152.87v3.368l27.629 19.36-2.75 2.015-24.879-17.708v3.383l22.53 16.039-2.02 1.478-20.51-13.706v3.316l18.142 12.125-2.617 1.915-15.525-10.677v11.031h15.668L0 1196.288l32.646 24.377-2.646 1.936-29.979-21.013v3.367l27.629 19.366-2.75 2.015-24.879-17.709v3.385l22.53 16.039-2.02 1.478-20.51-13.708v3.316l18.142 12.125-2.617 1.915L.021 1222.5v11.032h15.668L0 1245.012l32.646 24.376-2.646 1.935-29.979-21.008v3.367l27.629 19.361-2.75 2.015L.021 1257.35v3.385l22.53 16.039-2.02 1.478-20.51-13.708v3.316l18.142 12.128-2.617 1.915-15.525-10.68v11.031h15.668L0 1293.734l32.646 24.376-2.646 1.936-29.979-21.008v3.367l27.629 19.361-2.75 2.015-24.879-17.709v3.385l22.53 16.039-2.02 1.478-20.51-13.707v3.316l18.142 12.125-2.617 1.915-15.525-10.677v11.031h15.668L0 1342.457l32.646 24.376-2.646 1.935L.021 1347.76v3.368l27.629 19.36-2.75 2.015-24.879-17.708v3.385l22.53 16.039-2.02 1.478-20.51-13.709v3.316l18.142 12.126-2.617 1.915-15.525-10.677v11.032h15.668L0 1391.18l32.646 24.375-2.646 1.933-29.979-21.005v3.367l27.629 19.361-2.75 2.015-24.879-17.709v3.385l22.53 16.039-2.02 1.478-20.51-13.707v3.316l18.142 12.125-2.617 1.915-15.525-10.68v11.034h15.668L0 1439.902l32.646 24.376-2.646 1.935-29.979-21.008v3.367l27.629 19.362-2.75 2.014L.021 1452.24v3.385l22.53 16.039-2.02 1.478-20.51-13.708v3.316l18.142 12.125-2.618 1.913-15.524-10.675v11.032h15.668L0 1488.625 32.646 1513 30 1514.936.021 1493.928v3.367l27.629 19.361-2.75 2.015-24.879-17.709v3.386l22.53 16.04-2.02 1.478-20.51-13.709v3.316l18.142 12.125-2.617 1.915-15.525-10.677v11.031h15.668L0 1537.347l32.646 24.376-2.646 1.935-29.979-21.007v3.367l27.629 19.361-2.75 2.015-24.879-17.706v3.385l22.53 16.039-2.02 1.478-20.51-13.711v3.316l18.142 12.125-2.617 1.915-15.525-10.677v11.03h15.668L0 1586.07l32.646 24.375-2.646 1.936-29.979-21.008v3.367l27.629 19.361-2.75 2.015-24.879-17.709v3.381l22.53 16.039-2.02 1.478-20.51-13.703v3.316l18.142 12.125-2.617 1.915-15.525-10.677v11.031h15.668L0 1634.788l32.646 24.38-2.646 1.936-29.979-21.008v3.368l27.629 19.36-2.75 2.015L.021 1647.13v3.385l22.53 16.039-2.02 1.478-20.51-13.708v3.316l18.142 12.125-2.617 1.915-15.525-10.677v11.032h15.668L0 1683.515l32.646 24.373-2.646 1.938-29.979-21.008v3.37l27.629 19.358-2.75 2.015-24.879-17.709v3.386l22.53 16.039-2.02 1.478-20.51-13.708v3.316l18.142 12.125-2.617 1.915-15.525-10.677v11.031h15.668L0 1732.237l32.646 24.376-2.646 1.936-29.979-21.008v3.367l27.629 19.361-2.75 2.019-24.879-17.713v3.385l22.53 16.039-2.02 1.478-20.51-13.708v3.319l18.142 12.122-2.617 1.915-15.525-10.677v11.032h15.668L0 1780.96l32.646 24.376-2.646 1.935-29.979-21.008v3.368l27.629 19.357-2.75 2.018-24.879-17.709v3.386l22.53 16.039-2.02 1.478-20.51-13.712v3.32l18.142 12.125-2.618 1.915-15.524-10.677v11.031h15.668L0 1829.682l32.646 24.376-2.646 1.936-29.979-21.006v3.365l27.629 19.361-2.75 2.015L.021 1842.02v3.385l22.53 16.04-2.02 1.478-20.51-13.708v3.315l18.142 12.125-2.617 1.915-15.525-10.677v11.032h15.668L0 1878.405l14.174 10.583H19.4l18.772-12.845v-3.342l-21.306 14.575-2.744-2.008 24.05-16.289v-3.331l-26.414 17.89-2.469-1.807 28.883-19.92v-3.35l-31.24 21.545-2.292-1.679 33.532-24.539v-10.4h-14.4l14.4-9.049v-3.257l-16.959 10.654-1.987-1.454 18.946-12.96v-3.342l-21.306 14.574-2.744-2.009 24.05-16.289v-3.331l-26.414 17.89-2.469-1.807 28.883-19.92v-3.35l-31.24 21.55-2.292-1.683 33.532-24.536v-10.409h-14.4l14.4-9.049v-3.257l-16.959 10.659-1.987-1.454 18.946-12.96v-3.342l-21.306 14.574-2.744-2.008 24.05-16.289v-3.331l-26.414 17.885-2.469-1.8 28.883-19.919v-3.35l-31.24 21.542-2.293-1.678 33.533-24.536v-10.409h-14.4l14.4-9.05v-3.257l-16.959 10.657-1.987-1.454 18.946-12.96v-3.342l-21.306 14.577-2.744-2.008 24.05-16.289v-3.331l-26.414 17.889-2.469-1.807 28.883-19.919v-3.35l-31.24 21.544-2.293-1.678 33.533-24.536v-10.408h-14.4l14.4-9.049v-3.257l-16.959 10.658-1.987-1.454 18.946-12.96v-3.342l-21.306 14.576-2.744-2.008 24.05-16.292v-3.331l-26.414 17.891-2.469-1.807 28.883-19.919v-3.35l-31.24 21.544-2.293-1.678 33.533-24.536v-10.414h-14.4l14.4-9.049v-3.251l-16.959 10.657-1.987-1.454 18.946-12.96v-3.343l-21.306 14.576-2.744-2.009 24.05-16.288v-3.331l-26.414 17.889-2.469-1.807 28.883-19.919v-3.35l-31.24 21.539-2.293-1.678 33.533-24.532v-10.408h-14.4l14.4-9.049v-3.257l-16.959 10.659-1.987-1.454 18.946-12.96v-3.342l-21.306 14.574-2.744-2.009 24.05-16.288v-3.331l-26.414 17.89-2.469-1.807 28.883-19.919v-3.35l-31.24 21.543-2.292-1.682 33.533-24.536v-10.404h-14.4l14.4-9.049v-3.257l-16.96 10.658-1.987-1.454 18.946-12.958v-3.342l-21.306 14.573-2.744-2.009 24.05-16.288v-3.334l-26.414 17.89-2.469-1.807 28.883-19.919v-3.35l-31.24 21.546-2.293-1.678 33.533-24.536v-10.408h-14.4l14.4-9.049v-3.257l-16.959 10.658-1.987-1.454 18.946-12.96v-3.342l-21.306 14.574-2.744-2.009 24.05-16.288v-3.331l-26.414 17.89-2.469-1.807 28.883-19.919v-3.35l-31.24 21.543-2.293-1.678 33.533-24.536v-10.408h-14.4l14.4-9.049v-3.257l-16.959 10.658-1.987-1.454 18.946-12.961v-3.342l-21.306 14.576-2.744-2.009 24.05-16.288v-3.331l-26.414 17.89-2.469-1.807 28.883-19.919v-3.35l-31.24 21.543-2.293-1.678 33.533-24.537v-10.408h-14.4l14.4-9.049v-3.257l-16.959 10.659-1.987-1.454 18.946-12.96v-3.342l-21.306 14.574-2.744-2.009 24.05-16.288v-3.331l-26.414 17.89-2.469-1.807 28.883-19.918v-3.35l-31.24 21.542-2.293-1.678 33.533-24.536v-10.408h-14.4l14.4-9.049v-3.257l-16.959 10.658-1.987-1.454 18.946-12.961v-3.342l-21.306 14.576-2.744-2.009 24.05-16.288v-3.331l-26.414 17.887-2.469-1.807 28.883-19.919v-3.35l-31.24 21.546-2.293-1.678 33.533-24.536v-10.408h-14.4l14.4-9.049v-3.257l-16.959 10.658-1.987-1.454 18.946-12.96v-3.342l-21.306 14.574-2.744-2.009 24.05-16.288v-3.331l-26.414 17.89-2.469-1.807 28.883-19.919v-3.35l-31.24 21.543-2.293-1.678 33.533-24.536v-10.408h-14.4l14.4-9.049v-3.257l-16.959 10.658-1.987-1.454 18.946-12.96v-3.342l-21.306 14.579-2.744-2.009 24.05-16.291v-3.331l-26.414 17.89-2.469-1.807 28.883-19.922v-3.35l-31.24 21.545-2.293-1.678 33.533-24.537v-10.41h-14.4l14.4-9.049v-3.251l-16.959 10.655-1.987-1.455 18.946-12.96v-3.34l-21.306 14.573-2.744-2.009 24.05-16.289v-3.331l-26.414 17.89-2.469-1.807 28.883-19.919v-3.35l-31.24 21.542-2.293-1.678 33.533-24.536v-10.408h-14.4l14.4-9.049v-3.257l-16.959 10.66-1.987-1.454 18.946-12.96v-3.342l-21.306 14.574-2.744-2.008 24.05-16.289v-3.331l-26.414 17.89-2.469-1.812 28.883-19.919v-3.35l-31.24 21.549-2.292-1.68 33.533-24.536v-10.408h-14.4l14.4-9.049v-3.257l-16.96 10.66-1.987-1.454 18.946-12.96v-3.342l-21.306 14.574-2.744-2.008 24.05-16.289v-3.331l-26.414 17.89-2.469-1.807 28.883-19.919v-3.35l-31.24 21.543-2.293-1.678 33.533-24.536v-10.408h-14.4l14.4-9.049v-3.257l-16.959 10.658-1.987-1.454 18.946-12.96v-3.342l-21.306 14.574-2.744-2.008 24.05-16.289v-3.331l-26.414 17.89-2.469-1.807 28.883-19.92v-3.35l-31.24 21.544-2.293-1.678 33.533-24.536V1015.2h-14.4l14.4-9.049v-3.257l-16.959 10.658-1.987-1.454 18.946-12.96v-3.342l-21.306 14.575-2.744-2.008 24.05-16.289v-3.331l-26.414 17.89-2.469-1.807 28.883-19.919v-3.35L6.932 1003.1l-2.293-1.678 33.533-24.534V966.48h-14.4l14.4-9.049v-3.257L21.213 964.83l-1.987-1.454 18.946-12.96v-3.342l-21.306 14.574-2.744-2.008 24.05-16.289v-3.331l-26.414 17.89-2.469-1.807 28.883-19.915v-3.35l-31.24 21.539-2.293-1.678 33.533-24.536v-10.7h-14.4l14.4-9.049v-3.257l-16.959 10.662-1.987-1.454 18.946-12.96v-3.342l-21.306 14.574-2.744-2.009 24.05-16.288v-3.331l-26.414 17.889-2.469-1.81 28.883-19.919v-3.35l-31.24 21.547-2.292-1.678 33.533-24.536v-10.408h-14.4l14.4-9.048v-3.257l-16.959 10.659-1.987-1.454 18.946-12.96v-3.342l-21.306 14.575-2.744-2.009 24.05-16.288v-3.331l-26.414 17.89-2.469-1.807 28.883-19.919v-3.35l-31.24 21.545-2.293-1.678 33.533-24.536v-10.408h-14.4l14.4-9.049v-3.257l-16.959 10.658-1.987-1.454 18.946-12.96v-3.342l-21.307 14.566-2.744-2.008 24.05-16.288v-3.331l-26.414 17.89-2.469-1.807 28.883-19.919v-3.35L6.932 807.92l-2.293-1.679 33.533-24.536v-10.408h-14.4l14.4-9.049v-3.26l-16.959 10.658-1.987-1.454 18.946-12.961v-3.342l-21.306 14.575-2.744-2.009 24.05-16.289v-3.331l-26.414 17.889-2.469-1.807 28.883-19.919v-3.35l-31.24 21.55-2.293-1.678 33.533-24.532V722.58h-14.4l14.4-9.049v-3.257l-16.959 10.654-1.987-1.454 18.946-12.96v-3.342l-21.306 14.575-2.744-2.009 24.05-16.289v-3.331l-26.414 17.89-2.469-1.807 28.883-19.919v-3.35l-31.24 21.544-2.293-1.678 33.533-24.536v-10.408h-14.4l14.4-9.049v-3.257l-16.959 10.659-1.987-1.454 18.946-12.96v-3.342l-21.306 14.575-2.744-2.009 24.05-16.288v-3.331l-26.414 17.89-2.469-1.807 28.883-19.919v-3.35l-31.24 21.544-2.293-1.678 33.533-24.536v-10.408h-14.4l14.4-9.049v-3.257l-16.959 10.66-1.987-1.454 18.946-12.96v-3.342l-21.306 14.575-2.744-2.008 24.05-16.288v-3.331l-26.414 17.89-2.469-1.807 28.883-19.919v-3.35l-31.24 21.545-2.293-1.678 33.533-24.536v-10.408h-14.4l14.4-9.049v-3.257l-16.959 10.658-1.987-1.454 18.946-12.961v-3.342l-21.306 14.575-2.744-2.008 24.05-16.289v-3.331l-26.414 17.89-2.469-1.807 28.883-19.919v-3.35l-31.24 21.535-2.293-1.678 33.533-24.536v-10.406h-14.4l14.4-9.049v-3.257l-16.959 10.656-1.987-1.454 18.946-12.96v-3.342l-21.306 14.575-2.744-2.008 24.05-16.289v-3.331l-26.414 17.889-2.469-1.807 28.883-19.923v-3.35l-31.24 21.55-2.293-1.678 33.533-24.536v-10.408h-14.4l14.4-9.049v-3.257l-16.959 10.659-1.987-1.454 18.946-12.96v-3.342l-21.306 14.575-2.744-2.009 24.05-16.288v-3.331l-26.414 17.889-2.469-1.807 28.883-19.919v-3.35l-31.24 21.544-2.292-1.679 33.533-24.536v-10.408h-14.4l14.4-9.048v-3.257l-16.959 10.659-1.987-1.454 18.946-12.96v-3.342l-21.306 14.575-2.744-2.008 24.05-16.288v-3.331l-26.414 17.889-2.469-1.807 28.883-19.919v-3.35l-31.24 21.544-2.293-1.679 33.533-24.536v-10.408h-14.4l14.4-9.049v-3.257l-16.959 10.658-1.987-1.454 18.946-12.96v-3.342l-21.307 14.568-2.744-2.009 24.05-16.288v-3.331l-26.414 17.889-2.469-1.807 28.883-19.919v-3.35l-31.24 21.545-2.293-1.678 33.533-24.536v-10.408h-14.4l14.4-9.049v-3.257l-16.959 10.658-1.987-1.454 18.946-12.96v-3.342l-21.306 14.575-2.744-2.008 24.05-16.289v-3.331l-26.414 17.889-2.469-1.807 28.883-19.919v-3.35l-31.24 21.545-2.293-1.678 33.533-24.536v-10.408h-14.4l14.4-9.048v-3.257l-16.959 10.659-1.987-1.454 18.946-12.96v-3.342l-21.306 14.575-2.744-2.009 24.05-16.288v-3.331l-26.414 17.89-2.469-1.807 28.883-19.919v-3.35l-31.24 21.544-2.293-1.678 33.533-24.536v-10.408h-14.4l14.4-9.048v-3.257l-16.959 10.658-1.987-1.454 18.946-12.96v-3.342l-21.306 14.575-2.744-2.008 24.05-16.288v-3.331l-26.414 17.89-2.469-1.807 28.883-19.919v-3.35L6.932 223.26l-2.293-1.678 33.533-24.536v-10.408h-14.4l14.4-9.049v-3.257L21.213 184.99l-1.987-1.454 18.946-12.961v-3.342l-21.306 14.575-2.744-2.009 24.05-16.288v-3.331l-26.414 17.89-2.469-1.807 28.883-19.919v-3.356l-31.24 21.54-2.293-1.679 33.533-24.536v-10.408h-14.4l14.4-9.049v-3.257l-16.959 10.659-1.987-1.454 18.946-12.961v-3.342l-21.306 14.575-2.744-2.008 24.05-16.288v-3.331l-26.414 17.889-2.469-1.807 28.883-19.919v-3.35l-31.24 21.545-2.293-1.678 33.533-24.541V89.18h-14.4l14.4-9.049v-3.257L21.213 87.533l-1.987-1.455 18.946-12.96v-3.342L16.866 84.351l-2.744-2.009 24.05-16.288v-3.331L11.758 80.612l-2.469-1.807 28.883-19.917v-3.35L6.932 77.082l-2.293-1.678 33.533-24.536V40.46h-14.4l14.4-9.048v-3.257L21.213 38.813l-1.987-1.454 18.946-12.96v-3.342L16.866 35.632l-2.744-2.009 24.05-16.288v-3.331L11.758 31.888l-2.469-1.807 28.883-19.919v-3.35L6.932 28.357l-2.293-1.678L38.172 2.143V-.003h-8.624l3.1 2.313L30 4.248 23.937-.001h-4.805l8.517 5.969-2.749 2.02L13.686.005H8.927l13.624 9.7-2.02 1.478L3.808.006H.021v.785z" fill="#cc3e00"/></svg>