<svg xmlns="http://www.w3.org/2000/svg" width="80" height="1888.988"><g data-name="Grupo 18" fill="#cc3e00"><path data-name="Caminho 192" d="M15.689 1888.989h4.67l17.813-13.034v-10.408h-14.4l14.4-9.049v-3.257L21.213 1863.9l-1.987-1.454 18.946-12.957v-3.342l-21.306 14.571-2.744-2.008 24.05-16.288v-3.333l-26.414 17.89-2.469-1.807 28.883-19.919v-3.35l-31.24 21.544-2.292-1.678 33.532-24.536v-10.408h-14.4l14.4-9.049v-3.257l-16.959 10.658-1.987-1.454 18.946-12.96v-3.342l-21.306 14.574-2.744-2.006 24.05-16.288v-3.331l-26.414 17.887-2.469-1.807 28.883-19.919v-3.35l-31.24 21.544-2.292-1.679 33.533-24.536v-10.408h-14.4l14.4-9.049v-3.257l-16.96 10.659-1.987-1.454 18.946-12.96v-3.342l-21.306 14.574-2.744-2.008 24.05-16.289v-3.331l-26.414 17.89-2.469-1.807 28.883-19.919v-3.35l-31.24 21.543-2.293-1.678 33.533-24.535v-10.41h-14.4l14.4-9.049v-3.257l-16.959 10.659-1.987-1.454 18.946-12.96v-3.342l-21.306 14.574-2.744-2.008 24.05-16.289v-3.331l-26.414 17.89-2.469-1.807 28.883-19.916v-3.35l-31.24 21.541-2.293-1.678 33.533-24.536v-10.408h-14.4l14.4-9.049v-3.257l-16.959 10.658-1.987-1.454 18.946-12.96v-3.342l-21.306 14.574-2.744-2.008 24.05-16.289v-3.331l-26.414 17.889-2.469-1.807 28.883-19.919v-3.35l-31.24 21.544-2.292-1.678 33.533-24.536v-10.408h-14.4l14.4-9.049v-3.257l-16.96 10.66-1.987-1.454 18.946-12.96v-3.342l-21.306 14.572-2.744-2.008 24.05-16.289v-3.331l-26.414 17.89-2.469-1.807 28.883-19.919v-3.35l-31.24 21.543-2.293-1.678 33.533-24.536v-10.408h-14.4l14.4-9.049v-3.257l-16.959 10.658-1.987-1.454 18.946-12.96v-3.342l-21.306 14.575-2.744-2.008 24.05-16.286v-3.331l-26.414 17.886-2.469-1.807 28.883-19.919v-3.35l-31.24 21.544-2.293-1.678 33.533-24.536v-10.409h-14.4l14.4-9.049v-3.257l-16.959 10.659-1.987-1.454 18.946-12.96v-3.339l-21.306 14.571-2.744-2.008 24.05-16.289v-3.331l-26.414 17.889-2.469-1.807 28.883-19.919v-3.35l-31.24 21.544-2.293-1.678 33.533-24.536v-10.408h-14.4l14.4-9.049v-3.257l-16.959 10.658-1.987-1.454 18.946-12.96v-3.342l-21.306 14.575-2.744-2.009 24.05-16.288v-3.331l-26.414 17.889-2.469-1.81 28.883-19.919v-3.35l-31.24 21.547-2.292-1.678 33.533-24.536v-10.408h-14.4l14.4-9.049v-3.257l-16.96 10.658-1.987-1.454 18.946-12.96v-3.342l-21.306 14.574-2.744-2.009 24.05-16.288v-3.329l-26.414 17.89-2.469-1.807 28.883-19.919v-3.35l-31.24 21.541-2.293-1.678 33.533-24.536v-10.408h-14.4l14.4-9.049v-3.257l-16.959 10.658-1.987-1.454 18.946-12.96v-3.342l-21.306 14.571-2.744-2.008 24.05-16.289v-3.331l-26.414 17.89-2.469-1.807 28.883-19.919v-3.35l-31.24 21.547-2.293-1.678 33.533-24.536v-10.409h-14.4l14.4-9.049v-3.261l-16.959 10.663-1.987-1.454 18.946-12.96v-3.342l-21.306 14.574-2.744-2.008 24.05-16.289v-3.331l-26.414 17.89-2.469-1.807 28.883-19.919v-3.35l-31.24 21.543-2.293-1.678 33.533-24.532v-10.408h-14.4l14.4-9.049v-3.257l-16.959 10.654-1.987-1.454 18.946-12.96v-3.342l-21.306 14.574-2.744-2.009 24.05-16.288v-3.331l-26.414 17.89-2.469-1.807 28.883-19.919v-3.35l-31.24 21.544-2.293-1.678 33.533-24.536v-10.408h-14.4l14.4-9.049v-3.257l-16.959 10.658-1.987-1.454 18.946-12.964v-3.342l-21.306 14.578-2.744-2.009 24.05-16.288v-3.331l-26.414 17.892-2.469-1.807 28.883-19.919v-3.35l-31.24 21.541-2.293-1.678 33.533-24.536v-10.408h-14.4l14.4-9.049v-3.257l-16.959 10.663-1.987-1.454 18.946-12.96v-3.342l-21.306 14.569-2.744-2.009 24.05-16.288v-3.331l-26.414 17.89-2.469-1.807 28.883-19.919v-3.35l-31.24 21.544-2.293-1.678 33.533-24.536v-10.409h-14.4l14.4-9.049v-3.257l-16.959 10.659-1.987-1.454 18.946-12.96v-3.342l-21.306 14.574-2.744-2.009 24.05-16.288v-3.331l-26.414 17.89-2.469-1.807 28.883-19.919v-3.35l-31.24 21.543-2.293-1.678 33.533-24.536v-10.406h-14.4l14.4-9.049v-3.257l-16.959 10.656-1.987-1.454 18.946-12.96v-3.342l-21.306 14.574-2.744-2.008 24.05-16.289v-3.331l-26.414 17.89-2.469-1.807 28.883-19.923v-3.35l-31.24 21.55-2.293-1.678 33.533-24.536v-10.408h-14.4l14.4-9.049v-3.257l-16.959 10.655-1.987-1.454 18.946-12.96v-3.342l-21.306 14.575-2.744-2.009 24.05-16.288v-3.331l-26.414 17.89-2.469-1.808 28.883-19.919v-3.35l-31.24 21.544-2.292-1.675 33.533-24.536v-10.408h-14.4l14.4-9.049v-3.257l-16.96 10.65-1.987-1.454 18.946-12.96v-3.342l-21.306 14.579-2.744-2.009 24.05-16.288v-3.326l-26.414 17.884-2.469-1.807 28.883-19.919v-3.35l-31.24 21.544-2.293-1.678 33.533-24.536v-10.7h-14.4l14.4-9.049v-3.257l-16.959 10.662-1.987-1.454 18.946-12.96v-3.342l-21.306 14.574-2.744-2.008 24.05-16.288v-3.331l-26.414 17.89-2.469-1.807 28.883-19.919v-3.35L6.932 927.43l-2.293-1.678 33.533-24.536v-10.408h-14.4l14.4-9.049v-3.257L21.213 889.16l-1.987-1.454 18.946-12.96v-3.342l-21.306 14.575-2.744-2.008 24.05-16.288v-3.331l-26.414 17.89-2.469-1.807 28.883-19.919v-3.35L6.932 878.71l-2.293-1.678 33.533-24.543v-10.4h-14.4l14.4-9.049v-3.257l-16.959 10.658-1.987-1.454 18.946-12.961v-3.342l-21.306 14.575-2.744-2.009 24.05-16.288v-3.331l-26.414 17.89-2.469-1.807 28.883-19.925v-3.35l-31.24 21.55-2.293-1.678 33.533-24.536v-10.408h-14.4l14.4-9.049v-3.257l-16.959 10.658-1.987-1.454 18.946-12.961v-3.342l-21.306 14.575-2.744-2.008 24.05-16.288v-3.331L11.758 784.8l-2.469-1.811 28.883-19.919v-3.35l-31.24 21.544-2.292-1.675 33.533-24.536v-10.408h-14.4l14.4-9.048v-3.257l-16.96 10.649-1.987-1.454 18.946-12.96v-3.342l-21.306 14.575-2.744-2.009 24.05-16.288v-3.331l-26.414 17.89-2.469-1.807 28.883-19.919v-3.35l-31.24 21.545-2.293-1.678 33.533-24.536v-10.408h-14.4l14.4-9.048v-3.257l-16.959 10.659-1.987-1.454 18.946-12.96v-3.342l-21.306 14.574-2.744-2.008 24.05-16.289v-3.331l-26.414 17.89-2.469-1.807 28.883-19.919v-3.35L6.932 683.82l-2.293-1.678 33.533-24.536v-10.408h-14.4l14.4-9.049v-3.257L21.213 645.55l-1.987-1.454 18.946-12.96v-3.342l-21.306 14.575-2.744-2.009 24.05-16.288v-3.331l-26.414 17.89-2.469-1.807 28.883-19.919v-3.35L6.932 635.1l-2.293-1.678 33.533-24.536v-10.408h-14.4l14.4-9.049v-3.257L21.213 596.83l-1.987-1.454 18.946-12.961v-3.342l-21.306 14.575-2.744-2.008 24.05-16.289v-3.331l-26.414 17.89-2.469-1.807 28.883-19.919v-3.35l-31.24 21.545-2.292-1.69 33.533-24.536v-10.408h-14.4l14.4-9.049v-3.257l-16.959 10.659-1.987-1.454 18.946-12.96v-3.342l-21.306 14.575-2.744-2.009 24.05-16.289v-3.331l-26.414 17.889-2.469-1.807 28.883-19.919v-3.35l-31.24 21.544-2.293-1.678 33.533-24.536v-10.408h-14.4l14.4-9.049v-3.257l-16.959 10.659-1.987-1.454 18.946-12.96v-3.342l-21.306 14.575-2.744-2.008 24.05-16.288v-3.331l-26.414 17.89-2.469-1.807 28.883-19.919v-3.35l-31.24 21.544-2.293-1.678 33.533-24.536v-10.408h-14.4l14.4-9.049v-3.257l-16.959 10.659-1.987-1.454 18.946-12.96v-3.342l-21.306 14.575-2.744-2.009 24.05-16.288v-3.331l-26.414 17.889-2.469-1.807 28.883-19.919v-3.35l-31.24 21.544-2.293-1.678 33.532-24.538v-10.408h-14.4l14.4-9.049v-3.257l-16.959 10.658-1.987-1.454 18.946-12.96v-3.342l-21.306 14.575-2.744-2.008 24.05-16.289v-3.331l-26.414 17.889-2.469-1.807 28.883-19.917v-3.35l-31.24 21.545-2.293-1.678 33.533-24.536v-10.408h-14.4l14.4-9.049v-3.257l-16.959 10.659-1.987-1.454 18.946-12.96v-3.342l-21.306 14.575-2.744-2.009 24.05-16.289v-3.331l-26.414 17.884-2.469-1.807 28.883-19.919v-3.35l-31.24 21.544-2.293-1.678 33.533-24.536v-10.408h-14.4l14.4-9.049v-3.257l-16.959 10.66-1.987-1.454 18.946-12.96v-3.342l-21.306 14.575-2.744-2.008 24.05-16.288v-3.331l-26.414 17.888-2.469-1.807 28.883-19.919v-3.35l-31.24 21.545-2.293-1.678 33.533-24.536v-10.408h-14.4l14.4-9.048v-3.257L21.213 255.77l-1.987-1.454 18.946-12.96v-3.342l-21.306 14.575-2.744-2.009 24.05-16.288v-3.331l-26.414 17.89-2.469-1.807 28.883-19.919v-3.35l-31.24 21.544-2.293-1.678 33.533-24.536v-10.416h-14.4l14.4-9.049v-3.257l-16.959 10.658-1.987-1.454 18.946-12.96v-3.342L16.866 203.86l-2.744-2.008 24.05-16.288v-3.331l-26.414 17.889-2.469-1.807 28.883-19.919v-3.35l-31.24 21.543-2.293-1.679 33.533-24.536v-10.408h-14.4l14.4-9.049v-3.257l-16.959 10.658-1.987-1.454 18.946-12.96v-3.342l-21.306 14.575-2.744-2.009 24.05-16.289v-3.331l-26.414 17.889-2.469-1.807 28.883-19.919v-3.35l-31.24 21.548-2.292-1.68 33.533-24.536v-10.408h-14.4l14.4-9.048V98.94l-16.96 10.659-1.987-1.454 18.946-12.96v-3.342l-21.306 14.575-2.744-2.009 24.05-16.288V84.79l-26.414 17.889-2.469-1.807 28.883-19.919v-3.35L6.932 99.148 4.639 97.47l33.533-24.536V62.526h-14.4l14.4-9.048v-3.257L21.213 60.879l-1.987-1.454 18.946-12.96v-3.342L16.866 57.698l-2.744-2.008 24.05-16.288v-3.331l-26.414 17.89-2.469-1.807 28.883-19.919v-3.35L6.932 50.429 4.639 48.75l33.533-24.536V13.806h-14.4l14.4-9.049V1.5L21.213 12.158l-1.987-1.454 15.64-10.7h-4.885L16.866 8.976l-2.744-2.009L24.403.004h-4.919l-7.726 5.233L9.289 3.43 14.256.004H9.4l-2.466 1.7L4.641.025l.031-.022H0l32.646 24.376L30 26.312.021 5.304v3.368L27.65 28.033l-2.754 2.015L.021 12.339v3.385l22.53 16.039-2.02 1.478L.021 19.533v3.316l18.141 12.125-2.617 1.915L.021 26.212v11.031h15.668L0 48.723l32.646 24.376L30 75.035.021 54.027v3.368l27.629 19.36-2.754 2.015L.021 61.061v3.385l22.53 16.043-2.02 1.478L.021 68.256v3.316l18.141 12.125-2.617 1.915L.021 74.935v11.031h15.668L0 97.446l32.646 24.376L30 123.757.021 102.75v3.368l27.628 19.36-2.749 2.011L.021 109.784v3.385l22.53 16.039-2.02 1.478-20.51-13.708v3.316l18.142 12.125-2.617 1.915L.021 123.657v11.032h15.668L0 146.169l32.646 24.376L30 172.48.021 151.472v3.367L27.65 174.2l-2.754 2.015L.021 158.506v3.383l22.53 16.039-2.02 1.478-20.51-13.705v3.316l18.141 12.125-2.617 1.915L.021 172.38v11.032h15.668L0 194.889l32.646 24.376L30 221.203.021 200.195v3.368l27.629 19.36-2.754 2.015L.021 207.229v3.385l22.53 16.039-2.02 1.478-20.51-13.708v3.316l18.141 12.125-2.617 1.916L.021 221.102v11.031h15.668L0 243.614l32.646 24.375L30 269.925.021 248.917v3.372l27.629 19.356-2.754 2.015L.021 255.951v3.385l22.53 16.039-2.02 1.478-20.51-13.707v3.316l18.142 12.127-2.617 1.915L.021 269.825v11.031h15.668L0 292.336l32.646 24.376L30 318.648.021 297.64v3.368l27.628 19.36-2.754 2.015L.021 304.674v3.385l22.53 16.039-2.02 1.478-20.51-13.708v3.321l18.141 12.125-2.617 1.915L.021 318.547v11.032h15.668L0 341.059l32.646 24.376L30 367.37.021 346.362v3.368l27.629 19.359-2.754 2.015L.021 353.396v3.385l22.53 16.039-2.02 1.478-20.51-13.709v3.316l18.141 12.125-2.617 1.915L.021 367.27v11.032h15.668L0 389.781l32.646 24.376L30 416.089l-29.979-21v3.368l27.628 19.36-2.754 2.015L.021 402.119v3.385l22.53 16.039-2.02 1.478-20.51-13.707v3.316l18.141 12.125-2.617 1.915L.021 415.989v11.032h15.668L0 438.504l32.646 24.376L30 464.815.021 443.807v3.368l27.629 19.361-2.754 2.015L.021 450.842v3.385l22.53 16.039-2.02 1.478-20.51-13.708v3.316l18.141 12.125-2.617 1.915L.021 464.715v11.031h15.668L0 487.226l32.646 24.376L30 513.538.021 492.53v3.368l27.628 19.36-2.754 2.015L.021 499.564v3.385l22.53 16.04-2.02 1.478-20.51-13.708v3.316L18.162 522.2l-2.617 1.915L.021 513.438v11.031h15.668L0 535.949l32.646 24.376L30 562.26.021 541.252v3.368l27.628 19.36-2.754 2.015L.021 548.289v3.385l22.53 16.039-2.02 1.478-20.51-13.71v3.316l18.141 12.125-2.617 1.915L.021 562.16v11.029h15.668L0 584.671l32.646 24.376L30 610.983.021 589.975v3.367l27.629 19.361-2.754 2.015L.021 597.009v3.385l22.53 16.039-2.02 1.478-20.51-13.707v3.316l18.141 12.125-2.617 1.915L.021 610.883v11.032h15.668L0 633.394l32.646 24.376L30 659.705.021 638.697v3.367l27.629 19.362-2.754 2.015L.021 645.732v3.385l22.53 16.039-2.02 1.478-20.51-13.708v3.316l18.141 12.125-2.617 1.915L.021 659.605v11.031h15.668L0 682.117l32.646 24.372L30 708.428.021 687.42v3.369l27.629 19.359-2.754 2.015L.021 694.454v3.385l22.53 16.039-2.02 1.478-20.51-13.707v3.316l18.142 12.124-2.617 1.915L.021 708.328v11.031h15.668L0 730.839l32.646 24.376L30 757.15.021 736.143v3.368l27.628 19.36-2.749 2.018L.021 743.177v3.385l22.53 16.039-2.02 1.478-20.51-13.708v3.318l18.141 12.125-2.617 1.915L.021 757.05v11.031h15.668L0 779.562l32.646 24.376L30 805.873.021 784.865v3.367l27.629 19.357-2.754 2.015L.021 791.899v3.39l22.53 16.039-2.02 1.478-20.51-13.717v3.316l18.141 12.125-2.617 1.915L.021 805.773v11.032h15.668L0 828.289l32.646 24.376L30 854.596.021 833.589v3.367l27.629 19.36-2.754 2.015L.021 840.622v3.385l22.53 16.039-2.02 1.478-20.51-13.708v3.316l18.141 12.125-2.617 1.915L.021 854.495v11.031h15.668L0 877.007l32.646 24.376L30 903.318.021 882.31v3.368l27.629 19.36-2.75 2.015L.021 889.344v3.385l22.53 16.04-2.02 1.478-20.51-13.708v3.316l18.142 12.125-2.617 1.915L.021 903.218v11.031h15.668L0 925.729l32.646 24.376L30 952.041.021 931.033v3.368l27.629 19.36-2.75 2.015L.021 938.067v3.385l22.53 16.037-2.02 1.478-20.51-13.706v3.316l18.142 12.125-2.617 1.915L.021 951.94v11.032h16.063L0 974.741l32.646 24.375-2.646 1.936L.021 980.044v3.368l27.629 19.36-2.75 2.017L.021 987.078v3.385l22.53 16.039-2.02 1.478-20.51-13.707v3.316l18.142 12.125-2.617 1.915-15.525-10.677v11.031h15.668L0 1023.463l32.646 24.376-2.646 1.936-29.979-21.008v3.367l27.629 19.361-2.75 2.015-24.879-17.709v3.388l22.53 16.039-2.02 1.478-20.51-13.711v3.316l18.142 12.125-2.617 1.915-15.525-10.677v11.032h15.668L0 1072.189l32.646 24.373-2.646 1.935-29.979-21.008v3.367l27.629 19.361-2.75 2.015-24.879-17.709v3.386l22.53 16.039-2.02 1.478-20.51-13.708v3.316l18.142 12.125-2.617 1.915-15.525-10.677v11.031h15.668L0 1120.908l32.646 24.381L30 1147.22.021 1126.212v3.367l27.629 19.361-2.75 2.015-24.879-17.709v3.385l22.53 16.039-2.02 1.478-20.51-13.708v3.316l18.142 12.125-2.617 1.915-15.525-10.677v11.032h15.668L0 1169.631l32.646 24.376-2.646 1.935-29.979-21.008v3.367l27.629 19.361-2.75 2.015-24.879-17.709v3.385l22.53 16.036-2.02 1.478-20.51-13.704v3.316l18.142 12.125-2.617 1.915-15.525-10.677v11.031h15.668L0 1218.353l32.646 24.376-2.646 1.936-29.979-21.008v3.367l27.629 19.365-2.75 2.011-24.879-17.711v3.385l22.53 16.039-2.02 1.478-20.51-13.702v3.316l18.142 12.121-2.617 1.915-15.525-10.677v11.032h15.668L0 1267.076l32.646 24.376-2.646 1.937-29.979-21.01v3.367l27.629 19.361-2.75 2.015-24.879-17.708v3.385l22.53 16.039-2.02 1.478-20.51-13.708v3.316l18.142 12.125-2.617 1.915-15.525-10.675v11.03h15.668L0 1315.799l32.646 24.375L30 1342.11.021 1321.102v3.367l27.629 19.361-2.75 2.015-24.879-17.709v3.385l22.53 16.039-2.02 1.478-20.51-13.707v3.316l18.142 12.125-2.618 1.917L.021 1342.01v11.031h15.668L0 1364.521l32.646 24.376-2.646 1.935-29.979-21.008v3.365l27.629 19.364-2.75 2.014-24.879-17.708v3.385l22.53 16.039-2.02 1.478-20.51-13.708v3.316l18.142 12.125-2.617 1.915-15.525-10.677v11.032h15.668L0 1413.244l32.646 24.375-2.646 1.936-29.979-21.008v3.367l27.629 19.361-2.75 2.014-24.879-17.708v3.385l22.53 16.039-2.02 1.478-20.51-13.707v3.313l18.142 12.128-2.617 1.915-15.525-10.677v11.034h15.668L0 1461.966l32.646 24.376-2.646 1.935L.021 1467.27v3.368l27.629 19.36-2.75 2.014-24.879-17.708v3.385l22.53 16.039-2.02 1.478-20.51-13.708v3.316l18.142 12.125-2.617 1.915-15.525-10.677v11.032h15.668L0 1510.689l32.646 24.375L30 1537 .021 1515.989v3.368l27.629 19.363-2.75 2.015-24.879-17.709v3.385l22.53 16.039-2.02 1.478-20.51-13.707v3.316l18.142 12.125-2.617 1.915L.021 1536.9v11.031h15.668L0 1559.411l32.646 24.378-2.646 1.934-29.979-21.008v3.368l27.629 19.36-2.75 2.015-24.879-17.709v3.385l22.53 16.039-2.02 1.478-20.51-13.708v3.316l18.142 12.13-2.617 1.915-15.525-10.682v11.032h15.668L0 1608.134l32.646 24.375-2.646 1.936-29.979-21.008v3.367l27.629 19.361-2.75 2.015-24.879-17.709v3.385l22.53 16.039-2.02 1.478-20.51-13.707v3.316l18.142 12.125-2.617 1.915-15.525-10.677v11.031h15.668L0 1656.856l32.646 24.376-2.646 1.936L.021 1662.16v3.367l27.629 19.362-2.75 2.014-24.879-17.714v3.39l22.53 16.039-2.02 1.478-20.51-13.707v3.316l18.142 12.124-2.617 1.915-15.525-10.677v11.032h15.668L0 1705.579l32.646 24.376-2.646 1.934-29.979-21.007v3.367l27.629 19.361-2.75 2.015-24.879-17.709v3.385l22.53 16.039-2.02 1.478-20.51-13.707v3.316l18.142 12.125-2.617 1.915-15.525-10.678v11.032h15.668L0 1754.301l32.646 24.376-2.646 1.936-29.979-21.008v3.368l27.629 19.36-2.75 2.015-24.879-17.709v3.385l22.53 16.039-2.02 1.478-20.51-13.708v3.316l18.142 12.125-2.618 1.915-15.524-10.677v11.032h15.668L0 1803.024l32.646 24.376-2.646 1.935-29.979-21.008v3.368l27.629 19.36-2.75 2.015-24.879-17.708v3.385l22.53 16.042-2.02 1.478-20.51-13.711v3.316l18.142 12.125-2.617 1.915-15.525-10.677v11.031h15.668L0 1851.746l32.646 24.376-2.646 1.936L.021 1857.05v3.367l27.629 19.361-2.75 2.011-24.879-17.7v3.38l22.53 16.04-2.02 1.48-20.51-13.71v3.315l18.142 12.125-2.618 1.916-15.524-10.677v11.031h15.668z"/><path data-name="Caminho 193" d="M59.99 12.911l-2.617 1.915L41.848 4.149V15.18h15.668L41.827 26.661l32.646 24.376-2.646 1.935-29.979-21.008v3.368l27.629 19.357-2.754 2.015-24.875-17.706v3.385l22.53 16.039-2.02 1.478-20.51-13.711v3.316L59.989 61.63l-2.617 1.915-15.524-10.673v11.031h15.668l-15.689 11.48 32.646 24.376-2.646 1.935-29.979-21.005v3.368l27.628 19.36-2.754 2.015-24.874-17.711v3.385l22.53 16.04-2.02 1.478-20.51-13.709v3.316l18.141 12.125-2.617 1.915-15.524-10.677v11.032h15.668l-15.689 11.48 32.646 24.376-2.646 1.935-29.979-21.008v3.367l27.628 19.36-2.754 2.015-24.874-17.708v3.385l22.53 16.039-2.02 1.478-20.51-13.707v3.316l18.142 12.125-2.617 1.915-15.525-10.677v11.032h15.668l-15.689 11.479 32.646 24.376-2.646 1.936-29.979-21.008v3.368l27.629 19.36-2.754 2.015-24.875-17.709v3.385l22.53 16.038-2.02 1.478-20.51-13.707v3.316l18.141 12.125-2.617 1.915-15.524-10.677v11.031h15.668l-15.689 11.481 32.646 24.376-2.646 1.935-29.979-21.008v3.368l27.628 19.36-2.754 2.015-24.874-17.708v3.385l22.53 16.039-2.02 1.478-20.51-13.708v3.316l18.141 12.125-2.617 1.915-15.524-10.677v11.027h15.668l-15.689 11.484 32.646 24.376-2.646 1.94-29.979-21.012v3.368l27.628 19.36-2.754 2.015-24.874-17.709v3.385l22.53 16.039-2.02 1.478-20.51-13.708v3.316l18.141 12.125-2.617 1.915-15.524-10.672v11.032h15.668l-15.689 11.475 32.646 24.376-2.646 1.935-29.979-21.008v3.367l27.628 19.36-2.754 2.015-24.874-17.708v3.385l22.53 16.039-2.02 1.478-20.51-13.707v3.316l18.142 12.125-2.617 1.915-15.525-10.677v11.032h15.668l-15.689 11.479 32.646 24.376-2.646 1.936-29.979-21.008v3.367l27.629 19.361-2.754 2.015-24.875-17.709v3.385l22.53 16.039-2.02 1.478-20.51-13.707v3.316l18.142 12.122-2.617 1.915-15.525-10.674v11.031h15.668l-15.689 11.48 32.646 24.376-2.646 1.935-29.979-21.008v3.368l27.628 19.36-2.749 2.017-24.879-17.71v3.385l22.53 16.039-2.02 1.478-20.51-13.708v3.316l18.141 12.125-2.617 1.915-15.524-10.677v11.031h15.668l-15.689 11.48 32.646 24.376-2.646 1.936-29.979-21.008v3.368l27.628 19.36-2.754 2.015-24.874-17.709v3.388l22.53 16.039-2.02 1.478-20.51-13.71v3.316l18.141 12.125-2.617 1.915-15.524-10.678v11.031h15.668l-15.689 11.484 32.646 24.376-2.646 1.932-29.979-21.008v3.368l27.628 19.36-2.754 2.015-24.874-17.709v3.385l22.53 16.039-2.02 1.478-20.51-13.707v3.316l18.142 12.125-2.617 1.915-15.525-10.677v11.032h15.668l-15.689 11.48 32.646 24.38-2.646 1.931-29.979-21.008v3.368l27.628 19.36-2.754 2.015-24.874-17.709v3.385l22.53 16.039-2.02 1.478-20.51-13.707v3.316l18.141 12.125-2.617 1.915-15.524-10.677v11.032h15.668l-15.689 11.479 32.646 24.376-2.646 1.935-29.979-21.007v3.367l27.629 19.361-2.754 2.015-24.875-17.709v3.385l22.53 16.035-2.02 1.478-20.51-13.704v3.316l18.141 12.125-2.617 1.915-15.524-10.677v11.032h15.668l-15.689 11.48 32.646 24.375-2.646 1.936-29.979-21.008v3.368l27.629 19.364-2.754 2.015-24.875-17.715v3.385l22.53 16.039-2.02 1.478-20.51-13.702v3.316l18.141 12.125-2.617 1.915-15.524-10.68v11.031h15.668l-15.689 11.48 32.646 24.376-2.646 1.937-29.979-21.009v3.368l27.628 19.36-2.754 2.015-24.874-17.709v3.385l22.53 16.04-2.02 1.478-20.51-13.709v3.316l18.142 12.125-2.617 1.915-15.525-10.675v11.03h15.668l-15.689 11.48 32.646 24.376-2.646 1.935-29.979-21.008v3.367l27.628 19.36-2.754 2.015-24.874-17.708v3.385l22.53 16.039-2.02 1.478-20.51-13.707v3.316l18.141 12.125-2.617 1.915-15.524-10.677v11.032h15.668l-15.689 11.479 32.646 24.376-2.646 1.936-29.979-21.008v3.364l27.629 19.364-2.754 2.015-24.875-17.709v3.385l22.53 16.039-2.02 1.478-20.51-13.708v3.316l18.141 12.125-2.617 1.915-15.524-10.677v11.031h15.668l-15.689 11.481 32.646 24.375-2.646 1.936-29.979-21.008v3.368l27.629 19.36-2.75 2.014-24.879-17.708v3.385l22.53 16.039-2.02 1.478-20.51-13.707v3.313l18.142 12.128-2.617 1.915-15.525-10.677v11.034h15.668l-15.689 11.477 32.646 24.376-2.646 1.936-29.979-21.008v3.367l27.629 19.361-2.75 2.015-24.879-17.709v3.385l22.53 16.039-2.02 1.478-20.51-13.708v3.316l18.142 12.125-2.617 1.915-15.525-10.677v11.032h16.063l-16.084 11.769 32.646 24.375-2.646 1.936-29.979-21.008v3.368l27.629 19.36-2.75 2.015-24.879-17.709v3.385l22.53 16.039-2.02 1.478-20.51-13.707v3.316l18.142 12.125-2.617 1.915-15.525-10.677v11.031h15.668l-15.689 11.48 32.646 24.376-2.646 1.936-29.979-21.008v3.368l27.629 19.36-2.75 2.015-24.879-17.709v3.385l22.53 16.039-2.02 1.478-20.51-13.708v3.316l18.142 12.125-2.618 1.916-15.524-10.678v11.032h15.668l-15.689 11.48 32.646 24.375-2.646 1.936-29.979-21.008v3.363l27.629 19.365-2.75 2.015-24.879-17.709v3.385l22.53 16.044-2.02 1.478-20.51-13.712v3.316l18.142 12.125-2.617 1.915-15.525-10.677v11.031h15.668l-15.689 11.48 32.646 24.376-2.646 1.936-29.979-21.008v3.367l27.629 19.361-2.75 2.012-24.879-17.706v3.385l22.53 16.039-2.02 1.478-20.51-13.708v3.312l18.142 12.129-2.617 1.915-15.525-10.677v11.033h15.668l-15.689 11.479 32.646 24.376-2.646 1.935-29.979-21.008v3.368l27.629 19.36-2.75 2.015-24.879-17.708v3.383l22.53 16.039-2.02 1.478-20.51-13.706v3.316l18.142 12.125-2.617 1.915-15.525-10.677v11.031h15.668l-15.689 11.479 32.646 24.377-2.646 1.936-29.979-21.013v3.367l27.629 19.366-2.75 2.015-24.879-17.709v3.385l22.53 16.039-2.02 1.478-20.51-13.708v3.316l18.142 12.125-2.617 1.915-15.525-10.677v11.032h15.668l-15.689 11.48 32.646 24.376-2.646 1.935-29.979-21.008v3.367l27.629 19.361-2.75 2.015-24.879-17.708v3.385l22.53 16.039-2.02 1.478-20.51-13.708v3.316l18.142 12.128-2.617 1.915-15.525-10.68v11.031h15.668l-15.689 11.48 32.646 24.376-2.646 1.936-29.979-21.008v3.367l27.629 19.361-2.75 2.015-24.879-17.709v3.385l22.53 16.039-2.02 1.478-20.51-13.707v3.316l18.142 12.125-2.617 1.915-15.525-10.677v11.031h15.668l-15.689 11.48 32.646 24.376-2.646 1.935-29.979-21.008v3.368l27.629 19.36-2.75 2.015-24.879-17.708v3.385l22.53 16.039-2.02 1.478-20.51-13.709v3.316l18.142 12.126-2.617 1.915-15.525-10.677v11.032h15.668l-15.689 11.48 32.646 24.375-2.646 1.933-29.979-21.005v3.367l27.629 19.361-2.75 2.015-24.879-17.709v3.385l22.53 16.039-2.02 1.478-20.51-13.707v3.316l18.142 12.125-2.617 1.915-15.525-10.68v11.034h15.668l-15.689 11.48 32.646 24.376-2.646 1.935-29.979-21.008v3.367l27.629 19.362-2.75 2.014-24.879-17.708v3.385l22.53 16.039-2.02 1.478-20.51-13.708v3.316l18.142 12.125-2.618 1.913-15.524-10.675v11.032h15.668l-15.689 11.48 32.646 24.375-2.646 1.936-29.979-21.008v3.367l27.629 19.361-2.75 2.015-24.879-17.709v3.386l22.53 16.04-2.02 1.478-20.51-13.709v3.316l18.142 12.125-2.617 1.915-15.525-10.677v11.031h15.668l-15.689 11.48 32.646 24.376-2.646 1.935-29.979-21.007v3.367l27.629 19.361-2.75 2.015-24.879-17.706v3.385l22.53 16.039-2.02 1.478-20.51-13.711v3.316l18.142 12.125-2.617 1.915-15.525-10.677v11.03h15.668l-15.689 11.482 32.646 24.375-2.646 1.936-29.979-21.008v3.367l27.629 19.361-2.75 2.015-24.879-17.709v3.381l22.53 16.039-2.02 1.478-20.51-13.703v3.316l18.142 12.125-2.617 1.915-15.525-10.677v11.031h15.668l-15.689 11.476 32.646 24.38-2.646 1.936-29.979-21.008v3.368l27.629 19.36-2.75 2.015-24.879-17.709v3.385l22.53 16.039-2.02 1.478-20.51-13.708v3.316l18.142 12.125-2.617 1.915-15.525-10.677v11.032h15.668l-15.689 11.48 32.646 24.373-2.646 1.938-29.979-21.008v3.37l27.629 19.358-2.75 2.015-24.879-17.709v3.386l22.53 16.039-2.02 1.478-20.51-13.708v3.316l18.142 12.125-2.617 1.915-15.525-10.677v11.031h15.668l-15.689 11.48 32.646 24.376-2.646 1.936-29.979-21.008v3.367l27.629 19.361-2.75 2.019-24.879-17.713v3.385L64.378 1764l-2.02 1.478-20.51-13.708v3.319l18.142 12.122-2.617 1.915-15.525-10.677v11.032h15.668l-15.689 11.48 32.646 24.376-2.646 1.935-29.979-21.008v3.368l27.629 19.357-2.75 2.018-24.879-17.709v3.386l22.53 16.039-2.02 1.478-20.51-13.712v3.32l18.142 12.125-2.618 1.915-15.524-10.677v11.031h15.668l-15.689 11.48 32.646 24.376-2.646 1.936-29.979-21.006v3.365l27.629 19.361-2.75 2.015-24.879-17.709v3.385l22.53 16.04-2.02 1.478-20.51-13.708v3.315l18.142 12.125-2.617 1.915-15.525-10.677v11.032h15.668l-15.689 11.48 14.174 10.583h5.226l18.772-12.845v-3.342l-21.306 14.575-2.744-2.008 24.05-16.289v-3.331l-26.414 17.89-2.469-1.807 28.883-19.92v-3.35l-31.24 21.545-2.292-1.679 33.532-24.539v-10.4h-14.4l14.4-9.049v-3.257l-16.959 10.654-1.987-1.454 18.946-12.96v-3.342l-21.306 14.574-2.744-2.009 24.05-16.289v-3.331l-26.414 17.89-2.469-1.807 28.883-19.92v-3.35l-31.24 21.55-2.292-1.683 33.532-24.536v-10.409h-14.4l14.4-9.049v-3.257l-16.959 10.659-1.987-1.454 18.946-12.96v-3.342l-21.306 14.574-2.744-2.008 24.05-16.289v-3.331l-26.414 17.885-2.469-1.8 28.883-19.919v-3.35l-31.24 21.542-2.293-1.678 33.533-24.536v-10.409h-14.4l14.4-9.05v-3.257l-16.959 10.657-1.987-1.454 18.946-12.96v-3.342l-21.306 14.577-2.744-2.008 24.05-16.289v-3.331l-26.414 17.889-2.469-1.807 28.883-19.919v-3.35l-31.24 21.544-2.293-1.678 33.533-24.536v-10.408h-14.4l14.4-9.049v-3.257l-16.959 10.658-1.987-1.454 18.946-12.96v-3.342l-21.306 14.576-2.744-2.008 24.05-16.292v-3.331l-26.414 17.891-2.469-1.807 28.883-19.919v-3.35l-31.24 21.544-2.293-1.678 33.533-24.536v-10.414h-14.4l14.4-9.049v-3.251l-16.959 10.657-1.987-1.454 18.946-12.96v-3.343l-21.306 14.576-2.744-2.009 24.05-16.288v-3.331l-26.414 17.889-2.469-1.807 28.883-19.919v-3.35l-31.24 21.539-2.293-1.678 33.533-24.532v-10.408h-14.4l14.4-9.049v-3.257l-16.959 10.659-1.987-1.454 18.946-12.96v-3.342l-21.306 14.574-2.744-2.009 24.05-16.288v-3.331l-26.414 17.89-2.469-1.807 28.883-19.919v-3.35l-31.24 21.543-2.292-1.682L80 1561.553v-10.404H65.6L80 1542.1v-3.257l-16.96 10.658-1.987-1.454 18.946-12.958v-3.342l-21.306 14.573-2.744-2.009 24.05-16.288v-3.334l-26.414 17.89-2.469-1.807 28.883-19.919v-3.35l-31.24 21.546-2.293-1.678 33.533-24.536v-10.408h-14.4l14.4-9.049v-3.257l-16.959 10.658-1.987-1.454 18.946-12.96v-3.342l-21.306 14.574-2.744-2.009 24.05-16.288v-3.331l-26.414 17.89-2.469-1.807 28.883-19.919v-3.35l-31.24 21.543-2.293-1.678 33.533-24.536v-10.408h-14.4l14.4-9.049v-3.257l-16.959 10.658-1.987-1.454 18.946-12.961v-3.342l-21.306 14.576-2.744-2.009 24.05-16.288v-3.331l-26.414 17.89-2.469-1.807 28.883-19.919v-3.35l-31.24 21.543-2.293-1.678 33.533-24.537v-10.408h-14.4l14.4-9.049v-3.257l-16.959 10.659-1.987-1.454 18.946-12.96v-3.342l-21.306 14.574-2.744-2.009 24.05-16.288v-3.331l-26.414 17.89-2.469-1.807 28.883-19.918v-3.35l-31.24 21.542-2.293-1.678 33.533-24.536v-10.408h-14.4l14.4-9.049v-3.257l-16.959 10.658-1.987-1.454 18.946-12.961v-3.342l-21.306 14.576-2.744-2.009 24.05-16.288v-3.331l-26.414 17.887-2.469-1.807 28.883-19.919v-3.35l-31.24 21.546-2.293-1.678 33.533-24.536v-10.408h-14.4l14.4-9.049v-3.257l-16.959 10.658-1.987-1.454 18.946-12.96v-3.342l-21.306 14.574-2.744-2.009 24.05-16.288v-3.331l-26.414 17.89-2.469-1.807 28.883-19.919v-3.35l-31.24 21.543-2.293-1.678 33.533-24.536v-10.408h-14.4l14.4-9.049v-3.257l-16.959 10.658-1.987-1.454 18.946-12.96v-3.342l-21.306 14.579-2.744-2.009 24.05-16.291v-3.331l-26.414 17.89-2.469-1.807 28.883-19.922v-3.35l-31.24 21.545-2.293-1.678 33.533-24.537v-10.41h-14.4l14.4-9.049v-3.251l-16.959 10.655-1.987-1.455 18.946-12.96v-3.34l-21.306 14.573-2.744-2.009 24.05-16.289v-3.331l-26.414 17.89-2.469-1.807 28.883-19.919v-3.35l-31.24 21.542-2.293-1.678 33.533-24.536v-10.408h-14.4l14.4-9.049v-3.257l-16.959 10.66-1.987-1.454 18.946-12.96v-3.342l-21.306 14.574-2.744-2.008 24.05-16.289v-3.331l-26.414 17.89-2.469-1.812 28.883-19.919v-3.35l-31.24 21.549-2.292-1.68L80 1123.053v-10.408H65.6l14.4-9.049v-3.257l-16.96 10.66-1.987-1.454 18.946-12.96v-3.342l-21.306 14.574-2.744-2.008 24.05-16.289v-3.331l-26.414 17.89-2.469-1.807 28.883-19.919v-3.35l-31.24 21.543-2.293-1.678 33.533-24.536v-10.408h-14.4l14.4-9.049v-3.257l-16.959 10.658-1.987-1.454 18.946-12.96v-3.342l-21.306 14.574-2.744-2.008 24.05-16.289v-3.331l-26.414 17.89-2.469-1.807 28.883-19.92v-3.35l-31.24 21.544-2.293-1.678 33.533-24.536v-10.408h-14.4l14.4-9.049v-3.257l-16.959 10.658-1.987-1.454 18.946-12.96v-3.342l-21.306 14.575-2.744-2.008 24.05-16.289v-3.331l-26.414 17.89-2.469-1.807 28.883-19.919v-3.35l-31.24 21.543-2.293-1.678 33.533-24.534v-10.408h-14.4l14.4-9.049v-3.257L63.04 964.831l-1.987-1.454 18.946-12.96v-3.342l-21.306 14.574-2.744-2.008 24.05-16.289v-3.331l-26.414 17.89-2.469-1.807 28.883-19.915v-3.35l-31.24 21.539-2.293-1.678 33.533-24.536v-10.7h-14.4l14.4-9.049v-3.257L63.04 915.82l-1.987-1.454 18.946-12.96v-3.342l-21.306 14.574-2.744-2.009 24.05-16.288v-3.331l-26.414 17.889-2.469-1.81 28.883-19.919v-3.35l-31.24 21.547-2.292-1.678L80 879.153v-10.408H65.6l14.4-9.048v-3.257l-16.959 10.659-1.987-1.454L80 852.685v-3.342l-21.306 14.575-2.744-2.009L80 845.621v-3.331l-26.414 17.89-2.469-1.807L80 838.454v-3.35l-31.24 21.545-2.293-1.678L80 830.435v-10.408H65.6l14.4-9.049v-3.257l-16.959 10.658-1.987-1.454L80 803.965v-3.342l-21.307 14.566-2.744-2.008 24.05-16.288v-3.331l-26.414 17.89-2.469-1.807 28.883-19.919v-3.35l-31.24 21.545-2.293-1.679 33.533-24.536v-10.408h-14.4l14.4-9.049v-3.26L63.04 769.647l-1.987-1.454 18.946-12.961v-3.342l-21.306 14.575-2.744-2.009 24.05-16.289v-3.331l-26.414 17.889-2.469-1.807 28.883-19.919v-3.35l-31.24 21.55-2.293-1.678 33.533-24.532v-10.408h-14.4l14.4-9.049v-3.257L63.04 720.929l-1.987-1.454 18.946-12.96v-3.342l-21.306 14.575-2.744-2.009 24.05-16.289v-3.331l-26.414 17.89-2.469-1.807 28.883-19.919v-3.35l-31.24 21.544-2.293-1.678 33.533-24.536v-10.408h-14.4l14.4-9.049v-3.257L63.04 672.208l-1.987-1.454 18.946-12.96v-3.342l-21.306 14.575-2.744-2.009 24.05-16.288v-3.331l-26.414 17.89-2.469-1.807 28.883-19.919v-3.35l-31.24 21.544-2.293-1.678 33.533-24.536v-10.408h-14.4l14.4-9.049v-3.257l-16.959 10.66-1.987-1.454 18.946-12.96v-3.342l-21.306 14.575-2.744-2.008 24.05-16.288v-3.331l-26.414 17.89-2.469-1.807 28.883-19.919v-3.35l-31.24 21.545-2.293-1.678 33.533-24.536v-10.408h-14.4l14.4-9.049v-3.257L63.04 574.77l-1.987-1.454 18.946-12.961v-3.342l-21.306 14.575-2.744-2.008 24.05-16.289v-3.331l-26.414 17.89-2.469-1.807 28.883-19.919v-3.35l-31.24 21.535-2.293-1.678 33.533-24.536v-10.406h-14.4l14.4-9.049v-3.257L63.04 526.039l-1.987-1.454 18.946-12.96v-3.342l-21.306 14.575-2.744-2.008 24.05-16.289v-3.331l-26.414 17.889-2.469-1.807 28.883-19.923v-3.35l-31.24 21.55-2.293-1.678 33.533-24.536v-10.408h-14.4l14.4-9.049v-3.257L63.04 477.32l-1.987-1.454 18.946-12.96v-3.342l-21.306 14.575-2.744-2.009 24.05-16.288v-3.331L53.585 470.4l-2.469-1.807 28.883-19.919v-3.35l-31.24 21.544-2.292-1.679L80 440.653v-10.408H65.6l14.4-9.048v-3.257l-16.959 10.659-1.987-1.454L80 414.185v-3.342l-21.306 14.575-2.744-2.008L80 407.122v-3.331L53.586 421.68l-2.469-1.807L80 399.954v-3.35l-31.24 21.544-2.293-1.679L80 391.933v-10.408H65.6l14.4-9.049v-3.257l-16.959 10.658-1.987-1.454L80 365.463v-3.342l-21.307 14.568-2.744-2.009 24.05-16.288v-3.331L53.585 372.95l-2.469-1.807 28.883-19.919v-3.35l-31.24 21.545-2.293-1.678 33.533-24.536v-10.408h-14.4l14.4-9.049v-3.257L63.04 331.149l-1.987-1.454 18.946-12.96v-3.342l-21.306 14.575-2.744-2.008 24.05-16.289v-3.331l-26.414 17.889-2.469-1.807 28.883-19.919v-3.35l-31.24 21.545-2.293-1.678 33.533-24.536v-10.408h-14.4l14.4-9.048v-3.257L63.04 282.43l-1.987-1.454 18.946-12.96v-3.342l-21.306 14.575-2.744-2.009 24.05-16.288v-3.331l-26.414 17.89-2.469-1.807 28.883-19.919v-3.35l-31.24 21.544-2.293-1.678 33.533-24.536v-10.408h-14.4l14.4-9.048v-3.257L63.04 233.71l-1.987-1.454 18.946-12.96v-3.342l-21.306 14.575-2.744-2.008 24.05-16.288v-3.331l-26.414 17.89-2.469-1.807 28.883-19.919v-3.35l-31.24 21.545-2.293-1.678 33.533-24.536v-10.408h-14.4l14.4-9.049v-3.257L63.04 184.991l-1.987-1.454 18.946-12.961v-3.342l-21.306 14.575-2.744-2.009 24.05-16.288v-3.331l-26.414 17.89-2.469-1.807 28.883-19.919v-3.356l-31.24 21.54-2.293-1.679 33.533-24.536v-10.408h-14.4l14.4-9.049V125.6L63.04 136.259l-1.987-1.454 18.946-12.961v-3.342l-21.306 14.575-2.744-2.008 24.05-16.288v-3.331l-26.414 17.889-2.469-1.807 28.883-19.919v-3.35l-31.24 21.545-2.293-1.678 33.533-24.541V89.181h-14.4l14.4-9.049v-3.257L63.04 87.534l-1.987-1.455 18.946-12.96v-3.342L58.693 84.352l-2.744-2.009 24.05-16.288v-3.331L53.585 80.613l-2.469-1.807 28.883-19.917v-3.35l-31.24 21.544-2.293-1.678 33.533-24.536V40.461h-14.4l14.4-9.048v-3.257L63.04 38.814l-1.987-1.454L79.999 24.4v-3.342L58.693 35.633l-2.744-2.009 24.05-16.288v-3.331L53.585 31.889l-2.469-1.807 28.883-19.919v-3.35l-31.24 21.545-2.293-1.678L79.999 2.144V-.002h-8.624l3.1 2.313-2.648 1.938L65.764 0h-4.805l8.517 5.969-2.749 2.02L55.513.006h-4.759l13.624 9.7-2.02 1.478L45.635.007h-3.787v.785z"/></g></svg>