<svg id="Grupo_39" data-name="Grupo 39" xmlns="http://www.w3.org/2000/svg" width="120" height="99.681" viewBox="0 0 120 99.681">
  <path id="Caminho_112" data-name="Caminho 112" d="M134.752,195.735a1.132,1.132,0,0,1-.251,0H116.955q-.084,5.326-.24,10.651c-1.39-.243-2.784-.485-4.182-.68q-.012-4.462-.023-8.924c-1.487.007-2.973.086-4.46.148-.23,2.786-.34,5.58-.378,8.375-2.792-.058-5.607.138-8.388.221l-3.936.117q.075-4.674.26-9.345c-1.645-.025-3.289-.051-4.932.017.239,3.147.4,6.3.494,9.453l-12.574.375c-.086-2.859-.085-5.72.019-8.579.013-.375.031-.749.049-1.124H75.446c.015,1.3.111,2.61.2,3.912.129,1.968.125,3.934.134,5.9a1.1,1.1,0,0,0-.178.042,67.406,67.406,0,0,1-11.165,2.572q-.053-1.963-.109-3.925-.126-4.326-.273-8.65a31.919,31.919,0,0,1-4.407-.084l.1,18.325c.042,7.5.144,15,.027,22.5-.066,4.2-.213,8.391-.51,12.578a.262.262,0,0,0,.161.277l.3-.013a.36.36,0,0,0,.049-.026H60.2c1.344-.085,2.686-.248,4.034-.33.311-.019.623-.034.935-.047q-.075-8.317-.216-16.634,2.893.073,5.786.122-.087,8.235-.271,16.469l.978.005c.494,0,.988.008,1.481.012q-.022-6.5.162-12.995.05-1.729.116-3.458,1.871.025,3.743.043l-.339,14.1-.056,2.35q1.265.019,2.531.039-.024-6.6-.047-13.206-.006-1.637-.012-3.274,2.457.013,4.914.008.093,8.275.3,16.548c.446.005.891.013,1.337.017.566.005,1.132.006,1.7.008q-.258-6.64.077-13.284c.056-1.1.128-2.2.209-3.3,1.289-.009,2.579-.025,3.868-.042.028,1.789.065,3.577.124,5.366.125,3.758.334,7.514.676,11.258q2.435-.015,4.869-.049-.794-8.309-1.235-16.647,2.6-.05,5.191-.118.02,8.354.04,16.708l2.9-.045q-.2-6.392-.15-12.789.018-1.976.061-3.952c1.394-.043,2.787-.093,4.181-.144-.025,2.189-.091,4.379-.219,6.568a98.5,98.5,0,0,0-.309,10.263q1.84-.026,3.681-.046c.373,0,.745-.005,1.118-.007l.655-.008c-.538-6.643-.4-13.338-.422-20q-.026-10.321-.052-20.643,2.044.2,4.095.326-.017.54-.034,1.08c-.047,1.38-.1,2.194-.152,3.51,1.261.092,2.525.146,3.789.171,2.777.056,5.554-.007,8.331-.005.529,0,1.058.007,1.587.015V209.27s2.544.7,2.544,1.12v3.318c1.19.013,2.379.085,3.569.1.208-4.921.417-9.286.625-14.245l.148-3.535c-.005-.1-.008-.194-.013-.291ZM75.827,209.027c.021.506.048,1.012.09,1.517l-5.4-.26Zm-.489,3.7,2.222.206C75.786,215.07,74,217.2,72.188,219.3q-1.839-2.341-3.627-4.721-.988-1.322-1.957-2.658Zm-10.479,14.5q-.133-6.994-.314-13.987l6.09,7.826c-1.123,1.268-2.259,2.523-3.424,3.753Q66.054,226.043,64.859,227.228Zm5.371,3q-2.586-.057-5.171-.143,3.369-3.741,6.854-7.374l3.389,4.355,2.542,3.267Q74.037,230.308,70.23,230.227Zm7.928-3.6q-2.35-2.775-4.615-5.619,1.278-1.317,2.569-2.621a27.762,27.762,0,0,0,2.269-2.379Q78.192,221.315,78.158,226.627Zm.645-15.944q-.051-.79-.09-1.581,5.173-.144,10.343-.4c.73-.036,1.459-.076,2.189-.115q.029,1.354.049,2.708-5.044-.253-10.088-.5Zm4.825,5.421q-.978-1.418-1.957-2.835c1.543.091,3.085.131,4.631.165q1.538.034,3.066.166-1.943,2.617-3.838,5.269Q84.579,217.487,83.628,216.1Zm.344,4.967q-1.132,1.613-2.248,3.239c-.362.529-.719,1.061-1.077,1.592l.065-9.977Q82.279,218.538,83.972,221.071Zm-2.312,9.274c-.468,0-.935,0-1.4,0,1.5-2.258,3-4.515,4.618-6.691.149-.2.3-.4.453-.6q1.444,2.069,2.975,4.076c.8,1.046,1.609,2.083,2.418,3.121Q86.192,230.338,81.661,230.345Zm5.3-9.4c.176-.229.351-.458.524-.69.793-1.064,1.5-2.184,2.235-3.29.508-.767,1.034-1.524,1.612-2.237,0,.316.007.631.008.947.022,3.9.014,7.8.034,11.706Q89.168,224.163,86.957,220.948Zm8.355-12.3,10.015-.484,2.328-.113q.006,2.319.058,4.637-5-.5-10.025-.774-1.2-.063-2.392-.112Q95.3,210.225,95.312,208.648Zm9.073,5.893q-1.359,1.877-2.865,3.639-1.488-1.966-2.929-3.967Q101.488,214.358,104.385,214.541Zm-8.8,12.3q-.235-6.237-.276-12.478,2.379,3.248,4.87,6.412Zm2.849,3.067-1.518-.031q2.347-3.605,4.86-7.1,1.7,2.117,3.443,4.2,1.328,1.576,2.685,3.127Zm4.939-9.31c.67-.9,1.344-1.806,2.032-2.7q1.164-1.511,2.363-3c.016.614.03,1.228.048,1.841.094,3.21.19,6.42.242,9.63Q105.664,223.534,103.375,220.6Z" transform="translate(-56.998 -150.281)" fill="#cc3e00"/>
  <path id="Caminho_113" data-name="Caminho 113" d="M299.283,276.446q-.014-.753-.02-1.506l-18.939-.2v14.567h1.57l2.881-4.778,2.515,4.746c.294-.005.588-.013.881-.02h0l.284-.008.167,0,.19-.005h.007c.334-.01.667-.02,1-.033l3.96-5.362,4.39,5.853c.348.008.7.02,1.044.031,0-.674-.056-1.345-.1-2.018l-4.237-5.358,4.363-5.908Zm-17.162,8.87q.053-2.9,0-5.791l1.672,3.155C283.148,283.705,282.557,284.639,282.121,285.316Zm.313-8.892,5.11.255c-.641,1.032-1.664,2.674-2.695,4.321Zm5.768,10.932-2.4-4.539,2.543-4.217Zm1.79-1.149q.073-3.609.145-7.218l2.618,3.491Zm3.84-5.179-3.322-4.2,6.208.309Z" transform="translate(-219.635 -208.405)" fill="#cc3e00"/>
  <path id="Caminho_114" data-name="Caminho 114" d="M290.4,357.394q1.786-.02,3.572-.044.036-4.949.073-9.9l.022-2.966c4.7.105,9.4.159,14.1.112l.262,12.561q1.209-.012,2.418-.02c-.13-3.334-.192-6.671-.164-10.008.007-.856.022-1.713.04-2.569q3.021-.054,6.042-.175.358,6.36.435,12.731,1.479,0,2.957.011a94.041,94.041,0,0,1,.018-9.6c.047-.873.113-1.744.187-2.615q2.308-.062,4.615-.062.082,6.167.165,12.334,1.325.023,2.65.055c0-1.427-.008-2.855-.033-4.282q-.071-4.046-.265-8.089,4.515.067,9.025.374.011,5.947-.034,11.893c.774-.048,1.55-.084,2.324-.1q.026-4.735.052-9.471.012-2.168.024-4.335a.3.3,0,0,0-.045-.166v-.675l-35.646-.228s-17.962-.316-23.009-.4a17.956,17.956,0,0,0,.122,2.314c3.443.118,6.886.233,10.331.326Q290.512,350.9,290.4,357.394Z" transform="translate(-219.529 -257.713)" fill="#cc3e00"/>
  <path id="Caminho_115" data-name="Caminho 115" d="M387.258,341.757" transform="translate(-298.308 -257.71)" fill="#cc3e00"/>
  <path id="Caminho_116" data-name="Caminho 116" d="M91.143,37.006h9.788l.218-1.679,4.9,2.147L96.354,23.749,85.571,36.821l5.989-1.494Z" transform="translate(-76.355 -23.749)" fill="#cc3e00"/>
  <path id="Caminho_117" data-name="Caminho 117" d="M106.364,84.56c1.991.16,3.983.31,5.976.435L109.9,80.809H99.559l-1.8,3.276C100.624,84.305,103.518,84.332,106.364,84.56Z" transform="translate(-85.324 -65.729)" fill="#cc3e00"/>
  <path id="Caminho_118" data-name="Caminho 118" d="M78.814,100.809c-2.5-.145-4.994-.332-7.489-.534-3.031-.245-6.1-.274-9.135-.54L50.7,120.691l40,.51Z" transform="translate(-50.698 -79.653)" fill="#cc3e00"/>
  <path id="Caminho_119" data-name="Caminho 119" d="M402.459,50.505c3.311.228,6.622.471,9.935.671V48.72l6.149,2.756-9.753-14.63L395.432,52.112l7.633-4.028Z" transform="translate(-304.322 -33.385)" fill="#cc3e00"/>
  <path id="Caminho_120" data-name="Caminho 120" d="M399.205,111.45c-5.166-.409-10.34-.711-15.486-1.322l-10.043,19.095,16.995.123,17.645,1.021Z" transform="translate(-288.317 -87.299)" fill="#cc3e00"/>
  <path id="Caminho_121" data-name="Caminho 121" d="M428.758,98.617,427.5,96.011c-3.753-.218-7.5-.5-11.252-.755l-1.166,2.217C419.628,97.992,424.2,98.272,428.758,98.617Z" transform="translate(-318.78 -76.357)" fill="#cc3e00"/>
  <path id="Caminho_122" data-name="Caminho 122" d="M239.861,142.138c1.2-1.94,2.367-3.9,3.446-5.9l-29.452.206-20.049-.6c2.188,3.962,4.738,7.7,7.268,11.458H236.6C237.592,145.532,238.806,143.846,239.861,142.138Z" transform="translate(-155.984 -106.214)" fill="#cc3e00"/>
  <path id="Caminho_123" data-name="Caminho 123" d="M403.39,231.825q-.022-.655-.025-1.31-.029-.876-.028-1.753c0-2.222.049-4.445.056-6.667.015-4.493-.041-8.986-.2-13.477q-.128-3.671-.353-7.339c-1.628-.081-3.256-.222-4.891-.276-3.153-.1-6.321-.069-9.475-.09-6.553-.043-13.1-.063-19.651-.284-.007.4-.011.81-.039,1.213-.009.134-.021.267-.033.4-.14,3.846-.352,7.689-.551,11.532-.24,4.635-.458,9.273-.5,13.914-.023,2.6.011,4.353.126,6.951a.311.311,0,0,0,.05.156c.577-.029,1.155-.027,1.733-.006,4.18-.29,8.377-.176,12.564-.1l13.763.258,3.864.072a15.577,15.577,0,0,0,3.691-.154l.02-.007q-.006-.683-.006-1.366C403.456,232.657,403.418,232.664,403.39,231.825Zm-22.378-12.032-7.457-.477.248-14.576,7.209.848Zm15.313.064h-7.773l.729-14.694h7.674Z" transform="translate(-283.917 -153.883)" fill="#cc3e00"/>
</svg>
