<svg xmlns="http://www.w3.org/2000/svg" width="1287.946" height="54.545"><g data-name="Grupo 107" fill="#cc3e00"><path data-name="Caminho 192" d="M0 10.7v3.184l8.887 12.142h7.1V16.21l6.17 9.817h2.221l-7.272-11.564.992-1.355 8.837 12.918h2.279L19.276 11.5l1.369-1.871 11.106 16.4h2.271l-12.2-18.01 1.232-1.683 13.584 19.69h2.284L24.233 4.727l1.144-1.563 16.73 22.862h7.1V16.21l6.17 9.817h2.221l-7.272-11.564.992-1.355 8.837 12.918h2.279L52.5 11.5l1.369-1.871 11.106 16.4h2.271l-12.2-18.01 1.232-1.683 13.58 19.69h2.284L57.453 4.727 58.6 3.163l16.726 22.863h7.1V16.21l6.17 9.817h2.221l-7.271-11.564.992-1.355 8.837 12.918h2.279L85.716 11.5l1.369-1.871 11.106 16.4h2.271l-12.2-18.01L89.5 6.333l13.581 19.693h2.284L90.673 4.727l1.144-1.563 16.729 22.863h7.1V16.21l6.17 9.817h2.221l-7.267-11.563.992-1.355 8.837 12.918h2.279L118.935 11.5l1.365-1.871 11.106 16.4h2.271l-12.2-18.01 1.232-1.683 13.591 19.69h2.284l-14.689-21.3 1.144-1.563 16.729 22.863h7.1V16.21l6.17 9.817h2.221l-7.267-11.563.992-1.355 8.837 12.918h2.279L152.155 11.5l1.369-1.871 11.106 16.4h2.27L154.7 8.017l1.232-1.683 13.581 19.693h2.287l-14.689-21.3 1.144-1.563 16.729 22.863h7.1V16.21l6.17 9.817h2.221l-7.267-11.563.992-1.355 8.837 12.918h2.279L185.375 11.5l1.369-1.871 11.106 16.4h2.271l-12.2-18.01 1.232-1.683 13.581 19.693h2.284l-14.689-21.3 1.144-1.563 16.729 22.863h7.1V16.21l6.17 9.817h2.221l-7.267-11.563.992-1.355 8.837 12.918h2.279L218.6 11.5l1.369-1.871 11.106 16.4h2.271l-12.2-18.01 1.232-1.683 13.581 19.693h2.284l-14.689-21.3 1.146-1.566 16.729 22.863h7.1V16.21l6.169 9.817h2.221l-7.267-11.563.992-1.355 8.837 12.918h2.279L251.815 11.5l1.369-1.871 11.106 16.4h2.271l-12.2-18.01 1.239-1.686 13.581 19.693h2.284l-14.689-21.3 1.144-1.563 16.729 22.863h7.1V16.21l6.169 9.817h2.221l-7.267-11.563.992-1.355 8.837 12.918h2.279L285.035 11.5l1.365-1.871 11.106 16.4h2.271l-12.2-18.01 1.232-1.683 13.591 19.69h2.284l-14.689-21.3 1.144-1.563 16.729 22.863h7.1V16.21l6.169 9.817h2.221l-7.267-11.563.992-1.355 8.837 12.918h2.279L318.255 11.5l1.369-1.871 11.106 16.4H333L320.8 8.017l1.232-1.683 13.581 19.693h2.287l-14.689-21.3 1.144-1.563 16.729 22.863h7.1V16.21l6.169 9.817h2.221l-7.267-11.563.992-1.355 8.837 12.918h2.279l-9.94-14.527 1.369-1.871 11.106 16.4h2.271l-12.2-18.01 1.232-1.683 13.581 19.693h2.284l-14.689-21.3 1.144-1.563 16.729 22.863h7.1V16.21l6.169 9.817h2.221l-7.267-11.563.992-1.355 8.837 12.918h2.279L384.695 11.5l1.369-1.871 11.106 16.4h2.271l-12.2-18.01 1.232-1.683 13.581 19.693h2.284l-14.689-21.3 1.151-1.566 16.729 22.863h7.1V16.21l6.169 9.817h2.221l-7.267-11.563.992-1.355 8.837 12.918h2.279L417.915 11.5l1.369-1.871 11.106 16.4h2.271l-12.2-18.01 1.239-1.686 13.581 19.693h2.284l-14.689-21.3 1.144-1.563 16.729 22.863h7.1V16.21l6.169 9.817h2.221l-7.267-11.563.992-1.355 8.837 12.918h2.278L451.135 11.5l1.365-1.871 11.106 16.4h2.271l-12.2-18.01 1.232-1.683 13.591 19.69h2.284l-14.689-21.3 1.144-1.563 16.729 22.863h7.1V16.21l6.169 9.817h2.221l-7.267-11.563.992-1.355 8.837 12.918h2.279L484.354 11.5l1.369-1.871 11.106 16.4h2.271L486.9 8.017l1.232-1.683 13.581 19.693H504l-14.689-21.3 1.144-1.563 16.729 22.863h7.1V16.21l6.17 9.817h2.221l-7.267-11.563.992-1.355 8.837 12.918h2.279L517.574 11.5l1.369-1.871 11.106 16.4h2.271l-12.2-18.01 1.232-1.683 13.581 19.693h2.284l-14.689-21.3 1.144-1.563 16.729 22.863h7.1V16.21l6.17 9.817h2.221l-7.267-11.563.992-1.355 8.837 12.918h2.279L550.794 11.5l1.369-1.871 11.106 16.4h2.271l-12.2-18.01 1.232-1.683 13.581 19.693h2.284l-14.689-21.3 1.152-1.566 16.729 22.863h7.1V16.21l6.17 9.817h2.221l-7.267-11.563.992-1.355 8.837 12.918h2.279L584.014 11.5l1.369-1.871 11.106 16.4h2.271l-12.2-18.01 1.24-1.686 13.581 19.693h2.284l-14.689-21.3 1.144-1.563 16.729 22.863h7.1V16.21l6.17 9.817h2.221l-7.267-11.563.992-1.355 8.837 12.918h2.279L617.234 11.5l1.366-1.871 11.106 16.4h2.271l-12.2-18.01 1.232-1.683 13.591 19.69h2.284l-14.689-21.3 1.144-1.563 16.729 22.863h7.293V16.21l6.169 9.817h2.221l-7.267-11.563.992-1.355 8.837 12.918h2.279L650.651 11.5l1.369-1.871 11.106 16.4h2.274L653.2 8.017l1.232-1.683 13.581 19.693h2.287l-14.689-21.3 1.144-1.563 16.729 22.863h7.1V16.21l6.169 9.817h2.221L681.7 14.463l.992-1.355 8.837 12.918h2.279L683.871 11.5l1.369-1.871 11.106 16.4h2.271l-12.2-18.01 1.232-1.683 13.581 19.693h2.284l-14.689-21.3 1.144-1.563 16.731 22.86h7.1V16.21l6.17 9.817h2.221l-7.267-11.563.992-1.355 8.837 12.918h2.279L717.091 11.5l1.369-1.871 11.106 16.4h2.271l-12.2-18.01 1.232-1.683 13.581 19.693h2.284l-14.689-21.3 1.144-1.563 16.729 22.863h7.1V16.21l6.169 9.817h2.221l-7.267-11.563.991-1.355 8.837 12.918h2.279L750.311 11.5l1.369-1.871 11.106 16.4h2.271l-12.2-18.01 1.232-1.683 13.581 19.693h2.284l-14.689-21.3 1.144-1.563 16.729 22.863h7.1V16.21l6.169 9.817h2.221l-7.267-11.563.992-1.355 8.837 12.918h2.279L783.531 11.5l1.369-1.871 11.106 16.4h2.271l-12.2-18.01 1.232-1.683 13.581 19.693h2.284l-14.689-21.3 1.144-1.563 16.729 22.863h7.1V16.21l6.169 9.817h2.221l-7.267-11.563.992-1.355 8.837 12.918h2.279L816.751 11.5l1.369-1.871 11.106 16.4h2.274L819.3 8.017l1.232-1.683 13.581 19.693h2.287l-14.689-21.3 1.144-1.563 16.729 22.863h7.1V16.21l6.17 9.817h2.221L847.8 14.463l.992-1.355 8.837 12.918h2.279L849.971 11.5l1.369-1.871 11.106 16.4h2.271l-12.2-18.01 1.232-1.683 13.581 19.693h2.284l-14.69-21.3 1.144-1.563 16.732 22.86h7.1V16.21l6.17 9.817h2.221l-7.267-11.563.991-1.355 8.837 12.918h2.279L883.19 11.5l1.369-1.871 11.106 16.4h2.271l-12.2-18.01 1.232-1.683 13.581 19.693h2.284l-14.69-21.3 1.144-1.563 16.729 22.863h7.1V16.21l6.17 9.817h2.221l-7.267-11.563.992-1.355 8.837 12.918h2.279L916.41 11.5l1.369-1.871 11.106 16.4h2.271l-12.2-18.01 1.232-1.683 13.581 19.693h2.284l-14.689-21.3 1.144-1.563 16.729 22.863h7.1V16.21l6.169 9.817h2.221l-7.267-11.563.992-1.355 8.837 12.918h2.279L949.63 11.5 951 9.629l11.106 16.4h2.271l-12.2-18.01 1.232-1.683 13.581 19.693h2.284l-14.689-21.3 1.144-1.563 16.729 22.863h7.1V16.21l6.169 9.817h2.221l-7.267-11.563.992-1.355 8.837 12.918h2.279L982.85 11.5l1.369-1.871 11.106 16.4h2.275L985.4 8.017l1.232-1.683 13.581 19.693h2.284l-14.689-21.3 1.144-1.563 16.729 22.863h7.1V16.21l6.17 9.817h2.221l-7.272-11.564.992-1.355 8.837 12.918h2.278L1016.07 11.5l1.369-1.871 11.106 16.4h2.271l-12.2-18.01 1.232-1.683 13.581 19.693h2.284l-14.69-21.3 1.144-1.563 16.733 22.86h7.1V16.21l6.17 9.817h2.221l-7.267-11.563.992-1.355 8.837 12.918h2.279L1049.29 11.5l1.369-1.871 11.106 16.4h2.271l-12.2-18.01 1.232-1.683 13.581 19.693h2.284l-14.689-21.3 1.144-1.563 16.729 22.863h7.1V16.21l6.17 9.817h2.221l-7.267-11.563.992-1.355 8.836 12.918h2.279L1082.51 11.5l1.369-1.871 11.106 16.4h2.271l-12.2-18.01 1.232-1.683 13.581 19.693h2.284l-14.69-21.3 1.144-1.563 16.729 22.863h7.1V16.21l6.169 9.817h2.221l-7.267-11.563.992-1.355 8.837 12.918h2.279L1115.73 11.5l1.37-1.871 11.106 16.4h2.271l-12.2-18.01 1.232-1.683 13.581 19.693h2.284l-14.689-21.3 1.144-1.563 16.729 22.863h7.1V16.21l6.17 9.817h2.221l-7.267-11.563.992-1.355 8.837 12.918h2.278L1148.95 11.5l1.369-1.871 11.106 16.4h2.271l-12.2-18.01 1.232-1.683 13.581 19.693h2.284l-14.689-21.3 1.145-1.563 16.729 22.863h7.1V16.21l6.17 9.817h2.221L1180 14.463l.992-1.355 8.837 12.918h2.279L1182.17 11.5l1.369-1.871 11.106 16.4h2.271l-12.2-18.01 1.232-1.683 13.581 19.693h2.284l-14.689-21.3 1.144-1.563L1205 26.026h7.1V16.21l6.169 9.817h2.221l-7.267-11.563.992-1.355 8.837 12.918h2.278l-9.94-14.527 1.37-1.871 11.106 16.4h2.271l-12.2-18.01 1.232-1.683 13.581 19.693h2.284l-14.69-21.3 1.144-1.563 16.729 22.863h7.1V16.21l6.169 9.817h2.221l-7.267-11.563.992-1.355 8.837 12.918h2.279l-9.939-14.527 1.369-1.871 11.106 16.4h2.271l-12.2-18.01 1.232-1.683 13.581 19.693h2.284l-14.689-21.3 1.145-1.563 16.729 22.863h7.1V16.21l6.17 9.817h2.221l-7.267-11.563.991-1.355 7.3 10.664v-3.331l-6.117-8.942 1.369-1.871 4.748 7.01v-3.354l-3.568-5.268 1.232-1.683 2.336 3.387V6.408l-1.16-1.682 1.145-1.563.015.021V0l-16.62 22.259-1.32-1.8L1284.33.015h-2.3l-13.2 18.837-1.374-1.877 12.078-16.96h-2.308l-10.936 15.361-1.007-1.376 9.346-13.985h-2.261l-8.268 12.369-1.3-1.784 7.28-10.584h-7.521V10.7L1254.726 0l-16.62 22.259-1.32-1.8L1251.11.015h-2.3l-13.2 18.837-1.374-1.877 12.078-16.96h-2.308l-10.936 15.361-1.007-1.376 9.346-13.985h-2.261l-8.267 12.369-1.306-1.785 7.28-10.584h-7.521V10.7L1221.506 0l-16.62 22.259-1.32-1.8L1217.891.015h-2.3l-13.2 18.837-1.374-1.877 12.077-16.96h-2.308l-10.936 15.361-1.007-1.376 9.346-13.985h-2.261l-8.267 12.369-1.306-1.785 7.28-10.584h-7.521V10.7L1188.287 0l-16.62 22.259-1.32-1.8L1184.671.015h-2.3l-13.2 18.837-1.374-1.877 12.078-16.96h-2.308l-10.937 15.361-1.007-1.376 9.346-13.985h-2.261l-8.267 12.369-1.306-1.785 7.28-10.584h-7.522V10.7L1155.067 0l-16.62 22.259-1.32-1.8L1151.451.015h-2.3l-13.2 18.837-1.374-1.877 12.078-16.96h-2.308l-10.936 15.361L1132.4 14l9.349-13.985h-2.261l-8.267 12.369-1.306-1.785L1137.2.015h-7.521V10.7L1121.847 0l-16.62 22.259-1.32-1.8L1118.231.015h-2.3l-13.2 18.837-1.374-1.877 12.078-16.96h-2.308l-10.936 15.361-1.008-1.376 9.346-13.985h-2.261L1098 12.384l-1.3-1.784 7.28-10.584h-7.521V10.7L1088.627 0l-16.62 22.259-1.32-1.8L1085.011.015h-2.3l-13.2 18.837-1.374-1.877 12.078-16.96h-2.308l-10.936 15.361-1.008-1.376L1075.31.015h-2.261l-8.267 12.369-1.306-1.785 7.28-10.584h-7.521V10.7L1055.407 0l-16.62 22.259-1.32-1.8L1051.791.015h-2.3l-13.2 18.837-1.374-1.877 12.078-16.96h-2.308l-10.936 15.361-1.008-1.376 9.346-13.985h-2.261l-8.267 12.369-1.306-1.785 7.28-10.584h-7.522V10.7L1022.187 0l-16.62 22.259-1.32-1.8L1018.571.015h-2.3l-13.2 18.837-1.374-1.877 12.078-16.96h-2.308l-10.936 15.361L999.523 14 1008.87.015h-2.261l-8.267 12.369-1.306-1.784 7.28-10.584h-7.522V10.7L988.967 0l-16.62 22.259-1.32-1.8L985.351.015h-2.3l-13.2 18.837-1.374-1.877L980.555.015h-2.308l-10.936 15.361L966.3 14 975.65.015h-2.261l-8.267 12.369-1.306-1.784L971.1.015h-7.521V10.7L955.747 0l-16.62 22.259-1.32-1.8L952.131.015h-2.3l-13.2 18.837-1.374-1.877L947.335.015h-2.308l-10.936 15.361L933.083 14 942.43.015h-2.261L931.9 12.384l-1.3-1.784L937.876.015h-7.521V10.7L922.527 0l-16.62 22.259-1.32-1.8L918.911.015h-2.3l-13.2 18.837-1.374-1.877L914.115.015h-2.308l-10.936 15.361L899.863 14 909.21.015h-2.261l-8.267 12.369-1.306-1.784 7.28-10.585h-7.521V10.7L889.307 0l-16.62 22.259-1.32-1.8L885.691.015h-2.3l-13.2 18.837-1.374-1.877L880.9.015h-2.308l-10.941 15.361L866.644 14 875.99.015h-2.261l-8.267 12.369-1.306-1.784 7.28-10.585h-7.522V10.7L856.087 0l-16.62 22.259-1.32-1.8L852.471.015h-2.3l-13.2 18.837-1.371-1.877L847.675.015h-2.308l-10.936 15.361L833.424 14 842.77.015h-2.261l-8.267 12.369-1.306-1.784 7.28-10.585h-7.521V10.7L822.868 0l-16.62 22.259-1.32-1.8L819.252.015h-2.3l-13.2 18.837-1.374-1.877L814.455.015h-2.308l-10.935 15.361L800.2 14 809.55.015h-2.261l-8.267 12.369-1.306-1.784L805 .015h-7.521V10.7L789.648 0l-16.62 22.259-1.32-1.8L786.032.015h-2.3l-13.2 18.837-1.374-1.877L781.236.015h-2.308l-10.936 15.361L766.984 14 776.33.015h-2.26l-8.27 12.369-1.3-1.784L771.776.015h-7.521V10.7L756.428 0l-16.62 22.259-1.32-1.8L752.812.015h-2.3l-13.2 18.837-1.374-1.877L748.016.015h-2.308l-10.936 15.361L733.764 14 743.11.015h-2.26l-8.267 12.369-1.306-1.784 7.28-10.585h-7.522V10.7L723.208 0l-16.62 22.259-1.32-1.8L719.592.015h-2.3L704.1 18.852l-1.374-1.877L714.8.015h-2.308l-10.94 15.361L700.544 14 709.89.015h-2.26l-8.267 12.369-1.306-1.784 7.28-10.585h-7.521V10.7L689.988 0l-16.62 22.259-1.32-1.8L686.372.015h-2.3l-13.2 18.837-1.372-1.877L681.576.015h-2.308l-10.936 15.361L667.324 14 676.671.015h-2.261l-8.267 12.369-1.306-1.784 7.28-10.585H664.6V10.7L656.768 0l-16.62 22.259-1.32-1.8L653.152.015h-2.3l-13.2 18.837-1.374-1.877L648.356.015h-2.308l-10.936 15.361L634.1 14 643.451.015h-2.261l-8.267 12.369-1.306-1.784L638.9.015h-7.521v10.951L623.351 0l-16.62 22.259-1.32-1.8L619.735.015h-2.3l-13.2 18.837-1.374-1.877L614.939.015h-2.308L601.7 15.376 600.687 14 610.034.015h-2.261l-8.267 12.369L598.2 10.6 605.48.015h-7.521V10.7L590.131 0l-16.62 22.259-1.32-1.8L586.515.015h-2.3l-13.2 18.837-1.374-1.877L581.719.015h-2.308l-10.936 15.361L567.467 14 576.814.015h-2.261l-8.267 12.369-1.306-1.784L572.26.015h-7.521V10.7L556.911 0l-16.62 22.259-1.32-1.8L553.3.015H551l-13.2 18.837-1.374-1.877L548.5.015h-2.308l-10.937 15.361L534.247 14 543.594.015h-2.261l-8.267 12.369-1.306-1.784L539.04.015h-7.521V10.7L523.691 0l-16.62 22.259-1.32-1.8L520.075.015h-2.3l-13.2 18.837-1.374-1.877L515.279.015h-2.308l-10.936 15.361L501.028 14 510.374.015h-2.261l-8.267 12.369-1.306-1.784L505.82.015h-7.52V10.7L490.471 0l-16.62 22.259-1.32-1.8L486.855.015h-2.3l-13.2 18.837-1.374-1.877L482.059.015h-2.308l-10.936 15.361L467.808 14 477.154.015h-2.261l-8.267 12.369-1.306-1.784L472.6.015h-7.522V10.7L457.252 0l-16.62 22.259-1.32-1.8L453.636.015h-2.3l-13.2 18.837-1.374-1.877L448.84.015h-2.308L435.6 15.376 434.588 14 443.934.015h-2.261l-8.267 12.369L432.1 10.6 439.38.015h-7.522V10.7L424.032 0l-16.62 22.259-1.32-1.8L420.416.015h-2.3l-13.2 18.837-1.374-1.877L415.62.015h-2.308l-10.936 15.361L401.368 14 410.714.015h-2.261l-8.267 12.369-1.306-1.784L406.16.015h-7.521V10.7L390.812 0l-16.62 22.259-1.32-1.8L387.2.015h-2.3l-13.2 18.837-1.374-1.877L382.4.015h-2.308l-10.936 15.361L368.148 14 377.494.015h-2.261l-8.267 12.369-1.305-1.784 7.28-10.585h-7.521V10.7L357.592 0l-16.62 22.259-1.32-1.8L353.976.015h-2.3l-13.2 18.837-1.374-1.877L349.18.015h-2.308l-10.936 15.361L334.928 14 344.274.015h-2.261l-8.267 12.369-1.305-1.784 7.28-10.585H332.2V10.7L324.372 0l-16.62 22.259-1.32-1.8L320.756.015h-2.3l-13.2 18.837-1.374-1.877L315.96.015h-2.308l-10.936 15.361L301.708 14 311.055.015h-2.261l-8.267 12.369-1.306-1.784L306.5.015h-7.522V10.7L291.152 0l-16.62 22.259-1.32-1.8L287.536.015h-2.3l-13.2 18.837-1.374-1.877L282.74.015h-2.308L269.5 15.376 268.488 14 277.835.015h-2.261l-8.267 12.369L266 10.6 273.281.015h-7.522V10.7L257.932 0l-16.62 22.259-1.32-1.8L254.316.015h-2.3l-13.2 18.837-1.374-1.877L249.52.015h-2.308l-10.936 15.361L235.268 14 244.615.015h-2.261l-8.267 12.369-1.306-1.784 7.28-10.585h-7.521V10.7L224.712 0l-16.62 22.259-1.32-1.8L221.1.015h-2.3l-13.2 18.837-1.374-1.877L216.3.015h-2.308l-10.936 15.361L202.048 14 211.395.015h-2.261l-8.267 12.369-1.306-1.784 7.28-10.585h-7.522V10.7L191.492 0l-16.62 22.259-1.32-1.8L187.876.015h-2.3l-13.2 18.837-1.374-1.877L183.08.015h-2.308l-10.936 15.361L168.828 14 178.175.015h-2.261l-8.267 12.369-1.306-1.784 7.28-10.585H166.1V10.7L158.272 0l-16.62 22.259-1.32-1.8L154.656.015h-2.3l-13.2 18.837-1.374-1.877L149.86.015h-2.308l-10.936 15.361L135.609 14 144.955.015h-2.261l-8.267 12.369-1.306-1.784L140.4.015h-7.52V10.7L125.052 0l-16.62 22.259-1.32-1.8L121.436.015h-2.3l-13.2 18.837-1.374-1.877L116.64.015h-2.308L103.4 15.376 102.389 14 111.735.015h-2.261l-8.267 12.369L99.9 10.6 107.181.015H99.66V10.7L91.833 0l-16.62 22.259-1.32-1.8L88.217.015h-2.3L72.72 18.852l-1.374-1.877L83.42.015h-2.308L70.176 15.376 69.169 14 78.515.015h-2.261l-8.267 12.369-1.306-1.784L73.961.015H66.44V10.7L58.613 0l-16.62 22.259-1.32-1.8L55 .015h-2.3L39.5 18.852l-1.374-1.877L50.2.015h-2.308L36.957 15.376 35.949 14 45.3.015h-2.266l-8.267 12.369-1.306-1.784L40.741.015H33.22V10.7L25.393 0 8.773 22.259l-1.32-1.8L21.777.015h-2.3L6.28 18.852l-1.374-1.877L16.981.015h-2.308L3.737 15.376 2.729 14 12.075.015h-2.26L1.547 12.384.242 10.6 7.521.015H0V10.7z"/><path data-name="Caminho 193" d="M1279.144 40.903l-1.306-1.785 7.28-10.584h-7.518v10.685l-7.831-10.7-16.62 22.259-1.32-1.8 14.324-20.444h-2.3l-13.2 18.837-1.374-1.877 12.078-16.96h-2.308l-10.936 15.361-1.007-1.376 9.346-13.985h-2.261l-8.267 12.369-1.306-1.785 7.282-10.584h-7.521v10.685l-7.829-10.7-16.62 22.259-1.32-1.8 14.323-20.444h-2.3l-13.2 18.837-1.374-1.877 12.078-16.96h-2.308l-10.936 15.361-1.007-1.376 9.346-13.985h-2.261l-8.271 12.369-1.3-1.784 7.28-10.584h-7.521v10.684l-7.829-10.7-16.62 22.259-1.32-1.8 14.324-20.444h-2.3l-13.2 18.837-1.374-1.877 12.078-16.96h-2.308l-10.936 15.361-1.008-1.376 9.346-13.985h-2.261l-8.267 12.369-1.306-1.785 7.28-10.584h-7.522v10.685l-7.826-10.7-16.62 22.259-1.32-1.8 14.324-20.444h-2.3L1151 47.371l-1.374-1.877 12.074-16.96h-2.308l-10.936 15.361-1.01-1.376 9.346-13.985h-2.261l-8.267 12.369-1.306-1.785 7.28-10.584h-7.521v10.685l-7.827-10.7-16.62 22.259-1.32-1.8 14.324-20.444h-2.3l-13.2 18.837-1.374-1.877 12.078-16.96h-2.308l-10.936 15.361-1.008-1.376 9.347-13.985h-2.261l-8.267 12.369-1.306-1.785 7.28-10.584h-7.519v10.685l-7.83-10.7-16.62 22.259-1.32-1.8 14.324-20.444h-2.3l-13.2 18.837-1.374-1.877 12.078-16.96h-2.308l-10.936 15.361-1.008-1.376 9.346-13.985h-2.261l-8.267 12.369-1.306-1.785 7.282-10.584h-7.521v10.685l-7.829-10.7-16.62 22.259-1.32-1.8 14.324-20.444h-2.3l-13.2 18.837-1.374-1.877 12.078-16.96h-2.308l-10.936 15.361-1.008-1.376 9.347-13.985h-2.261l-8.272 12.369-1.3-1.784 7.28-10.584h-7.521v10.684l-7.829-10.7-16.62 22.259-1.32-1.8 14.324-20.444h-2.3l-13.2 18.837-1.374-1.877 12.078-16.96h-2.308l-10.936 15.361-1.008-1.376 9.347-13.985h-2.261l-8.267 12.369-1.306-1.785 7.28-10.584h-7.521v10.685l-7.828-10.7-16.62 22.259-1.32-1.8 14.324-20.444h-2.3L984.9 47.371l-1.374-1.877 12.074-16.96h-2.31l-10.936 15.361-1.008-1.376 9.347-13.985h-2.261l-8.267 12.369-1.306-1.784 7.28-10.585h-7.521v10.685l-7.828-10.7-16.62 22.259-1.32-1.8 14.324-20.444h-2.3l-13.2 18.837-1.374-1.877 12.078-16.96h-2.308l-10.936 15.361-1.008-1.376 9.347-13.985h-2.261l-8.267 12.369-1.306-1.784 7.28-10.585H945.4v10.685l-7.83-10.7-16.62 22.259-1.32-1.8 14.324-20.444h-2.3l-13.2 18.837-1.374-1.877 12.078-16.96h-2.308l-10.936 15.361-1.007-1.376 9.346-13.985h-2.261l-8.267 12.369-1.306-1.784 7.281-10.585h-7.522v10.685l-7.828-10.7-16.62 22.259-1.32-1.8 14.324-20.444h-2.3l-13.2 18.837-1.374-1.877 12.078-16.96h-2.308l-10.936 15.361-1.007-1.376 9.346-13.985h-2.261l-8.267 12.369-1.305-1.784 7.279-10.585h-7.522v10.685l-7.827-10.7-16.62 22.259-1.32-1.8 14.324-20.444h-2.3l-13.2 18.837-1.374-1.877 12.078-16.96h-2.308l-10.936 15.361-1.007-1.376 9.346-13.985h-2.261l-8.267 12.369-1.306-1.784 7.28-10.585h-7.522v10.685l-7.826-10.7-16.62 22.259-1.32-1.8 14.323-20.444H832l-13.2 18.837-1.374-1.877 12.074-16.96h-2.31l-10.936 15.361-1.007-1.376 9.346-13.985h-2.261l-8.267 12.369-1.306-1.784 7.28-10.585h-7.521v10.685l-7.827-10.7-16.62 22.259-1.32-1.8 14.324-20.444h-2.3l-13.2 18.837-1.375-1.877 12.079-16.96h-2.308l-10.937 15.361-1.007-1.376 9.346-13.985h-2.261l-8.267 12.369-1.306-1.784 7.28-10.585H779.3v10.685l-7.829-10.7-16.62 22.259-1.32-1.8 14.324-20.444h-2.3l-13.2 18.837-1.374-1.877 12.078-16.96h-2.308l-10.936 15.361-1.008-1.376 9.346-13.985h-2.261l-8.267 12.369-1.305-1.784 7.28-10.585h-7.522v10.685l-7.827-10.7-16.62 22.259-1.32-1.8 14.324-20.444h-2.3l-13.2 18.837-1.374-1.877 12.078-16.96h-2.308l-10.936 15.361-1.008-1.376 9.346-13.985h-2.261l-8.267 12.369-1.305-1.784 7.28-10.585h-7.521v10.685l-7.828-10.7-16.62 22.259-1.32-1.8 14.324-20.444h-2.3l-13.2 18.837-1.374-1.877 12.078-16.96h-2.308l-10.936 15.361-1.008-1.376 9.347-13.985h-2.261l-8.267 12.369-1.306-1.784 7.28-10.585h-7.521v10.685l-7.828-10.7-16.62 22.259-1.32-1.8 14.324-20.444h-2.3L652.7 47.371l-1.374-1.877 12.074-16.96h-2.308l-10.937 15.361-1.008-1.376 9.347-13.985h-2.261l-8.267 12.369-1.306-1.784 7.28-10.585h-7.521v10.951l-8.025-10.966-16.62 22.259-1.32-1.8 14.324-20.444h-2.3l-13.2 18.837-1.374-1.877 12.078-16.96h-2.308l-10.936 15.361-1.008-1.376 9.347-13.985h-2.261l-8.267 12.369-1.306-1.784 7.28-10.585H613v10.685l-7.826-10.7-16.62 22.259-1.32-1.8 14.324-20.444h-2.3l-13.2 18.837-1.374-1.877 12.078-16.96h-2.308l-10.936 15.361-1.008-1.376 9.347-13.985H589.6l-8.267 12.369-1.31-1.784 7.277-10.585h-7.522v10.685l-7.824-10.7-16.62 22.259-1.32-1.8 14.324-20.444h-2.3l-13.2 18.837-1.374-1.877 12.078-16.96h-2.308L550.3 43.895l-1.01-1.376 9.347-13.985h-2.261l-8.267 12.369-1.309-1.784 7.283-10.585h-7.522v10.685l-7.827-10.7-16.62 22.259-1.32-1.8 14.324-20.444h-2.3l-13.2 18.837-1.374-1.877 12.078-16.96h-2.308l-10.936 15.361-1.007-1.376 9.346-13.985h-2.261l-8.267 12.369-1.306-1.784 7.28-10.585h-7.521v10.685l-7.828-10.7-16.62 22.259-1.32-1.8L501.9 28.534h-2.3l-13.2 18.837-1.374-1.877 12.074-16.96h-2.308l-10.934 15.361-1.007-1.376 9.349-13.985h-2.261l-8.267 12.369-1.309-1.784 7.28-10.585h-7.521v10.685l-7.828-10.7-16.62 22.259-1.32-1.8 14.324-20.444h-2.3l-13.2 18.837-1.374-1.877 12.078-16.96h-2.308l-10.936 15.361-1.007-1.376 9.346-13.985h-2.261l-8.267 12.369-1.306-1.784 7.28-10.585H446.9v10.685l-7.825-10.7-16.62 22.259-1.32-1.8 14.324-20.444h-2.3l-13.2 18.837-1.374-1.877 12.078-16.96h-2.308l-10.936 15.361-1.008-1.376 9.346-13.985H423.5l-8.267 12.369-1.31-1.784 7.277-10.585h-7.521v10.685l-7.824-10.7-16.62 22.259-1.32-1.8 14.324-20.444h-2.3l-13.2 18.837-1.374-1.877 12.078-16.96h-2.308L384.2 43.895l-1.009-1.376 9.346-13.985h-2.261l-8.267 12.369-1.309-1.784 7.284-10.585h-7.521v10.685l-7.828-10.7-16.62 22.259-1.32-1.8 14.324-20.444h-2.3l-13.2 18.837-1.374-1.877 12.078-16.96h-2.308l-10.936 15.361-1.008-1.376 9.346-13.985h-2.261l-8.267 12.369-1.305-1.784 7.28-10.585h-7.522v10.685l-7.827-10.7L322.8 50.778l-1.32-1.8 14.32-20.444h-2.3l-13.2 18.837-1.374-1.877L331 28.534h-2.308l-10.933 15.361-1.008-1.376 9.349-13.985h-2.261l-8.269 12.369-1.306-1.784 7.28-10.585h-7.522v10.685l-7.827-10.7-16.62 22.259-1.32-1.8 14.324-20.444h-2.3l-13.2 18.837-1.374-1.877 12.078-16.96h-2.308l-10.936 15.361-1.008-1.376 9.347-13.985h-2.261l-8.267 12.369-1.306-1.784 7.28-10.585H280.8v10.685l-7.825-10.7-16.62 22.259-1.32-1.8 14.324-20.444h-2.3l-13.2 18.837-1.374-1.877 12.078-16.96h-2.308l-10.936 15.361-1.008-1.376 9.347-13.985H257.4l-8.27 12.369-1.306-1.784 7.276-10.585h-7.521v10.685l-7.824-10.7-16.62 22.259-1.32-1.8 14.324-20.444h-2.3l-13.2 18.837-1.374-1.877 12.078-16.96h-2.308L218.1 43.895l-1.009-1.376 9.347-13.985h-2.261l-8.267 12.369-1.31-1.784 7.284-10.585h-7.521v10.685l-7.828-10.7-16.62 22.259-1.32-1.8 14.324-20.444h-2.3l-13.2 18.837-1.374-1.877 12.078-16.96h-2.308l-10.936 15.361-1.008-1.376 9.347-13.985h-2.261l-8.267 12.369-1.306-1.784 7.28-10.585h-7.521v10.685l-7.828-10.7L156.7 50.778l-1.32-1.8 14.32-20.444h-2.3l-13.2 18.837-1.374-1.877 12.074-16.96h-2.3l-10.941 15.361-1.007-1.376L160 28.534h-2.261l-8.269 12.369-1.306-1.784 7.28-10.585h-7.521v10.685l-7.823-10.7-16.62 22.259-1.32-1.8 14.319-20.444h-2.3l-13.2 18.837-1.374-1.877 12.078-16.96h-2.308l-10.936 15.361-1.007-1.376 9.346-13.985h-2.261l-8.267 12.369-1.306-1.784 7.28-10.585H114.7v10.685l-7.825-10.7-16.619 22.259-1.32-1.8 14.324-20.444h-2.3l-13.2 18.837-1.374-1.877 12.077-16.96h-2.308L85.219 43.895l-1.007-1.376 9.346-13.985H91.3l-8.27 12.369-1.306-1.784L89 28.534h-7.517v10.685l-7.827-10.7-16.62 22.259-1.32-1.8L70.04 28.534h-2.3l-13.2 18.837-1.374-1.877 12.078-16.96h-2.309L52 43.895l-1.008-1.376 9.346-13.985h-2.261L49.81 40.903l-1.31-1.784 7.284-10.585h-7.521v10.685l-7.827-10.7-16.62 22.259-1.32-1.8L36.82 28.534h-2.3l-13.2 18.837-1.37-1.877 12.074-16.96h-2.309L18.78 43.895l-1.008-1.376 9.346-13.985h-2.26L16.59 40.903l-1.305-1.784 7.279-10.585h-7.521v10.685l-7.827-10.7L0 38.183v3.56l8.758 12.8h2.279L1.1 40.019l1.368-1.871 11.106 16.4h2.271L3.648 36.536l1.232-1.684 13.581 19.693h2.284L6.056 33.246 7.2 31.682l16.73 22.863h7.1v-9.816l6.17 9.817h2.221l-7.272-11.564.992-1.355 8.837 12.918h2.279l-9.938-14.526 1.369-1.871 11.106 16.4h2.271l-12.2-18.01 1.235-1.686 13.581 19.693h2.284L39.276 33.246l1.144-1.564 16.73 22.863h7.1v-9.816l6.17 9.817h2.221l-7.272-11.564.992-1.355L75.2 54.545h2.279l-9.94-14.526 1.369-1.871 11.106 16.4h2.271l-12.2-18.01 1.235-1.686L84.9 54.545h2.284L72.5 33.246l1.14-1.564 16.729 22.863h7.1v-9.816l6.17 9.817h2.221l-7.271-11.564.992-1.355 8.837 12.918h2.282l-9.941-14.526 1.369-1.871 11.106 16.4h2.271l-12.2-18.01 1.232-1.683 13.581 19.693h2.284l-14.689-21.3 1.144-1.563 16.729 22.863h7.1v-9.819l6.169 9.817h2.221l-7.267-11.563.992-1.355 8.837 12.918h2.279l-9.939-14.527 1.369-1.871 11.106 16.4h2.271l-12.2-18.01 1.232-1.683 13.581 19.693h2.284l-14.689-21.3 1.144-1.563 16.729 22.863h7.1v-9.819l6.17 9.817h2.225l-7.267-11.563.992-1.355 8.837 12.918h2.279L167.2 40.019l1.369-1.871 11.106 16.4h2.271l-12.2-18.01 1.232-1.683 13.581 19.693h2.284l-14.689-21.3 1.146-1.566 16.729 22.863h7.1v-9.816l6.169 9.817h2.221l-7.267-11.563.992-1.355 8.837 12.918h2.279l-9.942-14.527 1.369-1.871 11.106 16.4h2.271l-12.2-18.01 1.236-1.686 13.581 19.693h2.284l-14.689-21.3 1.144-1.563 16.729 22.863h7.1v-9.816l6.169 9.817h2.221l-7.267-11.563.992-1.355 8.836 12.917h2.279l-9.941-14.526 1.369-1.871 11.106 16.4h2.271l-12.2-18.01 1.232-1.683L251 54.545h2.284L238.6 33.246l1.144-1.563 16.729 22.863h7.1v-9.817l6.169 9.817h2.221l-7.267-11.563.992-1.355 8.837 12.918h2.275l-9.942-14.527 1.369-1.871 11.106 16.4h2.267l-12.2-18.01 1.232-1.683 13.581 19.693h2.287l-14.689-21.3 1.144-1.563 16.729 22.863h7.1v-9.819l6.169 9.817h2.221l-7.267-11.563.992-1.355 8.837 12.918h2.279l-9.937-14.527 1.369-1.871 11.106 16.4h2.271l-12.2-18.01 1.232-1.683 13.581 19.693h2.284l-14.689-21.3 1.144-1.563 16.729 22.863h7.1v-9.819l6.169 9.817h2.226l-7.267-11.563.992-1.355 8.837 12.918h2.279L333.3 40.019l1.369-1.871 11.106 16.4h2.271l-12.2-18.01 1.232-1.683 13.582 19.69h2.284l-14.689-21.3 1.145-1.563 16.729 22.863h7.1v-9.816l6.169 9.817h2.221l-7.267-11.563.992-1.355 8.837 12.918h2.279l-9.942-14.527 1.369-1.871 11.106 16.4h2.271l-12.2-18.01 1.236-1.686 13.58 19.693h2.284l-14.689-21.3 1.144-1.563 16.729 22.863h7.1v-9.816l6.17 9.817h2.221l-7.267-11.563.992-1.355 8.836 12.917h2.279l-9.941-14.526 1.369-1.871 11.106 16.4h2.271l-12.2-18.01 1.232-1.683 13.584 19.69h2.284L404.7 33.246l1.144-1.563 16.729 22.863h7.1v-9.817l6.17 9.817h2.221l-7.267-11.563.992-1.355 8.837 12.918h2.274l-9.942-14.527 1.369-1.871 11.106 16.4h2.267l-12.2-18.01 1.232-1.683 13.588 19.69h2.28l-14.689-21.3 1.144-1.563 16.729 22.863h7.1v-9.816l6.17 9.817h2.221l-7.267-11.563.992-1.355 8.837 12.918h2.279l-9.938-14.527 1.369-1.871 11.106 16.4h2.271l-12.2-18.01 1.232-1.683 13.584 19.69h2.284l-14.689-21.3 1.144-1.563 16.729 22.863h7.1v-9.816l6.17 9.817h2.222l-7.267-11.563.992-1.355 8.837 12.918h2.279L499.4 40.019l1.369-1.871 11.106 16.4h2.271l-12.2-18.01 1.232-1.683 13.582 19.69h2.284l-14.689-21.3 1.145-1.563 16.729 22.863h7.1v-9.816l6.17 9.817h2.221l-7.267-11.563.992-1.355 8.837 12.918h2.279l-9.944-14.527 1.369-1.871 11.106 16.4h2.271l-12.2-18.01 1.237-1.686 13.58 19.693h2.284l-14.689-21.3 1.144-1.563 16.729 22.863h7.1v-9.816l6.17 9.817h2.221l-7.267-11.563.992-1.355 8.836 12.917h2.279l-9.942-14.526 1.369-1.871 11.106 16.4h2.271l-12.2-18.01 1.232-1.683 13.585 19.69h2.284l-14.689-21.3 1.144-1.563 16.729 22.863h7.1v-9.816l6.17 9.817h2.221l-7.267-11.563.992-1.355 8.837 12.918H609l-9.943-14.527 1.369-1.871 11.106 16.4h2.268l-12.2-18.01 1.232-1.683 13.588 19.69h2.28l-14.689-21.3 1.144-1.563 16.729 22.863h7.1v-9.816l6.169 9.817h2.221l-7.267-11.563.992-1.355 8.837 12.918h2.279l-9.938-14.527 1.369-1.871 11.106 16.4h2.271l-12.2-18.01 1.232-1.683 13.585 19.69h2.284l-14.689-21.3 1.144-1.563 16.729 22.863h7.292v-9.816l6.169 9.817h2.221l-7.267-11.563.992-1.355 8.837 12.918h2.279l-9.937-14.527 1.369-1.871 11.106 16.4h2.271l-12.2-18.01 1.232-1.683 13.581 19.693h2.284l-14.689-21.3 1.152-1.566 16.729 22.863h7.1v-9.816l6.169 9.817h2.221l-7.267-11.563.992-1.355 8.837 12.918h2.279l-9.946-14.527 1.369-1.871 11.106 16.4h2.271l-12.2-18.01 1.24-1.686 13.581 19.693h2.284l-14.69-21.3 1.144-1.563 16.729 22.863h7.1v-9.816l6.17 9.817h2.221l-7.267-11.563.992-1.355 8.837 12.918h2.279l-9.946-14.527 1.366-1.871 11.106 16.4h2.271l-12.2-18.01 1.232-1.683 13.591 19.69h2.284l-14.689-21.3 1.144-1.563 16.729 22.863h7.1v-9.816l6.169 9.817h2.221l-7.267-11.563.992-1.355 8.837 12.918h2.278l-9.944-14.527 1.369-1.871 11.106 16.4h2.271l-12.2-18.012 1.232-1.683 13.581 19.693H785l-14.689-21.3 1.144-1.563 16.729 22.863h7.1v-9.817l6.169 9.817h2.221L796.4 42.982l.992-1.355 8.837 12.918h2.279l-9.934-14.526 1.369-1.871 11.106 16.4h2.271l-12.2-18.01 1.232-1.683 13.581 19.693h2.284l-14.689-21.3 1.144-1.563 16.728 22.86h7.1v-9.816l6.169 9.817h2.221l-7.267-11.563.992-1.355 8.836 12.918h2.279l-9.936-14.527 1.369-1.871 11.106 16.4h2.271l-12.2-18.01 1.232-1.683 13.581 19.693h2.284l-14.689-21.3 1.152-1.566 16.729 22.863h7.1v-9.816l6.169 9.817h2.221l-7.267-11.563.992-1.355 8.837 12.918h2.279l-9.946-14.527 1.369-1.871 11.106 16.4h2.271l-12.2-18.01 1.232-1.683 13.581 19.693h2.284l-14.69-21.3 1.144-1.563 16.729 22.863h7.1v-9.819l6.17 9.817h2.221l-7.267-11.563.991-1.355 8.837 12.918h2.278l-9.937-14.527 1.367-1.871 11.106 16.4h2.271l-12.2-18.01 1.232-1.683 13.591 19.69h2.284l-14.689-21.3 1.144-1.563 16.729 22.863h7.1v-9.816l6.169 9.817h2.221l-7.267-11.563.992-1.355 8.837 12.918h2.279l-9.946-14.527 1.369-1.871 11.106 16.4h2.272L934 36.536l1.232-1.683 13.581 19.693h2.287l-14.69-21.3 1.144-1.563 16.729 22.863h7.1v-9.817l6.169 9.817h2.221L962.5 42.982l.992-1.355 8.836 12.918h2.279l-9.934-14.526 1.369-1.871 11.106 16.4h2.271l-12.2-18.01 1.232-1.683 13.581 19.693h2.284l-14.689-21.3 1.144-1.563 16.729 22.86h7.1v-9.816l6.169 9.817h2.221l-7.267-11.563.992-1.355 8.837 12.918h2.279l-9.938-14.527 1.369-1.871 11.106 16.4h2.271l-12.2-18.01 1.232-1.683 13.581 19.693h2.284l-14.689-21.3 1.144-1.563 16.729 22.863h7.1v-9.819l6.17 9.817h2.221l-7.267-11.563.991-1.355 8.837 12.918h2.279l-9.938-14.527 1.37-1.871 11.106 16.4h2.271l-12.2-18.01 1.232-1.683 13.581 19.693h2.284l-14.689-21.3 1.144-1.563 16.729 22.863h7.1v-9.819l6.17 9.817h2.221l-7.267-11.563.992-1.355 8.837 12.918h2.278l-9.939-14.527 1.369-1.871 11.106 16.4h2.271l-12.2-18.01 1.232-1.683 13.589 19.69h2.284l-14.689-21.3 1.144-1.563 16.729 22.863h7.1v-9.816l6.169 9.817h2.221l-7.267-11.563.992-1.355 8.837 12.918h2.279l-9.946-14.527 1.369-1.871 11.106 16.4h2.271l-12.2-18.01 1.232-1.683 13.581 19.693h2.284l-14.689-21.3 1.144-1.563 16.729 22.863h7.1v-9.819l6.169 9.817h2.221l-7.27-11.564.992-1.355 8.837 12.918h2.279l-9.935-14.526 1.369-1.871 11.106 16.4h2.271l-12.2-18.01 1.232-1.683 13.581 19.693h2.284l-14.689-21.3 1.144-1.563 16.729 22.86h7.1v-9.816l6.17 9.817h2.221l-7.267-11.563.991-1.355 8.837 12.918h2.279l-9.938-14.527 1.37-1.871 11.106 16.4h2.271l-12.2-18.01 1.232-1.683 13.581 19.693h2.284l-14.689-21.3 1.145-1.563 16.729 22.863h7.1v-9.819l6.17 9.817h2.221l-7.267-11.563.991-1.355 8.837 12.918h2.278l-9.939-14.527 1.369-1.871 11.106 16.4h2.271l-12.2-18.01 1.232-1.683 13.581 19.693h2.284l-14.689-21.3 1.144-1.563 16.729 22.863h7.1v-9.819l6.17 9.817h2.221l-7.267-11.563.992-1.355 8.837 12.918h2.279l-9.94-14.527 1.369-1.871 11.106 16.4h2.271l-12.2-18.01 1.232-1.683 13.59 19.69h2.284l-14.689-21.3 1.144-1.563 16.729 22.863h7.1v-9.816l6.169 9.817h2.221l-7.267-11.563.992-1.355 8.836 12.918h2.279l-9.946-14.527 1.37-1.871 11.106 16.4h2.271l-12.2-18.01 1.232-1.683 13.581 19.693h2.284l-14.69-21.3 1.144-1.563 16.729 22.863h1.463v-5.88l-1.577 2.112-1.32-1.8 2.9-4.134v-3.282l-4.07 5.807-1.374-1.877 5.443-7.646v-3.242l-6.613 9.289-1.005-1.376 7.621-11.4v-2.585h-.535z"/></g></svg>