<svg xmlns="http://www.w3.org/2000/svg" width="11.739" height="10.654" viewBox="0 0 11.739 10.654">
  <path id="Caminho_251" data-name="Caminho 251" d="M894.586,307.147a.3.3,0,0,1,.047-.321l3.245-4.776a.152.152,0,0,0,0-.183l-3.245-4.775a.473.473,0,0,1-.061-.214c0-.163.1-.246.305-.246h2.572a.482.482,0,0,1,.429.246l3.215,4.837a.331.331,0,0,1,.092.244.53.53,0,0,1-.092.246l-3.215,4.837a.481.481,0,0,1-.429.245h-2.572A.3.3,0,0,1,894.586,307.147Zm5.112,0a.3.3,0,0,1,.047-.321l3.244-4.776a.152.152,0,0,0,0-.183l-3.244-4.775a.489.489,0,0,1-.062-.214c0-.163.1-.246.307-.246h2.571a.48.48,0,0,1,.429.246l3.215,4.837a.33.33,0,0,1,.092.244.527.527,0,0,1-.092.246l-3.215,4.837a.479.479,0,0,1-.429.245h-2.571A.305.305,0,0,1,899.7,307.147Z" transform="translate(-894.556 -296.632)" fill="#cc3e00"/>
</svg>
